<svg version="1.1" xmlns="http://www.w3.org/2000/svg" xmlns:xlink="http://www.w3.org/1999/xlink" width="1155" height="659"><defs/><g><text fill="#eeeeee" stroke="none" font-family="Arial" font-size="24px" font-style="normal" font-weight="normal" text-decoration="none" x="0" y="0">UNREGISTERED</text><text fill="#eeeeee" stroke="none" font-family="Arial" font-size="24px" font-style="normal" font-weight="normal" text-decoration="none" x="0" y="30">UNREGISTERED</text><text fill="#eeeeee" stroke="none" font-family="Arial" font-size="24px" font-style="normal" font-weight="normal" text-decoration="none" x="0" y="60">UNREGISTERED</text><text fill="#eeeeee" stroke="none" font-family="Arial" font-size="24px" font-style="normal" font-weight="normal" text-decoration="none" x="0" y="90">UNREGISTERED</text><text fill="#eeeeee" stroke="none" font-family="Arial" font-size="24px" font-style="normal" font-weight="normal" text-decoration="none" x="0" y="120">UNREGISTERED</text><text fill="#eeeeee" stroke="none" font-family="Arial" font-size="24px" font-style="normal" font-weight="normal" text-decoration="none" x="0" y="150">UNREGISTERED</text><text fill="#eeeeee" stroke="none" font-family="Arial" font-size="24px" font-style="normal" font-weight="normal" text-decoration="none" x="0" y="180">UNREGISTERED</text><text fill="#eeeeee" stroke="none" font-family="Arial" font-size="24px" font-style="normal" font-weight="normal" text-decoration="none" x="0" y="210">UNREGISTERED</text><text fill="#eeeeee" stroke="none" font-family="Arial" font-size="24px" font-style="normal" font-weight="normal" text-decoration="none" x="0" y="240">UNREGISTERED</text><text fill="#eeeeee" stroke="none" font-family="Arial" font-size="24px" font-style="normal" font-weight="normal" text-decoration="none" x="0" y="270">UNREGISTERED</text><text fill="#eeeeee" stroke="none" font-family="Arial" font-size="24px" font-style="normal" font-weight="normal" text-decoration="none" x="0" y="300">UNREGISTERED</text><text fill="#eeeeee" stroke="none" font-family="Arial" font-size="24px" font-style="normal" font-weight="normal" text-decoration="none" x="0" y="330">UNREGISTERED</text><text fill="#eeeeee" stroke="none" font-family="Arial" font-size="24px" font-style="normal" font-weight="normal" text-decoration="none" x="0" y="360">UNREGISTERED</text><text fill="#eeeeee" stroke="none" font-family="Arial" font-size="24px" font-style="normal" font-weight="normal" text-decoration="none" x="0" y="390">UNREGISTERED</text><text fill="#eeeeee" stroke="none" font-family="Arial" font-size="24px" font-style="normal" font-weight="normal" text-decoration="none" x="0" y="420">UNREGISTERED</text><text fill="#eeeeee" stroke="none" font-family="Arial" font-size="24px" font-style="normal" font-weight="normal" text-decoration="none" x="0" y="450">UNREGISTERED</text><text fill="#eeeeee" stroke="none" font-family="Arial" font-size="24px" font-style="normal" font-weight="normal" text-decoration="none" x="0" y="480">UNREGISTERED</text><text fill="#eeeeee" stroke="none" font-family="Arial" font-size="24px" font-style="normal" font-weight="normal" text-decoration="none" x="0" y="510">UNREGISTERED</text><text fill="#eeeeee" stroke="none" font-family="Arial" font-size="24px" font-style="normal" font-weight="normal" text-decoration="none" x="0" y="540">UNREGISTERED</text><text fill="#eeeeee" stroke="none" font-family="Arial" font-size="24px" font-style="normal" font-weight="normal" text-decoration="none" x="0" y="570">UNREGISTERED</text><text fill="#eeeeee" stroke="none" font-family="Arial" font-size="24px" font-style="normal" font-weight="normal" text-decoration="none" x="0" y="600">UNREGISTERED</text><text fill="#eeeeee" stroke="none" font-family="Arial" font-size="24px" font-style="normal" font-weight="normal" text-decoration="none" x="0" y="630">UNREGISTERED</text><text fill="#eeeeee" stroke="none" font-family="Arial" font-size="24px" font-style="normal" font-weight="normal" text-decoration="none" x="200" y="0">UNREGISTERED</text><text fill="#eeeeee" stroke="none" font-family="Arial" font-size="24px" font-style="normal" font-weight="normal" text-decoration="none" x="200" y="30">UNREGISTERED</text><text fill="#eeeeee" stroke="none" font-family="Arial" font-size="24px" font-style="normal" font-weight="normal" text-decoration="none" x="200" y="60">UNREGISTERED</text><text fill="#eeeeee" stroke="none" font-family="Arial" font-size="24px" font-style="normal" font-weight="normal" text-decoration="none" x="200" y="90">UNREGISTERED</text><text fill="#eeeeee" stroke="none" font-family="Arial" font-size="24px" font-style="normal" font-weight="normal" text-decoration="none" x="200" y="120">UNREGISTERED</text><text fill="#eeeeee" stroke="none" font-family="Arial" font-size="24px" font-style="normal" font-weight="normal" text-decoration="none" x="200" y="150">UNREGISTERED</text><text fill="#eeeeee" stroke="none" font-family="Arial" font-size="24px" font-style="normal" font-weight="normal" text-decoration="none" x="200" y="180">UNREGISTERED</text><text fill="#eeeeee" stroke="none" font-family="Arial" font-size="24px" font-style="normal" font-weight="normal" text-decoration="none" x="200" y="210">UNREGISTERED</text><text fill="#eeeeee" stroke="none" font-family="Arial" font-size="24px" font-style="normal" font-weight="normal" text-decoration="none" x="200" y="240">UNREGISTERED</text><text fill="#eeeeee" stroke="none" font-family="Arial" font-size="24px" font-style="normal" font-weight="normal" text-decoration="none" x="200" y="270">UNREGISTERED</text><text fill="#eeeeee" stroke="none" font-family="Arial" font-size="24px" font-style="normal" font-weight="normal" text-decoration="none" x="200" y="300">UNREGISTERED</text><text fill="#eeeeee" stroke="none" font-family="Arial" font-size="24px" font-style="normal" font-weight="normal" text-decoration="none" x="200" y="330">UNREGISTERED</text><text fill="#eeeeee" stroke="none" font-family="Arial" font-size="24px" font-style="normal" font-weight="normal" text-decoration="none" x="200" y="360">UNREGISTERED</text><text fill="#eeeeee" stroke="none" font-family="Arial" font-size="24px" font-style="normal" font-weight="normal" text-decoration="none" x="200" y="390">UNREGISTERED</text><text fill="#eeeeee" stroke="none" font-family="Arial" font-size="24px" font-style="normal" font-weight="normal" text-decoration="none" x="200" y="420">UNREGISTERED</text><text fill="#eeeeee" stroke="none" font-family="Arial" font-size="24px" font-style="normal" font-weight="normal" text-decoration="none" x="200" y="450">UNREGISTERED</text><text fill="#eeeeee" stroke="none" font-family="Arial" font-size="24px" font-style="normal" font-weight="normal" text-decoration="none" x="200" y="480">UNREGISTERED</text><text fill="#eeeeee" stroke="none" font-family="Arial" font-size="24px" font-style="normal" font-weight="normal" text-decoration="none" x="200" y="510">UNREGISTERED</text><text fill="#eeeeee" stroke="none" font-family="Arial" font-size="24px" font-style="normal" font-weight="normal" text-decoration="none" x="200" y="540">UNREGISTERED</text><text fill="#eeeeee" stroke="none" font-family="Arial" font-size="24px" font-style="normal" font-weight="normal" text-decoration="none" x="200" y="570">UNREGISTERED</text><text fill="#eeeeee" stroke="none" font-family="Arial" font-size="24px" font-style="normal" font-weight="normal" text-decoration="none" x="200" y="600">UNREGISTERED</text><text fill="#eeeeee" stroke="none" font-family="Arial" font-size="24px" font-style="normal" font-weight="normal" text-decoration="none" x="200" y="630">UNREGISTERED</text><text fill="#eeeeee" stroke="none" font-family="Arial" font-size="24px" font-style="normal" font-weight="normal" text-decoration="none" x="400" y="0">UNREGISTERED</text><text fill="#eeeeee" stroke="none" font-family="Arial" font-size="24px" font-style="normal" font-weight="normal" text-decoration="none" x="400" y="30">UNREGISTERED</text><text fill="#eeeeee" stroke="none" font-family="Arial" font-size="24px" font-style="normal" font-weight="normal" text-decoration="none" x="400" y="60">UNREGISTERED</text><text fill="#eeeeee" stroke="none" font-family="Arial" font-size="24px" font-style="normal" font-weight="normal" text-decoration="none" x="400" y="90">UNREGISTERED</text><text fill="#eeeeee" stroke="none" font-family="Arial" font-size="24px" font-style="normal" font-weight="normal" text-decoration="none" x="400" y="120">UNREGISTERED</text><text fill="#eeeeee" stroke="none" font-family="Arial" font-size="24px" font-style="normal" font-weight="normal" text-decoration="none" x="400" y="150">UNREGISTERED</text><text fill="#eeeeee" stroke="none" font-family="Arial" font-size="24px" font-style="normal" font-weight="normal" text-decoration="none" x="400" y="180">UNREGISTERED</text><text fill="#eeeeee" stroke="none" font-family="Arial" font-size="24px" font-style="normal" font-weight="normal" text-decoration="none" x="400" y="210">UNREGISTERED</text><text fill="#eeeeee" stroke="none" font-family="Arial" font-size="24px" font-style="normal" font-weight="normal" text-decoration="none" x="400" y="240">UNREGISTERED</text><text fill="#eeeeee" stroke="none" font-family="Arial" font-size="24px" font-style="normal" font-weight="normal" text-decoration="none" x="400" y="270">UNREGISTERED</text><text fill="#eeeeee" stroke="none" font-family="Arial" font-size="24px" font-style="normal" font-weight="normal" text-decoration="none" x="400" y="300">UNREGISTERED</text><text fill="#eeeeee" stroke="none" font-family="Arial" font-size="24px" font-style="normal" font-weight="normal" text-decoration="none" x="400" y="330">UNREGISTERED</text><text fill="#eeeeee" stroke="none" font-family="Arial" font-size="24px" font-style="normal" font-weight="normal" text-decoration="none" x="400" y="360">UNREGISTERED</text><text fill="#eeeeee" stroke="none" font-family="Arial" font-size="24px" font-style="normal" font-weight="normal" text-decoration="none" x="400" y="390">UNREGISTERED</text><text fill="#eeeeee" stroke="none" font-family="Arial" font-size="24px" font-style="normal" font-weight="normal" text-decoration="none" x="400" y="420">UNREGISTERED</text><text fill="#eeeeee" stroke="none" font-family="Arial" font-size="24px" font-style="normal" font-weight="normal" text-decoration="none" x="400" y="450">UNREGISTERED</text><text fill="#eeeeee" stroke="none" font-family="Arial" font-size="24px" font-style="normal" font-weight="normal" text-decoration="none" x="400" y="480">UNREGISTERED</text><text fill="#eeeeee" stroke="none" font-family="Arial" font-size="24px" font-style="normal" font-weight="normal" text-decoration="none" x="400" y="510">UNREGISTERED</text><text fill="#eeeeee" stroke="none" font-family="Arial" font-size="24px" font-style="normal" font-weight="normal" text-decoration="none" x="400" y="540">UNREGISTERED</text><text fill="#eeeeee" stroke="none" font-family="Arial" font-size="24px" font-style="normal" font-weight="normal" text-decoration="none" x="400" y="570">UNREGISTERED</text><text fill="#eeeeee" stroke="none" font-family="Arial" font-size="24px" font-style="normal" font-weight="normal" text-decoration="none" x="400" y="600">UNREGISTERED</text><text fill="#eeeeee" stroke="none" font-family="Arial" font-size="24px" font-style="normal" font-weight="normal" text-decoration="none" x="400" y="630">UNREGISTERED</text><text fill="#eeeeee" stroke="none" font-family="Arial" font-size="24px" font-style="normal" font-weight="normal" text-decoration="none" x="600" y="0">UNREGISTERED</text><text fill="#eeeeee" stroke="none" font-family="Arial" font-size="24px" font-style="normal" font-weight="normal" text-decoration="none" x="600" y="30">UNREGISTERED</text><text fill="#eeeeee" stroke="none" font-family="Arial" font-size="24px" font-style="normal" font-weight="normal" text-decoration="none" x="600" y="60">UNREGISTERED</text><text fill="#eeeeee" stroke="none" font-family="Arial" font-size="24px" font-style="normal" font-weight="normal" text-decoration="none" x="600" y="90">UNREGISTERED</text><text fill="#eeeeee" stroke="none" font-family="Arial" font-size="24px" font-style="normal" font-weight="normal" text-decoration="none" x="600" y="120">UNREGISTERED</text><text fill="#eeeeee" stroke="none" font-family="Arial" font-size="24px" font-style="normal" font-weight="normal" text-decoration="none" x="600" y="150">UNREGISTERED</text><text fill="#eeeeee" stroke="none" font-family="Arial" font-size="24px" font-style="normal" font-weight="normal" text-decoration="none" x="600" y="180">UNREGISTERED</text><text fill="#eeeeee" stroke="none" font-family="Arial" font-size="24px" font-style="normal" font-weight="normal" text-decoration="none" x="600" y="210">UNREGISTERED</text><text fill="#eeeeee" stroke="none" font-family="Arial" font-size="24px" font-style="normal" font-weight="normal" text-decoration="none" x="600" y="240">UNREGISTERED</text><text fill="#eeeeee" stroke="none" font-family="Arial" font-size="24px" font-style="normal" font-weight="normal" text-decoration="none" x="600" y="270">UNREGISTERED</text><text fill="#eeeeee" stroke="none" font-family="Arial" font-size="24px" font-style="normal" font-weight="normal" text-decoration="none" x="600" y="300">UNREGISTERED</text><text fill="#eeeeee" stroke="none" font-family="Arial" font-size="24px" font-style="normal" font-weight="normal" text-decoration="none" x="600" y="330">UNREGISTERED</text><text fill="#eeeeee" stroke="none" font-family="Arial" font-size="24px" font-style="normal" font-weight="normal" text-decoration="none" x="600" y="360">UNREGISTERED</text><text fill="#eeeeee" stroke="none" font-family="Arial" font-size="24px" font-style="normal" font-weight="normal" text-decoration="none" x="600" y="390">UNREGISTERED</text><text fill="#eeeeee" stroke="none" font-family="Arial" font-size="24px" font-style="normal" font-weight="normal" text-decoration="none" x="600" y="420">UNREGISTERED</text><text fill="#eeeeee" stroke="none" font-family="Arial" font-size="24px" font-style="normal" font-weight="normal" text-decoration="none" x="600" y="450">UNREGISTERED</text><text fill="#eeeeee" stroke="none" font-family="Arial" font-size="24px" font-style="normal" font-weight="normal" text-decoration="none" x="600" y="480">UNREGISTERED</text><text fill="#eeeeee" stroke="none" font-family="Arial" font-size="24px" font-style="normal" font-weight="normal" text-decoration="none" x="600" y="510">UNREGISTERED</text><text fill="#eeeeee" stroke="none" font-family="Arial" font-size="24px" font-style="normal" font-weight="normal" text-decoration="none" x="600" y="540">UNREGISTERED</text><text fill="#eeeeee" stroke="none" font-family="Arial" font-size="24px" font-style="normal" font-weight="normal" text-decoration="none" x="600" y="570">UNREGISTERED</text><text fill="#eeeeee" stroke="none" font-family="Arial" font-size="24px" font-style="normal" font-weight="normal" text-decoration="none" x="600" y="600">UNREGISTERED</text><text fill="#eeeeee" stroke="none" font-family="Arial" font-size="24px" font-style="normal" font-weight="normal" text-decoration="none" x="600" y="630">UNREGISTERED</text><text fill="#eeeeee" stroke="none" font-family="Arial" font-size="24px" font-style="normal" font-weight="normal" text-decoration="none" x="800" y="0">UNREGISTERED</text><text fill="#eeeeee" stroke="none" font-family="Arial" font-size="24px" font-style="normal" font-weight="normal" text-decoration="none" x="800" y="30">UNREGISTERED</text><text fill="#eeeeee" stroke="none" font-family="Arial" font-size="24px" font-style="normal" font-weight="normal" text-decoration="none" x="800" y="60">UNREGISTERED</text><text fill="#eeeeee" stroke="none" font-family="Arial" font-size="24px" font-style="normal" font-weight="normal" text-decoration="none" x="800" y="90">UNREGISTERED</text><text fill="#eeeeee" stroke="none" font-family="Arial" font-size="24px" font-style="normal" font-weight="normal" text-decoration="none" x="800" y="120">UNREGISTERED</text><text fill="#eeeeee" stroke="none" font-family="Arial" font-size="24px" font-style="normal" font-weight="normal" text-decoration="none" x="800" y="150">UNREGISTERED</text><text fill="#eeeeee" stroke="none" font-family="Arial" font-size="24px" font-style="normal" font-weight="normal" text-decoration="none" x="800" y="180">UNREGISTERED</text><text fill="#eeeeee" stroke="none" font-family="Arial" font-size="24px" font-style="normal" font-weight="normal" text-decoration="none" x="800" y="210">UNREGISTERED</text><text fill="#eeeeee" stroke="none" font-family="Arial" font-size="24px" font-style="normal" font-weight="normal" text-decoration="none" x="800" y="240">UNREGISTERED</text><text fill="#eeeeee" stroke="none" font-family="Arial" font-size="24px" font-style="normal" font-weight="normal" text-decoration="none" x="800" y="270">UNREGISTERED</text><text fill="#eeeeee" stroke="none" font-family="Arial" font-size="24px" font-style="normal" font-weight="normal" text-decoration="none" x="800" y="300">UNREGISTERED</text><text fill="#eeeeee" stroke="none" font-family="Arial" font-size="24px" font-style="normal" font-weight="normal" text-decoration="none" x="800" y="330">UNREGISTERED</text><text fill="#eeeeee" stroke="none" font-family="Arial" font-size="24px" font-style="normal" font-weight="normal" text-decoration="none" x="800" y="360">UNREGISTERED</text><text fill="#eeeeee" stroke="none" font-family="Arial" font-size="24px" font-style="normal" font-weight="normal" text-decoration="none" x="800" y="390">UNREGISTERED</text><text fill="#eeeeee" stroke="none" font-family="Arial" font-size="24px" font-style="normal" font-weight="normal" text-decoration="none" x="800" y="420">UNREGISTERED</text><text fill="#eeeeee" stroke="none" font-family="Arial" font-size="24px" font-style="normal" font-weight="normal" text-decoration="none" x="800" y="450">UNREGISTERED</text><text fill="#eeeeee" stroke="none" font-family="Arial" font-size="24px" font-style="normal" font-weight="normal" text-decoration="none" x="800" y="480">UNREGISTERED</text><text fill="#eeeeee" stroke="none" font-family="Arial" font-size="24px" font-style="normal" font-weight="normal" text-decoration="none" x="800" y="510">UNREGISTERED</text><text fill="#eeeeee" stroke="none" font-family="Arial" font-size="24px" font-style="normal" font-weight="normal" text-decoration="none" x="800" y="540">UNREGISTERED</text><text fill="#eeeeee" stroke="none" font-family="Arial" font-size="24px" font-style="normal" font-weight="normal" text-decoration="none" x="800" y="570">UNREGISTERED</text><text fill="#eeeeee" stroke="none" font-family="Arial" font-size="24px" font-style="normal" font-weight="normal" text-decoration="none" x="800" y="600">UNREGISTERED</text><text fill="#eeeeee" stroke="none" font-family="Arial" font-size="24px" font-style="normal" font-weight="normal" text-decoration="none" x="800" y="630">UNREGISTERED</text><text fill="#eeeeee" stroke="none" font-family="Arial" font-size="24px" font-style="normal" font-weight="normal" text-decoration="none" x="1000" y="0">UNREGISTERED</text><text fill="#eeeeee" stroke="none" font-family="Arial" font-size="24px" font-style="normal" font-weight="normal" text-decoration="none" x="1000" y="30">UNREGISTERED</text><text fill="#eeeeee" stroke="none" font-family="Arial" font-size="24px" font-style="normal" font-weight="normal" text-decoration="none" x="1000" y="60">UNREGISTERED</text><text fill="#eeeeee" stroke="none" font-family="Arial" font-size="24px" font-style="normal" font-weight="normal" text-decoration="none" x="1000" y="90">UNREGISTERED</text><text fill="#eeeeee" stroke="none" font-family="Arial" font-size="24px" font-style="normal" font-weight="normal" text-decoration="none" x="1000" y="120">UNREGISTERED</text><text fill="#eeeeee" stroke="none" font-family="Arial" font-size="24px" font-style="normal" font-weight="normal" text-decoration="none" x="1000" y="150">UNREGISTERED</text><text fill="#eeeeee" stroke="none" font-family="Arial" font-size="24px" font-style="normal" font-weight="normal" text-decoration="none" x="1000" y="180">UNREGISTERED</text><text fill="#eeeeee" stroke="none" font-family="Arial" font-size="24px" font-style="normal" font-weight="normal" text-decoration="none" x="1000" y="210">UNREGISTERED</text><text fill="#eeeeee" stroke="none" font-family="Arial" font-size="24px" font-style="normal" font-weight="normal" text-decoration="none" x="1000" y="240">UNREGISTERED</text><text fill="#eeeeee" stroke="none" font-family="Arial" font-size="24px" font-style="normal" font-weight="normal" text-decoration="none" x="1000" y="270">UNREGISTERED</text><text fill="#eeeeee" stroke="none" font-family="Arial" font-size="24px" font-style="normal" font-weight="normal" text-decoration="none" x="1000" y="300">UNREGISTERED</text><text fill="#eeeeee" stroke="none" font-family="Arial" font-size="24px" font-style="normal" font-weight="normal" text-decoration="none" x="1000" y="330">UNREGISTERED</text><text fill="#eeeeee" stroke="none" font-family="Arial" font-size="24px" font-style="normal" font-weight="normal" text-decoration="none" x="1000" y="360">UNREGISTERED</text><text fill="#eeeeee" stroke="none" font-family="Arial" font-size="24px" font-style="normal" font-weight="normal" text-decoration="none" x="1000" y="390">UNREGISTERED</text><text fill="#eeeeee" stroke="none" font-family="Arial" font-size="24px" font-style="normal" font-weight="normal" text-decoration="none" x="1000" y="420">UNREGISTERED</text><text fill="#eeeeee" stroke="none" font-family="Arial" font-size="24px" font-style="normal" font-weight="normal" text-decoration="none" x="1000" y="450">UNREGISTERED</text><text fill="#eeeeee" stroke="none" font-family="Arial" font-size="24px" font-style="normal" font-weight="normal" text-decoration="none" x="1000" y="480">UNREGISTERED</text><text fill="#eeeeee" stroke="none" font-family="Arial" font-size="24px" font-style="normal" font-weight="normal" text-decoration="none" x="1000" y="510">UNREGISTERED</text><text fill="#eeeeee" stroke="none" font-family="Arial" font-size="24px" font-style="normal" font-weight="normal" text-decoration="none" x="1000" y="540">UNREGISTERED</text><text fill="#eeeeee" stroke="none" font-family="Arial" font-size="24px" font-style="normal" font-weight="normal" text-decoration="none" x="1000" y="570">UNREGISTERED</text><text fill="#eeeeee" stroke="none" font-family="Arial" font-size="24px" font-style="normal" font-weight="normal" text-decoration="none" x="1000" y="600">UNREGISTERED</text><text fill="#eeeeee" stroke="none" font-family="Arial" font-size="24px" font-style="normal" font-weight="normal" text-decoration="none" x="1000" y="630">UNREGISTERED</text><g transform="translate(-22,-54) scale(1,1)"><path fill="#C0C0C0" stroke="none" d="M 59.5 442 C 59.5 427.0883104 71.5883104 415 86.5 415 C 101.4116896 415 113.5 427.0883104 113.5 442 C 113.5 456.9116896 101.4116896 469 86.5 469 C 71.5883104 469 59.5 456.9116896 59.5 442 Z" opacity="0.2"/></g><g transform="translate(-22,-54) scale(1,1)"><path fill="#000000" stroke="none" d="M 52.5 435 C 52.5 420.0883104 64.5883104 408 79.5 408 C 94.4116896 408 106.5 420.0883104 106.5 435 C 106.5 449.9116896 94.4116896 462 79.5 462 C 64.5883104 462 52.5 449.9116896 52.5 435 Z"/></g><g transform="translate(-22,-54) scale(1,1)"><path fill="none" stroke="#000000" d="M 52.5 435 C 52.5 420.0883104 64.5883104 408 79.5 408 C 94.4116896 408 106.5 420.0883104 106.5 435 C 106.5 449.9116896 94.4116896 462 79.5 462 C 64.5883104 462 52.5 449.9116896 52.5 435 Z" stroke-miterlimit="10"/></g><g transform="translate(-22,-54) scale(1,1)"><g><path fill="none" stroke="none"/><text fill="#000000" stroke="none" font-family="Arial" font-size="13px" font-style="normal" font-weight="bold" text-decoration="none" x="62.5263671875" y="480">Início</text></g></g><g transform="translate(-22,-54) scale(1,1)"><rect fill="#C0C0C0" stroke="none" x="247" y="71" width="159" height="79" opacity="0.2"/></g><g transform="translate(-22,-54) scale(1,1)"><rect fill="#ffffff" stroke="none" x="240" y="64" width="159" height="79"/></g><g transform="translate(-22,-54) scale(1,1)"><path fill="none" stroke="#000000" d="M 240 64 L 399 64 L 399 143 L 240 143 L 240 64 Z Z" stroke-miterlimit="10"/></g><g transform="translate(-22,-54) scale(1,1)"><path fill="none" stroke="#000000" d="M 240 89 L 399 89" stroke-miterlimit="10"/></g><g transform="translate(-22,-54) scale(1,1)"><path fill="none" stroke="#000000" d="M 240 99 L 399 99" stroke-miterlimit="10"/></g><g transform="translate(-22,-54) scale(1,1)"><g><path fill="none" stroke="none"/><text fill="#000000" stroke="none" font-family="Arial" font-size="13px" font-style="normal" font-weight="bold" text-decoration="none" x="267.85546875" y="82">Consulta Oficina</text></g></g><g transform="translate(-22,-54) scale(1,1)"><g><path fill="none" stroke="none"/><text fill="#000000" stroke="none" font-family="Arial" font-size="13px" font-style="normal" font-weight="normal" text-decoration="none" x="245" y="115">+do RealizaLogin()</text></g></g><g transform="translate(-22,-54) scale(1,1)"><path fill="none" stroke="#000000" d="M 107 407 L 290 144" stroke-miterlimit="10"/></g><g transform="translate(-22,-54) scale(1,1)"><path fill="none" stroke="#000000" d="M 287.6508752064885 154.74623714164682 L 290 144 L 280.74018077355737 149.93765508375176" stroke-miterlimit="10"/></g><g transform="translate(-22,-54) scale(1,1)"><g><path fill="none" stroke="none"/><text fill="#000000" stroke="none" font-family="Arial" font-size="13px" font-style="normal" font-weight="normal" text-decoration="none" x="127.5" y="271">+[Consultar Oficina]</text></g></g><g transform="translate(-22,-54) scale(1,1)"><path fill="#C0C0C0" stroke="none" d="M 566.7099609375 98.5 C 566.7099609375 92.1487248 571.8586857375 87 578.2099609375 87 C 584.5612361375 87 589.7099609375 92.1487248 589.7099609375 98.5 C 589.7099609375 104.8512752 584.5612361375 110 578.2099609375 110 C 571.8586857375 110 566.7099609375 104.8512752 566.7099609375 98.5 Z" opacity="0.2"/></g><g transform="translate(-22,-54) scale(1,1)"><path fill="#ffffff" stroke="none" d="M 559.7099609375 91.5 C 559.7099609375 85.1487248 564.8586857375 80 571.2099609375 80 C 577.5612361375 80 582.7099609375 85.1487248 582.7099609375 91.5 C 582.7099609375 97.8512752 577.5612361375 103 571.2099609375 103 C 564.8586857375 103 559.7099609375 97.8512752 559.7099609375 91.5 Z"/></g><g transform="translate(-22,-54) scale(1,1)"><path fill="none" stroke="#000000" d="M 559.7099609375 91.5 C 559.7099609375 85.1487248 564.8586857375 80 571.2099609375 80 C 577.5612361375 80 582.7099609375 85.1487248 582.7099609375 91.5 C 582.7099609375 97.8512752 577.5612361375 103 571.2099609375 103 C 564.8586857375 103 559.7099609375 97.8512752 559.7099609375 91.5 Z" stroke-miterlimit="10"/></g><g transform="translate(-22,-54) scale(1,1)"><g><path fill="none" stroke="none"/><text fill="#000000" stroke="none" font-family="Arial" font-size="13px" font-style="normal" font-weight="bold" text-decoration="none" x="571.2099609375" y="116"></text></g></g><g transform="translate(-22,-54) scale(1,1)"><path fill="none" stroke="#000000" d="M 400 103 L 535 104" stroke-miterlimit="10"/></g><g transform="translate(-22,-54) scale(1,1)"><path fill="none" stroke="#000000" d="M 524.8064231847042 108.13412526547783 L 535 104 L 524.8687846998642 99.71532071885231" stroke-miterlimit="10"/></g><g transform="translate(-22,-54) scale(1,1)"><g><path fill="none" stroke="none"/><text fill="#000000" stroke="none" font-family="Arial" font-size="13px" font-style="normal" font-weight="normal" text-decoration="none" x="412.5" y="93">+[RealizaConsulta]</text></g></g><g transform="translate(-22,-54) scale(1,1)"><rect fill="#C0C0C0" stroke="none" x="775" y="71" width="159" height="79" opacity="0.2"/></g><g transform="translate(-22,-54) scale(1,1)"><rect fill="#ffffff" stroke="none" x="768" y="64" width="159" height="79"/></g><g transform="translate(-22,-54) scale(1,1)"><path fill="none" stroke="#000000" d="M 768 64 L 927 64 L 927 143 L 768 143 L 768 64 Z Z" stroke-miterlimit="10"/></g><g transform="translate(-22,-54) scale(1,1)"><path fill="none" stroke="#000000" d="M 768 89 L 927 89" stroke-miterlimit="10"/></g><g transform="translate(-22,-54) scale(1,1)"><path fill="none" stroke="#000000" d="M 768 99 L 927 99" stroke-miterlimit="10"/></g><g transform="translate(-22,-54) scale(1,1)"><g><path fill="none" stroke="none"/><text fill="#000000" stroke="none" font-family="Arial" font-size="13px" font-style="normal" font-weight="bold" text-decoration="none" x="800.549560546875" y="82">Oficina Logada</text></g></g><g transform="translate(-22,-54) scale(1,1)"><rect fill="#C0C0C0" stroke="none" x="775" y="231" width="159" height="79" opacity="0.2"/></g><g transform="translate(-22,-54) scale(1,1)"><rect fill="#ffffff" stroke="none" x="768" y="224" width="159" height="79"/></g><g transform="translate(-22,-54) scale(1,1)"><path fill="none" stroke="#000000" d="M 768 224 L 927 224 L 927 303 L 768 303 L 768 224 Z Z" stroke-miterlimit="10"/></g><g transform="translate(-22,-54) scale(1,1)"><path fill="none" stroke="#000000" d="M 768 249 L 927 249" stroke-miterlimit="10"/></g><g transform="translate(-22,-54) scale(1,1)"><path fill="none" stroke="#000000" d="M 768 259 L 927 259" stroke-miterlimit="10"/></g><g transform="translate(-22,-54) scale(1,1)"><g><path fill="none" stroke="none"/><text fill="#000000" stroke="none" font-family="Arial" font-size="13px" font-style="normal" font-weight="bold" text-decoration="none" x="775.263671875" y="242">Oficina não encontrada</text></g></g><g transform="translate(-22,-54) scale(1,1)"><g><path fill="none" stroke="none"/><text fill="#000000" stroke="none" font-family="Arial" font-size="13px" font-style="normal" font-weight="normal" text-decoration="none" x="773" y="275">+do RealizaCadastro()</text></g></g><g transform="translate(-22,-54) scale(1,1)"><path fill="none" stroke="#000000" d="M 607 104 L 767 103" stroke-miterlimit="10"/></g><g transform="translate(-22,-54) scale(1,1)"><path fill="none" stroke="#000000" d="M 756.8638325984372 107.27295101861654 L 767 103 L 756.8112146541712 98.85407993605466" stroke-miterlimit="10"/></g><g transform="translate(-22,-54) scale(1,1)"><path fill="none" stroke="#000000" d="M 607 125 L 778 223" stroke-miterlimit="10"/></g><g transform="translate(-22,-54) scale(1,1)"><path fill="none" stroke="#000000" d="M 767.0895762420845 221.59905266954362 L 778 223 L 771.2757847326101 214.29454601770823" stroke-miterlimit="10"/></g><g transform="translate(-22,-54) scale(1,1)"><path fill="none" stroke="#000000" d="M 767 239 L 400 128" stroke-miterlimit="10"/></g><g transform="translate(-22,-54) scale(1,1)"><path fill="none" stroke="#000000" d="M 410.9461450608096 126.91284393589802 L 400 128 L 408.50882882548467 134.9713579752155" stroke-miterlimit="10"/></g><g transform="translate(-22,-54) scale(1,1)"><g><path fill="none" stroke="none"/><text fill="#000000" stroke="none" font-family="Arial" font-size="13px" font-style="normal" font-weight="normal" text-decoration="none" x="520.5" y="202">+[Consultar Oficina]</text></g></g><g transform="translate(-22,-54) scale(1,1)"><rect fill="#C0C0C0" stroke="none" x="311" y="415" width="197.525390625" height="79" opacity="0.2"/></g><g transform="translate(-22,-54) scale(1,1)"><rect fill="#ffffff" stroke="none" x="304" y="408" width="197.525390625" height="79"/></g><g transform="translate(-22,-54) scale(1,1)"><path fill="none" stroke="#000000" d="M 304 408 L 501.525390625 408 L 501.525390625 487 L 304 487 L 304 408 Z Z" stroke-miterlimit="10"/></g><g transform="translate(-22,-54) scale(1,1)"><path fill="none" stroke="#000000" d="M 304 433 L 501.525390625 433" stroke-miterlimit="10"/></g><g transform="translate(-22,-54) scale(1,1)"><path fill="none" stroke="#000000" d="M 304 443 L 501.525390625 443" stroke-miterlimit="10"/></g><g transform="translate(-22,-54) scale(1,1)"><g><path fill="none" stroke="none"/><text fill="#000000" stroke="none" font-family="Arial" font-size="13px" font-style="normal" font-weight="bold" text-decoration="none" x="308.5" y="426">Confirmação de Agendamento</text></g></g><g transform="translate(-22,-54) scale(1,1)"><g><path fill="none" stroke="none"/><text fill="#000000" stroke="none" font-family="Arial" font-size="13px" font-style="normal" font-weight="normal" text-decoration="none" x="309" y="459">+do RealizaAgendamento()</text></g></g><g transform="translate(-22,-54) scale(1,1)"><path fill="none" stroke="#000000" d="M 128 447 L 303 447" stroke-miterlimit="10"/></g><g transform="translate(-22,-54) scale(1,1)"><path fill="none" stroke="#000000" d="M 292.83732514237585 451.209517756016 L 303 447 L 292.83732514237585 442.790482243984" stroke-miterlimit="10"/></g><g transform="translate(-22,-54) scale(1,1)"><g><path fill="none" stroke="none"/><text fill="#000000" stroke="none" font-family="Arial" font-size="13px" font-style="normal" font-weight="normal" text-decoration="none" x="140.5" y="437">+Confirmar Agendamento</text></g></g><g transform="translate(-22,-54) scale(1,1)"><rect fill="#C0C0C0" stroke="none" x="775" y="415" width="159.96630859375" height="79" opacity="0.2"/></g><g transform="translate(-22,-54) scale(1,1)"><rect fill="#ffffff" stroke="none" x="768" y="408" width="159.96630859375" height="79"/></g><g transform="translate(-22,-54) scale(1,1)"><path fill="none" stroke="#000000" d="M 768 408 L 927.96630859375 408 L 927.96630859375 487 L 768 487 L 768 408 Z Z" stroke-miterlimit="10"/></g><g transform="translate(-22,-54) scale(1,1)"><path fill="none" stroke="#000000" d="M 768 433 L 927.96630859375 433" stroke-miterlimit="10"/></g><g transform="translate(-22,-54) scale(1,1)"><path fill="none" stroke="#000000" d="M 768 443 L 927.96630859375 443" stroke-miterlimit="10"/></g><g transform="translate(-22,-54) scale(1,1)"><g><path fill="none" stroke="none"/><text fill="#000000" stroke="none" font-family="Arial" font-size="13px" font-style="normal" font-weight="bold" text-decoration="none" x="772.5" y="426">Agendamento Realizado</text></g></g><g transform="translate(-22,-54) scale(1,1)"><path fill="none" stroke="#000000" d="M 503 447 L 767 447" stroke-miterlimit="10"/></g><g transform="translate(-22,-54) scale(1,1)"><path fill="none" stroke="#000000" d="M 756.8373251423759 451.209517756016 L 767 447 L 756.8373251423758 442.790482243984" stroke-miterlimit="10"/></g><g transform="translate(-22,-54) scale(1,1)"><g><path fill="none" stroke="none"/><text fill="#000000" stroke="none" font-family="Arial" font-size="13px" font-style="normal" font-weight="normal" text-decoration="none" x="557.5" y="437">+[Confirma data do cliente]</text></g></g><g transform="translate(-22,-54) scale(1,1)"><rect fill="#C0C0C0" stroke="none" x="247" y="631" width="159" height="79" opacity="0.2"/></g><g transform="translate(-22,-54) scale(1,1)"><rect fill="#ffffff" stroke="none" x="240" y="624" width="159" height="79"/></g><g transform="translate(-22,-54) scale(1,1)"><path fill="none" stroke="#000000" d="M 240 624 L 399 624 L 399 703 L 240 703 L 240 624 Z Z" stroke-miterlimit="10"/></g><g transform="translate(-22,-54) scale(1,1)"><path fill="none" stroke="#000000" d="M 240 649 L 399 649" stroke-miterlimit="10"/></g><g transform="translate(-22,-54) scale(1,1)"><path fill="none" stroke="#000000" d="M 240 659 L 399 659" stroke-miterlimit="10"/></g><g transform="translate(-22,-54) scale(1,1)"><g><path fill="none" stroke="none"/><text fill="#000000" stroke="none" font-family="Arial" font-size="13px" font-style="normal" font-weight="bold" text-decoration="none" x="259.88916015625" y="642">Escolha de Serviço</text></g></g><g transform="translate(-22,-54) scale(1,1)"><g><path fill="none" stroke="none"/><text fill="#000000" stroke="none" font-family="Arial" font-size="13px" font-style="normal" font-weight="normal" text-decoration="none" x="245" y="675">+do EscolhaServico()</text></g></g><g transform="translate(-22,-54) scale(1,1)"><path fill="none" stroke="#000000" d="M 125 488 L 275 623" stroke-miterlimit="10"/></g><g transform="translate(-22,-54) scale(1,1)"><path fill="none" stroke="#000000" d="M 264.63012435220156 619.3304388478734 L 275 623 L 270.2621621840279 613.0726190347331" stroke-miterlimit="10"/></g><g transform="translate(-22,-54) scale(1,1)"><g><path fill="none" stroke="none"/><text fill="#000000" stroke="none" font-family="Arial" font-size="13px" font-style="normal" font-weight="normal" text-decoration="none" x="126.5" y="548">+[Escolha de tipo de serviço]</text></g></g><g transform="translate(-22,-54) scale(1,1)"><rect fill="#C0C0C0" stroke="none" x="775" y="631" width="159" height="79" opacity="0.2"/></g><g transform="translate(-22,-54) scale(1,1)"><rect fill="#ffffff" stroke="none" x="768" y="624" width="159" height="79"/></g><g transform="translate(-22,-54) scale(1,1)"><path fill="none" stroke="#000000" d="M 768 624 L 927 624 L 927 703 L 768 703 L 768 624 Z Z" stroke-miterlimit="10"/></g><g transform="translate(-22,-54) scale(1,1)"><path fill="none" stroke="#000000" d="M 768 649 L 927 649" stroke-miterlimit="10"/></g><g transform="translate(-22,-54) scale(1,1)"><path fill="none" stroke="#000000" d="M 768 659 L 927 659" stroke-miterlimit="10"/></g><g transform="translate(-22,-54) scale(1,1)"><g><path fill="none" stroke="none"/><text fill="#000000" stroke="none" font-family="Arial" font-size="13px" font-style="normal" font-weight="bold" text-decoration="none" x="791.865966796875" y="642">Serviço Realizado</text></g></g><g transform="translate(-22,-54) scale(1,1)"><g><path fill="none" stroke="none"/><text fill="#000000" stroke="none" font-family="Arial" font-size="13px" font-style="normal" font-weight="normal" text-decoration="none" x="773" y="675">+do RecebePagamento()</text></g></g><g transform="translate(-22,-54) scale(1,1)"><path fill="none" stroke="#000000" d="M 400 663 L 767 663" stroke-miterlimit="10"/></g><g transform="translate(-22,-54) scale(1,1)"><path fill="none" stroke="#000000" d="M 756.8373251423759 667.209517756016 L 767 663 L 756.8373251423758 658.790482243984" stroke-miterlimit="10"/></g><g transform="translate(-22,-54) scale(1,1)"><g><path fill="none" stroke="none"/><text fill="#000000" stroke="none" font-family="Arial" font-size="13px" font-style="normal" font-weight="normal" text-decoration="none" x="526.5" y="653">+[Realiza o serviço]</text></g></g><g transform="translate(-22,-54) scale(1,1)"><path fill="#C0C0C0" stroke="none" d="M 1087.5 442 C 1087.5 427.0883104 1099.5883104 415 1114.5 415 C 1129.4116896 415 1141.5 427.0883104 1141.5 442 C 1141.5 456.9116896 1129.4116896 469 1114.5 469 C 1099.5883104 469 1087.5 456.9116896 1087.5 442 Z" opacity="0.2"/></g><g transform="translate(-22,-54) scale(1,1)"><path fill="#ffffff" stroke="none" d="M 1080.5 435 C 1080.5 420.0883104 1092.5883104 408 1107.5 408 C 1122.4116896 408 1134.5 420.0883104 1134.5 435 C 1134.5 449.9116896 1122.4116896 462 1107.5 462 C 1092.5883104 462 1080.5 449.9116896 1080.5 435 Z"/></g><g transform="translate(-22,-54) scale(1,1)"><path fill="none" stroke="#000000" d="M 1080.5 435 C 1080.5 420.0883104 1092.5883104 408 1107.5 408 C 1122.4116896 408 1134.5 420.0883104 1134.5 435 C 1134.5 449.9116896 1122.4116896 462 1107.5 462 C 1092.5883104 462 1080.5 449.9116896 1080.5 435 Z" stroke-miterlimit="10"/></g><g transform="translate(-22,-54) scale(1,1)"><g><path fill="none" stroke="none"/><text fill="#000000" stroke="none" font-family="Arial" font-size="13px" font-style="normal" font-weight="bold" text-decoration="none" x="1095.944091796875" y="480">Fim</text></g></g><g transform="translate(-22,-54) scale(1,1)"><path fill="#C0C0C0" stroke="none" d="M 1095.5 442 C 1095.5 431.5065888 1104.0065888 423 1114.5 423 C 1124.9934112 423 1133.5 431.5065888 1133.5 442 C 1133.5 452.4934112 1124.9934112 461 1114.5 461 C 1104.0065888 461 1095.5 452.4934112 1095.5 442 Z" opacity="0.2"/></g><g transform="translate(-22,-54) scale(1,1)"><path fill="#000000" stroke="none" d="M 1088.5 435 C 1088.5 424.5065888 1097.0065888 416 1107.5 416 C 1117.9934112 416 1126.5 424.5065888 1126.5 435 C 1126.5 445.4934112 1117.9934112 454 1107.5 454 C 1097.0065888 454 1088.5 445.4934112 1088.5 435 Z"/></g><g transform="translate(-22,-54) scale(1,1)"><path fill="none" stroke="#000000" d="M 1088.5 435 C 1088.5 424.5065888 1097.0065888 416 1107.5 416 C 1117.9934112 416 1126.5 424.5065888 1126.5 435 C 1126.5 445.4934112 1117.9934112 454 1107.5 454 C 1097.0065888 454 1088.5 445.4934112 1088.5 435 Z" stroke-miterlimit="10"/></g><g transform="translate(-22,-54) scale(1,1)"><g><path fill="none" stroke="none"/><text fill="#000000" stroke="none" font-family="Arial" font-size="13px" font-style="normal" font-weight="bold" text-decoration="none" x="1107.5" y="467"></text></g></g><g transform="translate(-22,-54) scale(1,1)"><path fill="none" stroke="#000000" d="M 895 623 L 1058 488" stroke-miterlimit="10"/></g><g transform="translate(-22,-54) scale(1,1)"><path fill="none" stroke="#000000" d="M 1052.8582469745054 497.72431878461504 L 1058 488 L 1047.4880998134654 491.2403633235074" stroke-miterlimit="10"/></g><g transform="translate(-22,-54) scale(1,1)"><path fill="none" stroke="#000000" d="M 929 447 L 1047 447" stroke-miterlimit="10"/></g><g transform="translate(-22,-54) scale(1,1)"><path fill="none" stroke="#000000" d="M 1036.837325142376 451.209517756016 L 1047 447 L 1036.837325142376 442.790482243984" stroke-miterlimit="10"/></g><g transform="translate(-22,-54) scale(1,1)"><path fill="none" stroke="#000000" d="M 878 144 L 1077 407" stroke-miterlimit="10"/></g><g transform="translate(-22,-54) scale(1,1)"><path fill="none" stroke="#000000" d="M 1067.5110755903345 401.4358007271797 L 1077 407 L 1074.2248002414435 396.3558341660745" stroke-miterlimit="10"/></g></g></svg>