<svg version="1.1" xmlns="http://www.w3.org/2000/svg" xmlns:xlink="http://www.w3.org/1999/xlink" width="737.0654296875" height="747"><defs/><g><text fill="#eeeeee" stroke="none" font-family="Arial" font-size="24px" font-style="normal" font-weight="normal" text-decoration="none" x="0" y="0">UNREGISTERED</text><text fill="#eeeeee" stroke="none" font-family="Arial" font-size="24px" font-style="normal" font-weight="normal" text-decoration="none" x="0" y="30">UNREGISTERED</text><text fill="#eeeeee" stroke="none" font-family="Arial" font-size="24px" font-style="normal" font-weight="normal" text-decoration="none" x="0" y="60">UNREGISTERED</text><text fill="#eeeeee" stroke="none" font-family="Arial" font-size="24px" font-style="normal" font-weight="normal" text-decoration="none" x="0" y="90">UNREGISTERED</text><text fill="#eeeeee" stroke="none" font-family="Arial" font-size="24px" font-style="normal" font-weight="normal" text-decoration="none" x="0" y="120">UNREGISTERED</text><text fill="#eeeeee" stroke="none" font-family="Arial" font-size="24px" font-style="normal" font-weight="normal" text-decoration="none" x="0" y="150">UNREGISTERED</text><text fill="#eeeeee" stroke="none" font-family="Arial" font-size="24px" font-style="normal" font-weight="normal" text-decoration="none" x="0" y="180">UNREGISTERED</text><text fill="#eeeeee" stroke="none" font-family="Arial" font-size="24px" font-style="normal" font-weight="normal" text-decoration="none" x="0" y="210">UNREGISTERED</text><text fill="#eeeeee" stroke="none" font-family="Arial" font-size="24px" font-style="normal" font-weight="normal" text-decoration="none" x="0" y="240">UNREGISTERED</text><text fill="#eeeeee" stroke="none" font-family="Arial" font-size="24px" font-style="normal" font-weight="normal" text-decoration="none" x="0" y="270">UNREGISTERED</text><text fill="#eeeeee" stroke="none" font-family="Arial" font-size="24px" font-style="normal" font-weight="normal" text-decoration="none" x="0" y="300">UNREGISTERED</text><text fill="#eeeeee" stroke="none" font-family="Arial" font-size="24px" font-style="normal" font-weight="normal" text-decoration="none" x="0" y="330">UNREGISTERED</text><text fill="#eeeeee" stroke="none" font-family="Arial" font-size="24px" font-style="normal" font-weight="normal" text-decoration="none" x="0" y="360">UNREGISTERED</text><text fill="#eeeeee" stroke="none" font-family="Arial" font-size="24px" font-style="normal" font-weight="normal" text-decoration="none" x="0" y="390">UNREGISTERED</text><text fill="#eeeeee" stroke="none" font-family="Arial" font-size="24px" font-style="normal" font-weight="normal" text-decoration="none" x="0" y="420">UNREGISTERED</text><text fill="#eeeeee" stroke="none" font-family="Arial" font-size="24px" font-style="normal" font-weight="normal" text-decoration="none" x="0" y="450">UNREGISTERED</text><text fill="#eeeeee" stroke="none" font-family="Arial" font-size="24px" font-style="normal" font-weight="normal" text-decoration="none" x="0" y="480">UNREGISTERED</text><text fill="#eeeeee" stroke="none" font-family="Arial" font-size="24px" font-style="normal" font-weight="normal" text-decoration="none" x="0" y="510">UNREGISTERED</text><text fill="#eeeeee" stroke="none" font-family="Arial" font-size="24px" font-style="normal" font-weight="normal" text-decoration="none" x="0" y="540">UNREGISTERED</text><text fill="#eeeeee" stroke="none" font-family="Arial" font-size="24px" font-style="normal" font-weight="normal" text-decoration="none" x="0" y="570">UNREGISTERED</text><text fill="#eeeeee" stroke="none" font-family="Arial" font-size="24px" font-style="normal" font-weight="normal" text-decoration="none" x="0" y="600">UNREGISTERED</text><text fill="#eeeeee" stroke="none" font-family="Arial" font-size="24px" font-style="normal" font-weight="normal" text-decoration="none" x="0" y="630">UNREGISTERED</text><text fill="#eeeeee" stroke="none" font-family="Arial" font-size="24px" font-style="normal" font-weight="normal" text-decoration="none" x="0" y="660">UNREGISTERED</text><text fill="#eeeeee" stroke="none" font-family="Arial" font-size="24px" font-style="normal" font-weight="normal" text-decoration="none" x="0" y="690">UNREGISTERED</text><text fill="#eeeeee" stroke="none" font-family="Arial" font-size="24px" font-style="normal" font-weight="normal" text-decoration="none" x="0" y="720">UNREGISTERED</text><text fill="#eeeeee" stroke="none" font-family="Arial" font-size="24px" font-style="normal" font-weight="normal" text-decoration="none" x="200" y="0">UNREGISTERED</text><text fill="#eeeeee" stroke="none" font-family="Arial" font-size="24px" font-style="normal" font-weight="normal" text-decoration="none" x="200" y="30">UNREGISTERED</text><text fill="#eeeeee" stroke="none" font-family="Arial" font-size="24px" font-style="normal" font-weight="normal" text-decoration="none" x="200" y="60">UNREGISTERED</text><text fill="#eeeeee" stroke="none" font-family="Arial" font-size="24px" font-style="normal" font-weight="normal" text-decoration="none" x="200" y="90">UNREGISTERED</text><text fill="#eeeeee" stroke="none" font-family="Arial" font-size="24px" font-style="normal" font-weight="normal" text-decoration="none" x="200" y="120">UNREGISTERED</text><text fill="#eeeeee" stroke="none" font-family="Arial" font-size="24px" font-style="normal" font-weight="normal" text-decoration="none" x="200" y="150">UNREGISTERED</text><text fill="#eeeeee" stroke="none" font-family="Arial" font-size="24px" font-style="normal" font-weight="normal" text-decoration="none" x="200" y="180">UNREGISTERED</text><text fill="#eeeeee" stroke="none" font-family="Arial" font-size="24px" font-style="normal" font-weight="normal" text-decoration="none" x="200" y="210">UNREGISTERED</text><text fill="#eeeeee" stroke="none" font-family="Arial" font-size="24px" font-style="normal" font-weight="normal" text-decoration="none" x="200" y="240">UNREGISTERED</text><text fill="#eeeeee" stroke="none" font-family="Arial" font-size="24px" font-style="normal" font-weight="normal" text-decoration="none" x="200" y="270">UNREGISTERED</text><text fill="#eeeeee" stroke="none" font-family="Arial" font-size="24px" font-style="normal" font-weight="normal" text-decoration="none" x="200" y="300">UNREGISTERED</text><text fill="#eeeeee" stroke="none" font-family="Arial" font-size="24px" font-style="normal" font-weight="normal" text-decoration="none" x="200" y="330">UNREGISTERED</text><text fill="#eeeeee" stroke="none" font-family="Arial" font-size="24px" font-style="normal" font-weight="normal" text-decoration="none" x="200" y="360">UNREGISTERED</text><text fill="#eeeeee" stroke="none" font-family="Arial" font-size="24px" font-style="normal" font-weight="normal" text-decoration="none" x="200" y="390">UNREGISTERED</text><text fill="#eeeeee" stroke="none" font-family="Arial" font-size="24px" font-style="normal" font-weight="normal" text-decoration="none" x="200" y="420">UNREGISTERED</text><text fill="#eeeeee" stroke="none" font-family="Arial" font-size="24px" font-style="normal" font-weight="normal" text-decoration="none" x="200" y="450">UNREGISTERED</text><text fill="#eeeeee" stroke="none" font-family="Arial" font-size="24px" font-style="normal" font-weight="normal" text-decoration="none" x="200" y="480">UNREGISTERED</text><text fill="#eeeeee" stroke="none" font-family="Arial" font-size="24px" font-style="normal" font-weight="normal" text-decoration="none" x="200" y="510">UNREGISTERED</text><text fill="#eeeeee" stroke="none" font-family="Arial" font-size="24px" font-style="normal" font-weight="normal" text-decoration="none" x="200" y="540">UNREGISTERED</text><text fill="#eeeeee" stroke="none" font-family="Arial" font-size="24px" font-style="normal" font-weight="normal" text-decoration="none" x="200" y="570">UNREGISTERED</text><text fill="#eeeeee" stroke="none" font-family="Arial" font-size="24px" font-style="normal" font-weight="normal" text-decoration="none" x="200" y="600">UNREGISTERED</text><text fill="#eeeeee" stroke="none" font-family="Arial" font-size="24px" font-style="normal" font-weight="normal" text-decoration="none" x="200" y="630">UNREGISTERED</text><text fill="#eeeeee" stroke="none" font-family="Arial" font-size="24px" font-style="normal" font-weight="normal" text-decoration="none" x="200" y="660">UNREGISTERED</text><text fill="#eeeeee" stroke="none" font-family="Arial" font-size="24px" font-style="normal" font-weight="normal" text-decoration="none" x="200" y="690">UNREGISTERED</text><text fill="#eeeeee" stroke="none" font-family="Arial" font-size="24px" font-style="normal" font-weight="normal" text-decoration="none" x="200" y="720">UNREGISTERED</text><text fill="#eeeeee" stroke="none" font-family="Arial" font-size="24px" font-style="normal" font-weight="normal" text-decoration="none" x="400" y="0">UNREGISTERED</text><text fill="#eeeeee" stroke="none" font-family="Arial" font-size="24px" font-style="normal" font-weight="normal" text-decoration="none" x="400" y="30">UNREGISTERED</text><text fill="#eeeeee" stroke="none" font-family="Arial" font-size="24px" font-style="normal" font-weight="normal" text-decoration="none" x="400" y="60">UNREGISTERED</text><text fill="#eeeeee" stroke="none" font-family="Arial" font-size="24px" font-style="normal" font-weight="normal" text-decoration="none" x="400" y="90">UNREGISTERED</text><text fill="#eeeeee" stroke="none" font-family="Arial" font-size="24px" font-style="normal" font-weight="normal" text-decoration="none" x="400" y="120">UNREGISTERED</text><text fill="#eeeeee" stroke="none" font-family="Arial" font-size="24px" font-style="normal" font-weight="normal" text-decoration="none" x="400" y="150">UNREGISTERED</text><text fill="#eeeeee" stroke="none" font-family="Arial" font-size="24px" font-style="normal" font-weight="normal" text-decoration="none" x="400" y="180">UNREGISTERED</text><text fill="#eeeeee" stroke="none" font-family="Arial" font-size="24px" font-style="normal" font-weight="normal" text-decoration="none" x="400" y="210">UNREGISTERED</text><text fill="#eeeeee" stroke="none" font-family="Arial" font-size="24px" font-style="normal" font-weight="normal" text-decoration="none" x="400" y="240">UNREGISTERED</text><text fill="#eeeeee" stroke="none" font-family="Arial" font-size="24px" font-style="normal" font-weight="normal" text-decoration="none" x="400" y="270">UNREGISTERED</text><text fill="#eeeeee" stroke="none" font-family="Arial" font-size="24px" font-style="normal" font-weight="normal" text-decoration="none" x="400" y="300">UNREGISTERED</text><text fill="#eeeeee" stroke="none" font-family="Arial" font-size="24px" font-style="normal" font-weight="normal" text-decoration="none" x="400" y="330">UNREGISTERED</text><text fill="#eeeeee" stroke="none" font-family="Arial" font-size="24px" font-style="normal" font-weight="normal" text-decoration="none" x="400" y="360">UNREGISTERED</text><text fill="#eeeeee" stroke="none" font-family="Arial" font-size="24px" font-style="normal" font-weight="normal" text-decoration="none" x="400" y="390">UNREGISTERED</text><text fill="#eeeeee" stroke="none" font-family="Arial" font-size="24px" font-style="normal" font-weight="normal" text-decoration="none" x="400" y="420">UNREGISTERED</text><text fill="#eeeeee" stroke="none" font-family="Arial" font-size="24px" font-style="normal" font-weight="normal" text-decoration="none" x="400" y="450">UNREGISTERED</text><text fill="#eeeeee" stroke="none" font-family="Arial" font-size="24px" font-style="normal" font-weight="normal" text-decoration="none" x="400" y="480">UNREGISTERED</text><text fill="#eeeeee" stroke="none" font-family="Arial" font-size="24px" font-style="normal" font-weight="normal" text-decoration="none" x="400" y="510">UNREGISTERED</text><text fill="#eeeeee" stroke="none" font-family="Arial" font-size="24px" font-style="normal" font-weight="normal" text-decoration="none" x="400" y="540">UNREGISTERED</text><text fill="#eeeeee" stroke="none" font-family="Arial" font-size="24px" font-style="normal" font-weight="normal" text-decoration="none" x="400" y="570">UNREGISTERED</text><text fill="#eeeeee" stroke="none" font-family="Arial" font-size="24px" font-style="normal" font-weight="normal" text-decoration="none" x="400" y="600">UNREGISTERED</text><text fill="#eeeeee" stroke="none" font-family="Arial" font-size="24px" font-style="normal" font-weight="normal" text-decoration="none" x="400" y="630">UNREGISTERED</text><text fill="#eeeeee" stroke="none" font-family="Arial" font-size="24px" font-style="normal" font-weight="normal" text-decoration="none" x="400" y="660">UNREGISTERED</text><text fill="#eeeeee" stroke="none" font-family="Arial" font-size="24px" font-style="normal" font-weight="normal" text-decoration="none" x="400" y="690">UNREGISTERED</text><text fill="#eeeeee" stroke="none" font-family="Arial" font-size="24px" font-style="normal" font-weight="normal" text-decoration="none" x="400" y="720">UNREGISTERED</text><text fill="#eeeeee" stroke="none" font-family="Arial" font-size="24px" font-style="normal" font-weight="normal" text-decoration="none" x="600" y="0">UNREGISTERED</text><text fill="#eeeeee" stroke="none" font-family="Arial" font-size="24px" font-style="normal" font-weight="normal" text-decoration="none" x="600" y="30">UNREGISTERED</text><text fill="#eeeeee" stroke="none" font-family="Arial" font-size="24px" font-style="normal" font-weight="normal" text-decoration="none" x="600" y="60">UNREGISTERED</text><text fill="#eeeeee" stroke="none" font-family="Arial" font-size="24px" font-style="normal" font-weight="normal" text-decoration="none" x="600" y="90">UNREGISTERED</text><text fill="#eeeeee" stroke="none" font-family="Arial" font-size="24px" font-style="normal" font-weight="normal" text-decoration="none" x="600" y="120">UNREGISTERED</text><text fill="#eeeeee" stroke="none" font-family="Arial" font-size="24px" font-style="normal" font-weight="normal" text-decoration="none" x="600" y="150">UNREGISTERED</text><text fill="#eeeeee" stroke="none" font-family="Arial" font-size="24px" font-style="normal" font-weight="normal" text-decoration="none" x="600" y="180">UNREGISTERED</text><text fill="#eeeeee" stroke="none" font-family="Arial" font-size="24px" font-style="normal" font-weight="normal" text-decoration="none" x="600" y="210">UNREGISTERED</text><text fill="#eeeeee" stroke="none" font-family="Arial" font-size="24px" font-style="normal" font-weight="normal" text-decoration="none" x="600" y="240">UNREGISTERED</text><text fill="#eeeeee" stroke="none" font-family="Arial" font-size="24px" font-style="normal" font-weight="normal" text-decoration="none" x="600" y="270">UNREGISTERED</text><text fill="#eeeeee" stroke="none" font-family="Arial" font-size="24px" font-style="normal" font-weight="normal" text-decoration="none" x="600" y="300">UNREGISTERED</text><text fill="#eeeeee" stroke="none" font-family="Arial" font-size="24px" font-style="normal" font-weight="normal" text-decoration="none" x="600" y="330">UNREGISTERED</text><text fill="#eeeeee" stroke="none" font-family="Arial" font-size="24px" font-style="normal" font-weight="normal" text-decoration="none" x="600" y="360">UNREGISTERED</text><text fill="#eeeeee" stroke="none" font-family="Arial" font-size="24px" font-style="normal" font-weight="normal" text-decoration="none" x="600" y="390">UNREGISTERED</text><text fill="#eeeeee" stroke="none" font-family="Arial" font-size="24px" font-style="normal" font-weight="normal" text-decoration="none" x="600" y="420">UNREGISTERED</text><text fill="#eeeeee" stroke="none" font-family="Arial" font-size="24px" font-style="normal" font-weight="normal" text-decoration="none" x="600" y="450">UNREGISTERED</text><text fill="#eeeeee" stroke="none" font-family="Arial" font-size="24px" font-style="normal" font-weight="normal" text-decoration="none" x="600" y="480">UNREGISTERED</text><text fill="#eeeeee" stroke="none" font-family="Arial" font-size="24px" font-style="normal" font-weight="normal" text-decoration="none" x="600" y="510">UNREGISTERED</text><text fill="#eeeeee" stroke="none" font-family="Arial" font-size="24px" font-style="normal" font-weight="normal" text-decoration="none" x="600" y="540">UNREGISTERED</text><text fill="#eeeeee" stroke="none" font-family="Arial" font-size="24px" font-style="normal" font-weight="normal" text-decoration="none" x="600" y="570">UNREGISTERED</text><text fill="#eeeeee" stroke="none" font-family="Arial" font-size="24px" font-style="normal" font-weight="normal" text-decoration="none" x="600" y="600">UNREGISTERED</text><text fill="#eeeeee" stroke="none" font-family="Arial" font-size="24px" font-style="normal" font-weight="normal" text-decoration="none" x="600" y="630">UNREGISTERED</text><text fill="#eeeeee" stroke="none" font-family="Arial" font-size="24px" font-style="normal" font-weight="normal" text-decoration="none" x="600" y="660">UNREGISTERED</text><text fill="#eeeeee" stroke="none" font-family="Arial" font-size="24px" font-style="normal" font-weight="normal" text-decoration="none" x="600" y="690">UNREGISTERED</text><text fill="#eeeeee" stroke="none" font-family="Arial" font-size="24px" font-style="normal" font-weight="normal" text-decoration="none" x="600" y="720">UNREGISTERED</text><g transform="translate(-182,-70) scale(1,1)"><rect fill="#C0C0C0" stroke="none" x="431" y="87" width="288" height="727" opacity="0.2"/></g><g transform="translate(-182,-70) scale(1,1)"><rect fill="#ffffff" stroke="none" x="424" y="80" width="288" height="727"/></g><g transform="translate(-182,-70) scale(1,1)"><path fill="none" stroke="#000000" d="M 424 80 L 712 80 L 712 807 L 424 807 L 424 80 Z Z" stroke-miterlimit="10"/></g><g transform="translate(-182,-70) scale(1,1)"><g><path fill="none" stroke="none"/><text fill="#000000" stroke="none" font-family="Arial" font-size="13px" font-style="normal" font-weight="bold" text-decoration="none" x="539.108642578125" y="98">SISTEMA</text></g></g><g transform="translate(-182,-70) scale(1,1)"><path fill="none" stroke="#000000" d="M 264 376 L 464 264" stroke-miterlimit="10"/></g><g transform="translate(-182,-70) scale(1,1)"><path fill="none" stroke="#000000" d="M 264 400 L 456 400" stroke-miterlimit="10"/></g><g transform="translate(-182,-70) scale(1,1)"><path fill="none" stroke="#000000" d="M 264 424 L 456 554" stroke-miterlimit="10"/></g><g transform="translate(-182,-70) scale(1,1)"><path fill="none" stroke="#000000" d="M 256 456 L 460 687" stroke-miterlimit="10"/></g><g transform="translate(-182,-70) scale(1,1)"><path fill="none" stroke="#000000" d="M 672 552 L 848 552" stroke-miterlimit="10"/></g><g transform="translate(-182,-70) scale(1,1)"><path fill="none" stroke="#000000" d="M 248 360 L 464 152" stroke-miterlimit="10"/></g><g transform="translate(-182,-70) scale(1,1)"><path fill="none" stroke="#000000" d="M 672 400 L 846 400" stroke-miterlimit="10"/></g><g transform="translate(-182,-70) scale(1,1)"><path fill="none" stroke="#000000" d="M 848 560 L 676 690" stroke-miterlimit="10"/></g><g transform="translate(-182,-70) scale(1,1)"><path fill="#ffffff" stroke="none" d="M 213.87418181818182 371.21000000000004 C 213.87418181818182 365.571172192 218.40766453061818 361 224 361 C 229.59233546938182 361 234.12581818181818 365.571172192 234.12581818181818 371.21000000000004 C 234.12581818181818 376.84882780800007 229.59233546938182 381.42 224 381.42 C 218.40766453061818 381.42 213.87418181818182 376.84882780800007 213.87418181818182 371.21000000000004 Z"/></g><g transform="translate(-182,-70) scale(1,1)"><path fill="none" stroke="#000000" d="M 213.87418181818182 371.21000000000004 C 213.87418181818182 365.571172192 218.40766453061818 361 224 361 C 229.59233546938182 361 234.12581818181818 365.571172192 234.12581818181818 371.21000000000004 C 234.12581818181818 376.84882780800007 229.59233546938182 381.42 224 381.42 C 218.40766453061818 381.42 213.87418181818182 376.84882780800007 213.87418181818182 371.21000000000004 Z" stroke-miterlimit="10"/></g><g transform="translate(-182,-70) scale(1,1)"><path fill="none" stroke="#000000" d="M 224 381.42 L 224 401.58" stroke-miterlimit="10"/></g><g transform="translate(-182,-70) scale(1,1)"><path fill="none" stroke="#000000" d="M 213.27854545454545 388.98 L 234.72145454545455 388.98" stroke-miterlimit="10"/></g><g transform="translate(-182,-70) scale(1,1)"><path fill="none" stroke="#000000" d="M 224 401.58 L 209.10909090909092 422" stroke-miterlimit="10"/></g><g transform="translate(-182,-70) scale(1,1)"><path fill="none" stroke="#000000" d="M 224 401.58 L 238.89090909090908 422" stroke-miterlimit="10"/></g><g transform="translate(-182,-70) scale(1,1)"><g><path fill="none" stroke="none"/><text fill="#000000" stroke="none" font-family="Arial" font-size="13px" font-style="normal" font-weight="bold" text-decoration="none" x="202.3291015625" y="441">Cliente</text></g></g><g transform="translate(-182,-70) scale(1,1)"><path fill="#ffffff" stroke="none" d="M 864.4093503196023 361.68 C 864.4093503196023 356.886167936 868.2951926445477 353 873.088623046875 353 C 877.8820534492023 353 881.7678957741477 356.886167936 881.7678957741477 361.68 C 881.7678957741477 366.473832064 877.8820534492023 370.36 873.088623046875 370.36 C 868.2951926445477 370.36 864.4093503196023 366.473832064 864.4093503196023 361.68 Z"/></g><g transform="translate(-182,-70) scale(1,1)"><path fill="none" stroke="#000000" d="M 864.4093503196023 361.68 C 864.4093503196023 356.886167936 868.2951926445477 353 873.088623046875 353 C 877.8820534492023 353 881.7678957741477 356.886167936 881.7678957741477 361.68 C 881.7678957741477 366.473832064 877.8820534492023 370.36 873.088623046875 370.36 C 868.2951926445477 370.36 864.4093503196023 366.473832064 864.4093503196023 361.68 Z" stroke-miterlimit="10"/></g><g transform="translate(-182,-70) scale(1,1)"><path fill="none" stroke="#000000" d="M 873.088623046875 370.36 L 873.088623046875 387.64" stroke-miterlimit="10"/></g><g transform="translate(-182,-70) scale(1,1)"><path fill="none" stroke="#000000" d="M 863.8988048650568 376.84 L 882.2784412286932 376.84" stroke-miterlimit="10"/></g><g transform="translate(-182,-70) scale(1,1)"><path fill="none" stroke="#000000" d="M 873.088623046875 387.64 L 860.3249866832386 405" stroke-miterlimit="10"/></g><g transform="translate(-182,-70) scale(1,1)"><path fill="none" stroke="#000000" d="M 873.088623046875 387.64 L 885.8522594105114 405" stroke-miterlimit="10"/></g><g transform="translate(-182,-70) scale(1,1)"><g><path fill="none" stroke="none"/><text fill="#000000" stroke="none" font-family="Arial" font-size="13px" font-style="normal" font-weight="bold" text-decoration="none" x="853.2236328125" y="424">Banco</text></g></g><g transform="translate(-182,-70) scale(1,1)"><path fill="#ffffff" stroke="none" d="M 873.8534421164773 521.6800000000001 C 873.8534421164773 516.8861679360001 877.7392844414227 513 882.53271484375 513 C 887.3261452460773 513 891.2119875710227 516.8861679360001 891.2119875710227 521.6800000000001 C 891.2119875710227 526.473832064 887.3261452460773 530.36 882.53271484375 530.36 C 877.7392844414227 530.36 873.8534421164773 526.473832064 873.8534421164773 521.6800000000001 Z"/></g><g transform="translate(-182,-70) scale(1,1)"><path fill="none" stroke="#000000" d="M 873.8534421164773 521.6800000000001 C 873.8534421164773 516.8861679360001 877.7392844414227 513 882.53271484375 513 C 887.3261452460773 513 891.2119875710227 516.8861679360001 891.2119875710227 521.6800000000001 C 891.2119875710227 526.473832064 887.3261452460773 530.36 882.53271484375 530.36 C 877.7392844414227 530.36 873.8534421164773 526.473832064 873.8534421164773 521.6800000000001 Z" stroke-miterlimit="10"/></g><g transform="translate(-182,-70) scale(1,1)"><path fill="none" stroke="#000000" d="M 882.53271484375 530.36 L 882.53271484375 547.64" stroke-miterlimit="10"/></g><g transform="translate(-182,-70) scale(1,1)"><path fill="none" stroke="#000000" d="M 873.3428966619318 536.84 L 891.7225330255682 536.84" stroke-miterlimit="10"/></g><g transform="translate(-182,-70) scale(1,1)"><path fill="none" stroke="#000000" d="M 882.53271484375 547.64 L 869.7690784801136 565" stroke-miterlimit="10"/></g><g transform="translate(-182,-70) scale(1,1)"><path fill="none" stroke="#000000" d="M 882.53271484375 547.64 L 895.2963512073864 565" stroke-miterlimit="10"/></g><g transform="translate(-182,-70) scale(1,1)"><g><path fill="none" stroke="none"/><text fill="#000000" stroke="none" font-family="Arial" font-size="13px" font-style="normal" font-weight="bold" text-decoration="none" x="860.5" y="584">Oficina</text></g></g><g transform="translate(-182,-70) scale(1,1)"><path fill="#C0C0C0" stroke="none" d="M 487 154.5 C 487 134.8938896 524.3842192 119 570.5 119 C 616.6157808 119 654 134.8938896 654 154.5 C 654 174.1061104 616.6157808 190 570.5 190 C 524.3842192 190 487 174.1061104 487 154.5 Z" opacity="0.2"/></g><g transform="translate(-182,-70) scale(1,1)"><path fill="#ffffff" stroke="none" d="M 480 147.5 C 480 127.8938896 517.3842192 112 563.5 112 C 609.6157808 112 647 127.8938896 647 147.5 C 647 167.1061104 609.6157808 183 563.5 183 C 517.3842192 183 480 167.1061104 480 147.5 Z"/></g><g transform="translate(-182,-70) scale(1,1)"><path fill="none" stroke="#000000" d="M 480 147.5 C 480 127.8938896 517.3842192 112 563.5 112 C 609.6157808 112 647 127.8938896 647 147.5 C 647 167.1061104 609.6157808 183 563.5 183 C 517.3842192 183 480 167.1061104 480 147.5 Z" stroke-miterlimit="10"/></g><g transform="translate(-182,-70) scale(1,1)"><g><path fill="none" stroke="none"/><text fill="#000000" stroke="none" font-family="Arial" font-size="13px" font-style="normal" font-weight="bold" text-decoration="none" x="542.917724609375" y="153">LOGIN</text></g></g><g transform="translate(-182,-70) scale(1,1)"><path fill="#C0C0C0" stroke="none" d="M 487 262.5 C 487 240.68475039999998 524.3842192 223 570.5 223 C 616.6157808 223 654 240.68475039999998 654 262.5 C 654 284.3152496 616.6157808 302 570.5 302 C 524.3842192 302 487 284.3152496 487 262.5 Z" opacity="0.2"/></g><g transform="translate(-182,-70) scale(1,1)"><path fill="#ffffff" stroke="none" d="M 480 255.5 C 480 233.68475039999998 517.3842192 216 563.5 216 C 609.6157808 216 647 233.68475039999998 647 255.5 C 647 277.3152496 609.6157808 295 563.5 295 C 517.3842192 295 480 277.3152496 480 255.5 Z"/></g><g transform="translate(-182,-70) scale(1,1)"><path fill="none" stroke="#000000" d="M 480 255.5 C 480 233.68475039999998 517.3842192 216 563.5 216 C 609.6157808 216 647 233.68475039999998 647 255.5 C 647 277.3152496 609.6157808 295 563.5 295 C 517.3842192 295 480 277.3152496 480 255.5 Z" stroke-miterlimit="10"/></g><g transform="translate(-182,-70) scale(1,1)"><g><path fill="none" stroke="none"/><text fill="#000000" stroke="none" font-family="Arial" font-size="13px" font-style="normal" font-weight="bold" text-decoration="none" x="511.979248046875" y="261">AGENDAMENTO</text></g></g><g transform="translate(-182,-70) scale(1,1)"><path fill="#C0C0C0" stroke="none" d="M 487 398.5 C 487 376.6847504 526.17508 359 574.5 359 C 622.82492 359 662 376.6847504 662 398.5 C 662 420.3152496 622.82492 438 574.5 438 C 526.17508 438 487 420.3152496 487 398.5 Z" opacity="0.2"/></g><g transform="translate(-182,-70) scale(1,1)"><path fill="#ffffff" stroke="none" d="M 480 391.5 C 480 369.6847504 519.17508 352 567.5 352 C 615.82492 352 655 369.6847504 655 391.5 C 655 413.3152496 615.82492 431 567.5 431 C 519.17508 431 480 413.3152496 480 391.5 Z"/></g><g transform="translate(-182,-70) scale(1,1)"><path fill="none" stroke="#000000" d="M 480 391.5 C 480 369.6847504 519.17508 352 567.5 352 C 615.82492 352 655 369.6847504 655 391.5 C 655 413.3152496 615.82492 431 567.5 431 C 519.17508 431 480 413.3152496 480 391.5 Z" stroke-miterlimit="10"/></g><g transform="translate(-182,-70) scale(1,1)"><g><path fill="none" stroke="none"/><text fill="#000000" stroke="none" font-family="Arial" font-size="13px" font-style="normal" font-weight="bold" text-decoration="none" x="525.849853515625" y="397">PAGAMENTO</text></g></g><g transform="translate(-182,-70) scale(1,1)"><path fill="#C0C0C0" stroke="none" d="M 463 555 C 463 530.6994688 514.487248 511 578 511 C 641.512752 511 693 530.6994688 693 555 C 693 579.3005312 641.512752 599 578 599 C 514.487248 599 463 579.3005312 463 555 Z" opacity="0.2"/></g><g transform="translate(-182,-70) scale(1,1)"><path fill="#ffffff" stroke="none" d="M 456 548 C 456 523.6994688 507.487248 504 571 504 C 634.512752 504 686 523.6994688 686 548 C 686 572.3005312 634.512752 592 571 592 C 507.487248 592 456 572.3005312 456 548 Z"/></g><g transform="translate(-182,-70) scale(1,1)"><path fill="none" stroke="#000000" d="M 456 548 C 456 523.6994688 507.487248 504 571 504 C 634.512752 504 686 523.6994688 686 548 C 686 572.3005312 634.512752 592 571 592 C 507.487248 592 456 572.3005312 456 548 Z" stroke-miterlimit="10"/></g><g transform="translate(-182,-70) scale(1,1)"><g><path fill="none" stroke="none"/><text fill="#000000" stroke="none" font-family="Arial" font-size="11px" font-style="normal" font-weight="bold" text-decoration="none" x="496.242431640625" y="552.5">CONFIRMA AGENDAMENTO</text></g></g><g transform="translate(-182,-70) scale(1,1)"><path fill="#C0C0C0" stroke="none" d="M 479 690.5 C 479 666.4756112 519.9659408 647 570.5 647 C 621.0340592 647 662 666.4756112 662 690.5 C 662 714.5243888 621.0340592 734 570.5 734 C 519.9659408 734 479 714.5243888 479 690.5 Z" opacity="0.2"/></g><g transform="translate(-182,-70) scale(1,1)"><path fill="#ffffff" stroke="none" d="M 472 683.5 C 472 659.4756112 512.9659408 640 563.5 640 C 614.0340592 640 655 659.4756112 655 683.5 C 655 707.5243888 614.0340592 727 563.5 727 C 512.9659408 727 472 707.5243888 472 683.5 Z"/></g><g transform="translate(-182,-70) scale(1,1)"><path fill="none" stroke="#000000" d="M 472 683.5 C 472 659.4756112 512.9659408 640 563.5 640 C 614.0340592 640 655 659.4756112 655 683.5 C 655 707.5243888 614.0340592 727 563.5 727 C 512.9659408 727 472 707.5243888 472 683.5 Z" stroke-miterlimit="10"/></g><g transform="translate(-182,-70) scale(1,1)"><g><path fill="none" stroke="none"/><text fill="#000000" stroke="none" font-family="Arial" font-size="13px" font-style="normal" font-weight="bold" text-decoration="none" x="529.197265625" y="689">GARANTIA</text></g></g></g></svg>