<svg version="1.1" xmlns="http://www.w3.org/2000/svg" xmlns:xlink="http://www.w3.org/1999/xlink" width="1175.99169921875" height="240"><defs/><g><text fill="#eeeeee" stroke="none" font-family="Arial" font-size="24px" font-style="normal" font-weight="normal" text-decoration="none" x="0" y="0">UNREGISTERED</text><text fill="#eeeeee" stroke="none" font-family="Arial" font-size="24px" font-style="normal" font-weight="normal" text-decoration="none" x="0" y="30">UNREGISTERED</text><text fill="#eeeeee" stroke="none" font-family="Arial" font-size="24px" font-style="normal" font-weight="normal" text-decoration="none" x="0" y="60">UNREGISTERED</text><text fill="#eeeeee" stroke="none" font-family="Arial" font-size="24px" font-style="normal" font-weight="normal" text-decoration="none" x="0" y="90">UNREGISTERED</text><text fill="#eeeeee" stroke="none" font-family="Arial" font-size="24px" font-style="normal" font-weight="normal" text-decoration="none" x="0" y="120">UNREGISTERED</text><text fill="#eeeeee" stroke="none" font-family="Arial" font-size="24px" font-style="normal" font-weight="normal" text-decoration="none" x="0" y="150">UNREGISTERED</text><text fill="#eeeeee" stroke="none" font-family="Arial" font-size="24px" font-style="normal" font-weight="normal" text-decoration="none" x="0" y="180">UNREGISTERED</text><text fill="#eeeeee" stroke="none" font-family="Arial" font-size="24px" font-style="normal" font-weight="normal" text-decoration="none" x="0" y="210">UNREGISTERED</text><text fill="#eeeeee" stroke="none" font-family="Arial" font-size="24px" font-style="normal" font-weight="normal" text-decoration="none" x="200" y="0">UNREGISTERED</text><text fill="#eeeeee" stroke="none" font-family="Arial" font-size="24px" font-style="normal" font-weight="normal" text-decoration="none" x="200" y="30">UNREGISTERED</text><text fill="#eeeeee" stroke="none" font-family="Arial" font-size="24px" font-style="normal" font-weight="normal" text-decoration="none" x="200" y="60">UNREGISTERED</text><text fill="#eeeeee" stroke="none" font-family="Arial" font-size="24px" font-style="normal" font-weight="normal" text-decoration="none" x="200" y="90">UNREGISTERED</text><text fill="#eeeeee" stroke="none" font-family="Arial" font-size="24px" font-style="normal" font-weight="normal" text-decoration="none" x="200" y="120">UNREGISTERED</text><text fill="#eeeeee" stroke="none" font-family="Arial" font-size="24px" font-style="normal" font-weight="normal" text-decoration="none" x="200" y="150">UNREGISTERED</text><text fill="#eeeeee" stroke="none" font-family="Arial" font-size="24px" font-style="normal" font-weight="normal" text-decoration="none" x="200" y="180">UNREGISTERED</text><text fill="#eeeeee" stroke="none" font-family="Arial" font-size="24px" font-style="normal" font-weight="normal" text-decoration="none" x="200" y="210">UNREGISTERED</text><text fill="#eeeeee" stroke="none" font-family="Arial" font-size="24px" font-style="normal" font-weight="normal" text-decoration="none" x="400" y="0">UNREGISTERED</text><text fill="#eeeeee" stroke="none" font-family="Arial" font-size="24px" font-style="normal" font-weight="normal" text-decoration="none" x="400" y="30">UNREGISTERED</text><text fill="#eeeeee" stroke="none" font-family="Arial" font-size="24px" font-style="normal" font-weight="normal" text-decoration="none" x="400" y="60">UNREGISTERED</text><text fill="#eeeeee" stroke="none" font-family="Arial" font-size="24px" font-style="normal" font-weight="normal" text-decoration="none" x="400" y="90">UNREGISTERED</text><text fill="#eeeeee" stroke="none" font-family="Arial" font-size="24px" font-style="normal" font-weight="normal" text-decoration="none" x="400" y="120">UNREGISTERED</text><text fill="#eeeeee" stroke="none" font-family="Arial" font-size="24px" font-style="normal" font-weight="normal" text-decoration="none" x="400" y="150">UNREGISTERED</text><text fill="#eeeeee" stroke="none" font-family="Arial" font-size="24px" font-style="normal" font-weight="normal" text-decoration="none" x="400" y="180">UNREGISTERED</text><text fill="#eeeeee" stroke="none" font-family="Arial" font-size="24px" font-style="normal" font-weight="normal" text-decoration="none" x="400" y="210">UNREGISTERED</text><text fill="#eeeeee" stroke="none" font-family="Arial" font-size="24px" font-style="normal" font-weight="normal" text-decoration="none" x="600" y="0">UNREGISTERED</text><text fill="#eeeeee" stroke="none" font-family="Arial" font-size="24px" font-style="normal" font-weight="normal" text-decoration="none" x="600" y="30">UNREGISTERED</text><text fill="#eeeeee" stroke="none" font-family="Arial" font-size="24px" font-style="normal" font-weight="normal" text-decoration="none" x="600" y="60">UNREGISTERED</text><text fill="#eeeeee" stroke="none" font-family="Arial" font-size="24px" font-style="normal" font-weight="normal" text-decoration="none" x="600" y="90">UNREGISTERED</text><text fill="#eeeeee" stroke="none" font-family="Arial" font-size="24px" font-style="normal" font-weight="normal" text-decoration="none" x="600" y="120">UNREGISTERED</text><text fill="#eeeeee" stroke="none" font-family="Arial" font-size="24px" font-style="normal" font-weight="normal" text-decoration="none" x="600" y="150">UNREGISTERED</text><text fill="#eeeeee" stroke="none" font-family="Arial" font-size="24px" font-style="normal" font-weight="normal" text-decoration="none" x="600" y="180">UNREGISTERED</text><text fill="#eeeeee" stroke="none" font-family="Arial" font-size="24px" font-style="normal" font-weight="normal" text-decoration="none" x="600" y="210">UNREGISTERED</text><text fill="#eeeeee" stroke="none" font-family="Arial" font-size="24px" font-style="normal" font-weight="normal" text-decoration="none" x="800" y="0">UNREGISTERED</text><text fill="#eeeeee" stroke="none" font-family="Arial" font-size="24px" font-style="normal" font-weight="normal" text-decoration="none" x="800" y="30">UNREGISTERED</text><text fill="#eeeeee" stroke="none" font-family="Arial" font-size="24px" font-style="normal" font-weight="normal" text-decoration="none" x="800" y="60">UNREGISTERED</text><text fill="#eeeeee" stroke="none" font-family="Arial" font-size="24px" font-style="normal" font-weight="normal" text-decoration="none" x="800" y="90">UNREGISTERED</text><text fill="#eeeeee" stroke="none" font-family="Arial" font-size="24px" font-style="normal" font-weight="normal" text-decoration="none" x="800" y="120">UNREGISTERED</text><text fill="#eeeeee" stroke="none" font-family="Arial" font-size="24px" font-style="normal" font-weight="normal" text-decoration="none" x="800" y="150">UNREGISTERED</text><text fill="#eeeeee" stroke="none" font-family="Arial" font-size="24px" font-style="normal" font-weight="normal" text-decoration="none" x="800" y="180">UNREGISTERED</text><text fill="#eeeeee" stroke="none" font-family="Arial" font-size="24px" font-style="normal" font-weight="normal" text-decoration="none" x="800" y="210">UNREGISTERED</text><text fill="#eeeeee" stroke="none" font-family="Arial" font-size="24px" font-style="normal" font-weight="normal" text-decoration="none" x="1000" y="0">UNREGISTERED</text><text fill="#eeeeee" stroke="none" font-family="Arial" font-size="24px" font-style="normal" font-weight="normal" text-decoration="none" x="1000" y="30">UNREGISTERED</text><text fill="#eeeeee" stroke="none" font-family="Arial" font-size="24px" font-style="normal" font-weight="normal" text-decoration="none" x="1000" y="60">UNREGISTERED</text><text fill="#eeeeee" stroke="none" font-family="Arial" font-size="24px" font-style="normal" font-weight="normal" text-decoration="none" x="1000" y="90">UNREGISTERED</text><text fill="#eeeeee" stroke="none" font-family="Arial" font-size="24px" font-style="normal" font-weight="normal" text-decoration="none" x="1000" y="120">UNREGISTERED</text><text fill="#eeeeee" stroke="none" font-family="Arial" font-size="24px" font-style="normal" font-weight="normal" text-decoration="none" x="1000" y="150">UNREGISTERED</text><text fill="#eeeeee" stroke="none" font-family="Arial" font-size="24px" font-style="normal" font-weight="normal" text-decoration="none" x="1000" y="180">UNREGISTERED</text><text fill="#eeeeee" stroke="none" font-family="Arial" font-size="24px" font-style="normal" font-weight="normal" text-decoration="none" x="1000" y="210">UNREGISTERED</text><g transform="translate(-86,-374) scale(1,1)"><path fill="none" stroke="#000000" d="M 232 416 L 318 416" stroke-miterlimit="10"/></g><g transform="translate(-86,-374) scale(1,1)"><path fill="none" stroke="#000000" d="M 496 416 L 574 416" stroke-miterlimit="10"/></g><g transform="translate(-86,-374) scale(1,1)"><path fill="none" stroke="#000000" d="M 720 416 L 807 416" stroke-miterlimit="10"/></g><g transform="translate(-86,-374) scale(1,1)"><path fill="none" stroke="#000000" d="M 968 416 L 1055 416" stroke-miterlimit="10"/></g><g transform="translate(-86,-374) scale(1,1)"><path fill="#C0C0C0" stroke="none" d="M 103 409 L 229.4599609375 409 L 229.4599609375 445 L 103 445" opacity="0.2"/></g><g transform="translate(-86,-374) scale(1,1)"><path fill="#C0C0C0" stroke="none" d="M 103 409 L 113 399 L 239.4599609375 399 L 229.4599609375 409" opacity="0.2"/></g><g transform="translate(-86,-374) scale(1,1)"><path fill="#C0C0C0" stroke="none" d="M 239.4599609375 399 L 229.4599609375 409 L 229.4599609375 445 L 239.4599609375 435" opacity="0.2"/></g><g transform="translate(-86,-374) scale(1,1)"><path fill="#ffffff" stroke="none" d="M 96 402 L 222.4599609375 402 L 222.4599609375 438 L 96 438"/></g><g transform="translate(-86,-374) scale(1,1)"><path fill="#ffffff" stroke="none" d="M 96 402 L 106 392 L 232.4599609375 392 L 222.4599609375 402"/></g><g transform="translate(-86,-374) scale(1,1)"><path fill="#ffffff" stroke="none" d="M 232.4599609375 392 L 222.4599609375 402 L 222.4599609375 438 L 232.4599609375 428"/></g><g transform="translate(-86,-374) scale(1,1)"><path fill="none" stroke="#000000" d="M 96 402 L 222.4599609375 402 L 222.4599609375 438 L 96 438 L 96 402" stroke-miterlimit="10"/></g><g transform="translate(-86,-374) scale(1,1)"><path fill="none" stroke="#000000" d="M 96 402 L 106 392 L 232.4599609375 392 L 222.4599609375 402 L 96 402" stroke-miterlimit="10"/></g><g transform="translate(-86,-374) scale(1,1)"><path fill="none" stroke="#000000" d="M 232.4599609375 392 L 222.4599609375 402 L 222.4599609375 438 L 232.4599609375 428 L 232.4599609375 392" stroke-miterlimit="10"/></g><g transform="translate(-86,-374) scale(1,1)"><g><path fill="none" stroke="none"/><text fill="#000000" stroke="none" font-family="Arial" font-size="13px" font-style="normal" font-weight="normal" text-decoration="none" x="133.7109375" y="418">«device»</text></g></g><g transform="translate(-86,-374) scale(1,1)"><g><path fill="none" stroke="none"/><text fill="#000000" stroke="none" font-family="Arial" font-size="13px" font-style="normal" font-weight="bold" text-decoration="none" x="100.5" y="433">Hardware Do Autor</text></g></g><g transform="translate(-86,-374) scale(1,1)"><path fill="#C0C0C0" stroke="none" d="M 319 409 L 487.3798828125 409 L 487.3798828125 445 L 319 445" opacity="0.2"/></g><g transform="translate(-86,-374) scale(1,1)"><path fill="#C0C0C0" stroke="none" d="M 319 409 L 329 399 L 497.3798828125 399 L 487.3798828125 409" opacity="0.2"/></g><g transform="translate(-86,-374) scale(1,1)"><path fill="#C0C0C0" stroke="none" d="M 497.3798828125 399 L 487.3798828125 409 L 487.3798828125 445 L 497.3798828125 435" opacity="0.2"/></g><g transform="translate(-86,-374) scale(1,1)"><path fill="#ffffff" stroke="none" d="M 312 402 L 480.3798828125 402 L 480.3798828125 438 L 312 438"/></g><g transform="translate(-86,-374) scale(1,1)"><path fill="#ffffff" stroke="none" d="M 312 402 L 322 392 L 490.3798828125 392 L 480.3798828125 402"/></g><g transform="translate(-86,-374) scale(1,1)"><path fill="#ffffff" stroke="none" d="M 490.3798828125 392 L 480.3798828125 402 L 480.3798828125 438 L 490.3798828125 428"/></g><g transform="translate(-86,-374) scale(1,1)"><path fill="none" stroke="#000000" d="M 312 402 L 480.3798828125 402 L 480.3798828125 438 L 312 438 L 312 402" stroke-miterlimit="10"/></g><g transform="translate(-86,-374) scale(1,1)"><path fill="none" stroke="#000000" d="M 312 402 L 322 392 L 490.3798828125 392 L 480.3798828125 402 L 312 402" stroke-miterlimit="10"/></g><g transform="translate(-86,-374) scale(1,1)"><path fill="none" stroke="#000000" d="M 490.3798828125 392 L 480.3798828125 402 L 480.3798828125 438 L 490.3798828125 428 L 490.3798828125 392" stroke-miterlimit="10"/></g><g transform="translate(-86,-374) scale(1,1)"><g><path fill="none" stroke="none"/><text fill="#000000" stroke="none" font-family="Arial" font-size="13px" font-style="normal" font-weight="normal" text-decoration="none" x="370.6708984375" y="418">«device»</text></g></g><g transform="translate(-86,-374) scale(1,1)"><g><path fill="none" stroke="none"/><text fill="#000000" stroke="none" font-family="Arial" font-size="13px" font-style="normal" font-weight="bold" text-decoration="none" x="316.5" y="433">Servidor de Comunicação</text></g></g><g transform="translate(-86,-374) scale(1,1)"><path fill="#C0C0C0" stroke="none" d="M 583 409 L 714.54443359375 409 L 714.54443359375 445 L 583 445" opacity="0.2"/></g><g transform="translate(-86,-374) scale(1,1)"><path fill="#C0C0C0" stroke="none" d="M 583 409 L 593 399 L 724.54443359375 399 L 714.54443359375 409" opacity="0.2"/></g><g transform="translate(-86,-374) scale(1,1)"><path fill="#C0C0C0" stroke="none" d="M 724.54443359375 399 L 714.54443359375 409 L 714.54443359375 445 L 724.54443359375 435" opacity="0.2"/></g><g transform="translate(-86,-374) scale(1,1)"><path fill="#ffffff" stroke="none" d="M 576 402 L 707.54443359375 402 L 707.54443359375 438 L 576 438"/></g><g transform="translate(-86,-374) scale(1,1)"><path fill="#ffffff" stroke="none" d="M 576 402 L 586 392 L 717.54443359375 392 L 707.54443359375 402"/></g><g transform="translate(-86,-374) scale(1,1)"><path fill="#ffffff" stroke="none" d="M 717.54443359375 392 L 707.54443359375 402 L 707.54443359375 438 L 717.54443359375 428"/></g><g transform="translate(-86,-374) scale(1,1)"><path fill="none" stroke="#000000" d="M 576 402 L 707.54443359375 402 L 707.54443359375 438 L 576 438 L 576 402" stroke-miterlimit="10"/></g><g transform="translate(-86,-374) scale(1,1)"><path fill="none" stroke="#000000" d="M 576 402 L 586 392 L 717.54443359375 392 L 707.54443359375 402 L 576 402" stroke-miterlimit="10"/></g><g transform="translate(-86,-374) scale(1,1)"><path fill="none" stroke="#000000" d="M 717.54443359375 392 L 707.54443359375 402 L 707.54443359375 438 L 717.54443359375 428 L 717.54443359375 392" stroke-miterlimit="10"/></g><g transform="translate(-86,-374) scale(1,1)"><g><path fill="none" stroke="none"/><text fill="#000000" stroke="none" font-family="Arial" font-size="13px" font-style="normal" font-weight="normal" text-decoration="none" x="616.253173828125" y="418">«device»</text></g></g><g transform="translate(-86,-374) scale(1,1)"><g><path fill="none" stroke="none"/><text fill="#000000" stroke="none" font-family="Arial" font-size="13px" font-style="normal" font-weight="bold" text-decoration="none" x="580.5" y="433">Servidor de Firewall</text></g></g><g transform="translate(-86,-374) scale(1,1)"><path fill="#C0C0C0" stroke="none" d="M 815 409 L 963.892578125 409 L 963.892578125 445 L 815 445" opacity="0.2"/></g><g transform="translate(-86,-374) scale(1,1)"><path fill="#C0C0C0" stroke="none" d="M 815 409 L 825 399 L 973.892578125 399 L 963.892578125 409" opacity="0.2"/></g><g transform="translate(-86,-374) scale(1,1)"><path fill="#C0C0C0" stroke="none" d="M 973.892578125 399 L 963.892578125 409 L 963.892578125 445 L 973.892578125 435" opacity="0.2"/></g><g transform="translate(-86,-374) scale(1,1)"><path fill="#ffffff" stroke="none" d="M 808 402 L 956.892578125 402 L 956.892578125 438 L 808 438"/></g><g transform="translate(-86,-374) scale(1,1)"><path fill="#ffffff" stroke="none" d="M 808 402 L 818 392 L 966.892578125 392 L 956.892578125 402"/></g><g transform="translate(-86,-374) scale(1,1)"><path fill="#ffffff" stroke="none" d="M 966.892578125 392 L 956.892578125 402 L 956.892578125 438 L 966.892578125 428"/></g><g transform="translate(-86,-374) scale(1,1)"><path fill="none" stroke="#000000" d="M 808 402 L 956.892578125 402 L 956.892578125 438 L 808 438 L 808 402" stroke-miterlimit="10"/></g><g transform="translate(-86,-374) scale(1,1)"><path fill="none" stroke="#000000" d="M 808 402 L 818 392 L 966.892578125 392 L 956.892578125 402 L 808 402" stroke-miterlimit="10"/></g><g transform="translate(-86,-374) scale(1,1)"><path fill="none" stroke="#000000" d="M 966.892578125 392 L 956.892578125 402 L 956.892578125 438 L 966.892578125 428 L 966.892578125 392" stroke-miterlimit="10"/></g><g transform="translate(-86,-374) scale(1,1)"><g><path fill="none" stroke="none"/><text fill="#000000" stroke="none" font-family="Arial" font-size="13px" font-style="normal" font-weight="normal" text-decoration="none" x="856.92724609375" y="418">«device»</text></g></g><g transform="translate(-86,-374) scale(1,1)"><g><path fill="none" stroke="none"/><text fill="#000000" stroke="none" font-family="Arial" font-size="13px" font-style="normal" font-weight="bold" text-decoration="none" x="812.5" y="433">dservidor de aplicação</text></g></g><g transform="translate(-86,-374) scale(1,1)"><path fill="#C0C0C0" stroke="none" d="M 1063 401 L 1247.99169921875 401 L 1247.99169921875 437 L 1063 437" opacity="0.2"/></g><g transform="translate(-86,-374) scale(1,1)"><path fill="#C0C0C0" stroke="none" d="M 1063 401 L 1073 391 L 1257.99169921875 391 L 1247.99169921875 401" opacity="0.2"/></g><g transform="translate(-86,-374) scale(1,1)"><path fill="#C0C0C0" stroke="none" d="M 1257.99169921875 391 L 1247.99169921875 401 L 1247.99169921875 437 L 1257.99169921875 427" opacity="0.2"/></g><g transform="translate(-86,-374) scale(1,1)"><path fill="#ffffff" stroke="none" d="M 1056 394 L 1240.99169921875 394 L 1240.99169921875 430 L 1056 430"/></g><g transform="translate(-86,-374) scale(1,1)"><path fill="#ffffff" stroke="none" d="M 1056 394 L 1066 384 L 1250.99169921875 384 L 1240.99169921875 394"/></g><g transform="translate(-86,-374) scale(1,1)"><path fill="#ffffff" stroke="none" d="M 1250.99169921875 384 L 1240.99169921875 394 L 1240.99169921875 430 L 1250.99169921875 420"/></g><g transform="translate(-86,-374) scale(1,1)"><path fill="none" stroke="#000000" d="M 1056 394 L 1240.99169921875 394 L 1240.99169921875 430 L 1056 430 L 1056 394" stroke-miterlimit="10"/></g><g transform="translate(-86,-374) scale(1,1)"><path fill="none" stroke="#000000" d="M 1056 394 L 1066 384 L 1250.99169921875 384 L 1240.99169921875 394 L 1056 394" stroke-miterlimit="10"/></g><g transform="translate(-86,-374) scale(1,1)"><path fill="none" stroke="#000000" d="M 1250.99169921875 384 L 1240.99169921875 394 L 1240.99169921875 430 L 1250.99169921875 420 L 1250.99169921875 384" stroke-miterlimit="10"/></g><g transform="translate(-86,-374) scale(1,1)"><g><path fill="none" stroke="none"/><text fill="#000000" stroke="none" font-family="Arial" font-size="13px" font-style="normal" font-weight="normal" text-decoration="none" x="1122.976806640625" y="410">«device»</text></g></g><g transform="translate(-86,-374) scale(1,1)"><g><path fill="none" stroke="none"/><text fill="#000000" stroke="none" font-family="Arial" font-size="13px" font-style="normal" font-weight="bold" text-decoration="none" x="1060.5" y="425">Servidor de Banco de Dados</text></g></g><g transform="translate(-86,-374) scale(1,1)"><path fill="#C0C0C0" stroke="none" d="M 336 577 L 383.72998046875 577 L 383.72998046875 610 L 336 610" opacity="0.2"/></g><g transform="translate(-86,-374) scale(1,1)"><path fill="#C0C0C0" stroke="none" d="M 336 577 L 346 567 L 393.72998046875 567 L 383.72998046875 577" opacity="0.2"/></g><g transform="translate(-86,-374) scale(1,1)"><path fill="#C0C0C0" stroke="none" d="M 393.72998046875 567 L 383.72998046875 577 L 383.72998046875 610 L 393.72998046875 600" opacity="0.2"/></g><g transform="translate(-86,-374) scale(1,1)"><path fill="#ffffff" stroke="none" d="M 329 570 L 376.72998046875 570 L 376.72998046875 603 L 329 603"/></g><g transform="translate(-86,-374) scale(1,1)"><path fill="#ffffff" stroke="none" d="M 329 570 L 339 560 L 386.72998046875 560 L 376.72998046875 570"/></g><g transform="translate(-86,-374) scale(1,1)"><path fill="#ffffff" stroke="none" d="M 386.72998046875 560 L 376.72998046875 570 L 376.72998046875 603 L 386.72998046875 593"/></g><g transform="translate(-86,-374) scale(1,1)"><path fill="none" stroke="#000000" d="M 329 570 L 376.72998046875 570 L 376.72998046875 603 L 329 603 L 329 570" stroke-miterlimit="10"/></g><g transform="translate(-86,-374) scale(1,1)"><path fill="none" stroke="#000000" d="M 329 570 L 339 560 L 386.72998046875 560 L 376.72998046875 570 L 329 570" stroke-miterlimit="10"/></g><g transform="translate(-86,-374) scale(1,1)"><path fill="none" stroke="#000000" d="M 386.72998046875 560 L 376.72998046875 570 L 376.72998046875 603 L 386.72998046875 593 L 386.72998046875 560" stroke-miterlimit="10"/></g><g transform="translate(-86,-374) scale(1,1)"><g><path fill="none" stroke="none"/><text fill="#000000" stroke="none" font-family="Arial" font-size="13px" font-style="normal" font-weight="bold" text-decoration="none" x="333.5" y="588">Node5</text></g></g></g></svg>