<svg version="1.1" xmlns="http://www.w3.org/2000/svg" xmlns:xlink="http://www.w3.org/1999/xlink" width="696.4072265625" height="781"><defs/><g><text fill="#eeeeee" stroke="none" font-family="Arial" font-size="24px" font-style="normal" font-weight="normal" text-decoration="none" x="0" y="0">UNREGISTERED</text><text fill="#eeeeee" stroke="none" font-family="Arial" font-size="24px" font-style="normal" font-weight="normal" text-decoration="none" x="0" y="30">UNREGISTERED</text><text fill="#eeeeee" stroke="none" font-family="Arial" font-size="24px" font-style="normal" font-weight="normal" text-decoration="none" x="0" y="60">UNREGISTERED</text><text fill="#eeeeee" stroke="none" font-family="Arial" font-size="24px" font-style="normal" font-weight="normal" text-decoration="none" x="0" y="90">UNREGISTERED</text><text fill="#eeeeee" stroke="none" font-family="Arial" font-size="24px" font-style="normal" font-weight="normal" text-decoration="none" x="0" y="120">UNREGISTERED</text><text fill="#eeeeee" stroke="none" font-family="Arial" font-size="24px" font-style="normal" font-weight="normal" text-decoration="none" x="0" y="150">UNREGISTERED</text><text fill="#eeeeee" stroke="none" font-family="Arial" font-size="24px" font-style="normal" font-weight="normal" text-decoration="none" x="0" y="180">UNREGISTERED</text><text fill="#eeeeee" stroke="none" font-family="Arial" font-size="24px" font-style="normal" font-weight="normal" text-decoration="none" x="0" y="210">UNREGISTERED</text><text fill="#eeeeee" stroke="none" font-family="Arial" font-size="24px" font-style="normal" font-weight="normal" text-decoration="none" x="0" y="240">UNREGISTERED</text><text fill="#eeeeee" stroke="none" font-family="Arial" font-size="24px" font-style="normal" font-weight="normal" text-decoration="none" x="0" y="270">UNREGISTERED</text><text fill="#eeeeee" stroke="none" font-family="Arial" font-size="24px" font-style="normal" font-weight="normal" text-decoration="none" x="0" y="300">UNREGISTERED</text><text fill="#eeeeee" stroke="none" font-family="Arial" font-size="24px" font-style="normal" font-weight="normal" text-decoration="none" x="0" y="330">UNREGISTERED</text><text fill="#eeeeee" stroke="none" font-family="Arial" font-size="24px" font-style="normal" font-weight="normal" text-decoration="none" x="0" y="360">UNREGISTERED</text><text fill="#eeeeee" stroke="none" font-family="Arial" font-size="24px" font-style="normal" font-weight="normal" text-decoration="none" x="0" y="390">UNREGISTERED</text><text fill="#eeeeee" stroke="none" font-family="Arial" font-size="24px" font-style="normal" font-weight="normal" text-decoration="none" x="0" y="420">UNREGISTERED</text><text fill="#eeeeee" stroke="none" font-family="Arial" font-size="24px" font-style="normal" font-weight="normal" text-decoration="none" x="0" y="450">UNREGISTERED</text><text fill="#eeeeee" stroke="none" font-family="Arial" font-size="24px" font-style="normal" font-weight="normal" text-decoration="none" x="0" y="480">UNREGISTERED</text><text fill="#eeeeee" stroke="none" font-family="Arial" font-size="24px" font-style="normal" font-weight="normal" text-decoration="none" x="0" y="510">UNREGISTERED</text><text fill="#eeeeee" stroke="none" font-family="Arial" font-size="24px" font-style="normal" font-weight="normal" text-decoration="none" x="0" y="540">UNREGISTERED</text><text fill="#eeeeee" stroke="none" font-family="Arial" font-size="24px" font-style="normal" font-weight="normal" text-decoration="none" x="0" y="570">UNREGISTERED</text><text fill="#eeeeee" stroke="none" font-family="Arial" font-size="24px" font-style="normal" font-weight="normal" text-decoration="none" x="0" y="600">UNREGISTERED</text><text fill="#eeeeee" stroke="none" font-family="Arial" font-size="24px" font-style="normal" font-weight="normal" text-decoration="none" x="0" y="630">UNREGISTERED</text><text fill="#eeeeee" stroke="none" font-family="Arial" font-size="24px" font-style="normal" font-weight="normal" text-decoration="none" x="0" y="660">UNREGISTERED</text><text fill="#eeeeee" stroke="none" font-family="Arial" font-size="24px" font-style="normal" font-weight="normal" text-decoration="none" x="0" y="690">UNREGISTERED</text><text fill="#eeeeee" stroke="none" font-family="Arial" font-size="24px" font-style="normal" font-weight="normal" text-decoration="none" x="0" y="720">UNREGISTERED</text><text fill="#eeeeee" stroke="none" font-family="Arial" font-size="24px" font-style="normal" font-weight="normal" text-decoration="none" x="0" y="750">UNREGISTERED</text><text fill="#eeeeee" stroke="none" font-family="Arial" font-size="24px" font-style="normal" font-weight="normal" text-decoration="none" x="0" y="780">UNREGISTERED</text><text fill="#eeeeee" stroke="none" font-family="Arial" font-size="24px" font-style="normal" font-weight="normal" text-decoration="none" x="200" y="0">UNREGISTERED</text><text fill="#eeeeee" stroke="none" font-family="Arial" font-size="24px" font-style="normal" font-weight="normal" text-decoration="none" x="200" y="30">UNREGISTERED</text><text fill="#eeeeee" stroke="none" font-family="Arial" font-size="24px" font-style="normal" font-weight="normal" text-decoration="none" x="200" y="60">UNREGISTERED</text><text fill="#eeeeee" stroke="none" font-family="Arial" font-size="24px" font-style="normal" font-weight="normal" text-decoration="none" x="200" y="90">UNREGISTERED</text><text fill="#eeeeee" stroke="none" font-family="Arial" font-size="24px" font-style="normal" font-weight="normal" text-decoration="none" x="200" y="120">UNREGISTERED</text><text fill="#eeeeee" stroke="none" font-family="Arial" font-size="24px" font-style="normal" font-weight="normal" text-decoration="none" x="200" y="150">UNREGISTERED</text><text fill="#eeeeee" stroke="none" font-family="Arial" font-size="24px" font-style="normal" font-weight="normal" text-decoration="none" x="200" y="180">UNREGISTERED</text><text fill="#eeeeee" stroke="none" font-family="Arial" font-size="24px" font-style="normal" font-weight="normal" text-decoration="none" x="200" y="210">UNREGISTERED</text><text fill="#eeeeee" stroke="none" font-family="Arial" font-size="24px" font-style="normal" font-weight="normal" text-decoration="none" x="200" y="240">UNREGISTERED</text><text fill="#eeeeee" stroke="none" font-family="Arial" font-size="24px" font-style="normal" font-weight="normal" text-decoration="none" x="200" y="270">UNREGISTERED</text><text fill="#eeeeee" stroke="none" font-family="Arial" font-size="24px" font-style="normal" font-weight="normal" text-decoration="none" x="200" y="300">UNREGISTERED</text><text fill="#eeeeee" stroke="none" font-family="Arial" font-size="24px" font-style="normal" font-weight="normal" text-decoration="none" x="200" y="330">UNREGISTERED</text><text fill="#eeeeee" stroke="none" font-family="Arial" font-size="24px" font-style="normal" font-weight="normal" text-decoration="none" x="200" y="360">UNREGISTERED</text><text fill="#eeeeee" stroke="none" font-family="Arial" font-size="24px" font-style="normal" font-weight="normal" text-decoration="none" x="200" y="390">UNREGISTERED</text><text fill="#eeeeee" stroke="none" font-family="Arial" font-size="24px" font-style="normal" font-weight="normal" text-decoration="none" x="200" y="420">UNREGISTERED</text><text fill="#eeeeee" stroke="none" font-family="Arial" font-size="24px" font-style="normal" font-weight="normal" text-decoration="none" x="200" y="450">UNREGISTERED</text><text fill="#eeeeee" stroke="none" font-family="Arial" font-size="24px" font-style="normal" font-weight="normal" text-decoration="none" x="200" y="480">UNREGISTERED</text><text fill="#eeeeee" stroke="none" font-family="Arial" font-size="24px" font-style="normal" font-weight="normal" text-decoration="none" x="200" y="510">UNREGISTERED</text><text fill="#eeeeee" stroke="none" font-family="Arial" font-size="24px" font-style="normal" font-weight="normal" text-decoration="none" x="200" y="540">UNREGISTERED</text><text fill="#eeeeee" stroke="none" font-family="Arial" font-size="24px" font-style="normal" font-weight="normal" text-decoration="none" x="200" y="570">UNREGISTERED</text><text fill="#eeeeee" stroke="none" font-family="Arial" font-size="24px" font-style="normal" font-weight="normal" text-decoration="none" x="200" y="600">UNREGISTERED</text><text fill="#eeeeee" stroke="none" font-family="Arial" font-size="24px" font-style="normal" font-weight="normal" text-decoration="none" x="200" y="630">UNREGISTERED</text><text fill="#eeeeee" stroke="none" font-family="Arial" font-size="24px" font-style="normal" font-weight="normal" text-decoration="none" x="200" y="660">UNREGISTERED</text><text fill="#eeeeee" stroke="none" font-family="Arial" font-size="24px" font-style="normal" font-weight="normal" text-decoration="none" x="200" y="690">UNREGISTERED</text><text fill="#eeeeee" stroke="none" font-family="Arial" font-size="24px" font-style="normal" font-weight="normal" text-decoration="none" x="200" y="720">UNREGISTERED</text><text fill="#eeeeee" stroke="none" font-family="Arial" font-size="24px" font-style="normal" font-weight="normal" text-decoration="none" x="200" y="750">UNREGISTERED</text><text fill="#eeeeee" stroke="none" font-family="Arial" font-size="24px" font-style="normal" font-weight="normal" text-decoration="none" x="200" y="780">UNREGISTERED</text><text fill="#eeeeee" stroke="none" font-family="Arial" font-size="24px" font-style="normal" font-weight="normal" text-decoration="none" x="400" y="0">UNREGISTERED</text><text fill="#eeeeee" stroke="none" font-family="Arial" font-size="24px" font-style="normal" font-weight="normal" text-decoration="none" x="400" y="30">UNREGISTERED</text><text fill="#eeeeee" stroke="none" font-family="Arial" font-size="24px" font-style="normal" font-weight="normal" text-decoration="none" x="400" y="60">UNREGISTERED</text><text fill="#eeeeee" stroke="none" font-family="Arial" font-size="24px" font-style="normal" font-weight="normal" text-decoration="none" x="400" y="90">UNREGISTERED</text><text fill="#eeeeee" stroke="none" font-family="Arial" font-size="24px" font-style="normal" font-weight="normal" text-decoration="none" x="400" y="120">UNREGISTERED</text><text fill="#eeeeee" stroke="none" font-family="Arial" font-size="24px" font-style="normal" font-weight="normal" text-decoration="none" x="400" y="150">UNREGISTERED</text><text fill="#eeeeee" stroke="none" font-family="Arial" font-size="24px" font-style="normal" font-weight="normal" text-decoration="none" x="400" y="180">UNREGISTERED</text><text fill="#eeeeee" stroke="none" font-family="Arial" font-size="24px" font-style="normal" font-weight="normal" text-decoration="none" x="400" y="210">UNREGISTERED</text><text fill="#eeeeee" stroke="none" font-family="Arial" font-size="24px" font-style="normal" font-weight="normal" text-decoration="none" x="400" y="240">UNREGISTERED</text><text fill="#eeeeee" stroke="none" font-family="Arial" font-size="24px" font-style="normal" font-weight="normal" text-decoration="none" x="400" y="270">UNREGISTERED</text><text fill="#eeeeee" stroke="none" font-family="Arial" font-size="24px" font-style="normal" font-weight="normal" text-decoration="none" x="400" y="300">UNREGISTERED</text><text fill="#eeeeee" stroke="none" font-family="Arial" font-size="24px" font-style="normal" font-weight="normal" text-decoration="none" x="400" y="330">UNREGISTERED</text><text fill="#eeeeee" stroke="none" font-family="Arial" font-size="24px" font-style="normal" font-weight="normal" text-decoration="none" x="400" y="360">UNREGISTERED</text><text fill="#eeeeee" stroke="none" font-family="Arial" font-size="24px" font-style="normal" font-weight="normal" text-decoration="none" x="400" y="390">UNREGISTERED</text><text fill="#eeeeee" stroke="none" font-family="Arial" font-size="24px" font-style="normal" font-weight="normal" text-decoration="none" x="400" y="420">UNREGISTERED</text><text fill="#eeeeee" stroke="none" font-family="Arial" font-size="24px" font-style="normal" font-weight="normal" text-decoration="none" x="400" y="450">UNREGISTERED</text><text fill="#eeeeee" stroke="none" font-family="Arial" font-size="24px" font-style="normal" font-weight="normal" text-decoration="none" x="400" y="480">UNREGISTERED</text><text fill="#eeeeee" stroke="none" font-family="Arial" font-size="24px" font-style="normal" font-weight="normal" text-decoration="none" x="400" y="510">UNREGISTERED</text><text fill="#eeeeee" stroke="none" font-family="Arial" font-size="24px" font-style="normal" font-weight="normal" text-decoration="none" x="400" y="540">UNREGISTERED</text><text fill="#eeeeee" stroke="none" font-family="Arial" font-size="24px" font-style="normal" font-weight="normal" text-decoration="none" x="400" y="570">UNREGISTERED</text><text fill="#eeeeee" stroke="none" font-family="Arial" font-size="24px" font-style="normal" font-weight="normal" text-decoration="none" x="400" y="600">UNREGISTERED</text><text fill="#eeeeee" stroke="none" font-family="Arial" font-size="24px" font-style="normal" font-weight="normal" text-decoration="none" x="400" y="630">UNREGISTERED</text><text fill="#eeeeee" stroke="none" font-family="Arial" font-size="24px" font-style="normal" font-weight="normal" text-decoration="none" x="400" y="660">UNREGISTERED</text><text fill="#eeeeee" stroke="none" font-family="Arial" font-size="24px" font-style="normal" font-weight="normal" text-decoration="none" x="400" y="690">UNREGISTERED</text><text fill="#eeeeee" stroke="none" font-family="Arial" font-size="24px" font-style="normal" font-weight="normal" text-decoration="none" x="400" y="720">UNREGISTERED</text><text fill="#eeeeee" stroke="none" font-family="Arial" font-size="24px" font-style="normal" font-weight="normal" text-decoration="none" x="400" y="750">UNREGISTERED</text><text fill="#eeeeee" stroke="none" font-family="Arial" font-size="24px" font-style="normal" font-weight="normal" text-decoration="none" x="400" y="780">UNREGISTERED</text><text fill="#eeeeee" stroke="none" font-family="Arial" font-size="24px" font-style="normal" font-weight="normal" text-decoration="none" x="600" y="0">UNREGISTERED</text><text fill="#eeeeee" stroke="none" font-family="Arial" font-size="24px" font-style="normal" font-weight="normal" text-decoration="none" x="600" y="30">UNREGISTERED</text><text fill="#eeeeee" stroke="none" font-family="Arial" font-size="24px" font-style="normal" font-weight="normal" text-decoration="none" x="600" y="60">UNREGISTERED</text><text fill="#eeeeee" stroke="none" font-family="Arial" font-size="24px" font-style="normal" font-weight="normal" text-decoration="none" x="600" y="90">UNREGISTERED</text><text fill="#eeeeee" stroke="none" font-family="Arial" font-size="24px" font-style="normal" font-weight="normal" text-decoration="none" x="600" y="120">UNREGISTERED</text><text fill="#eeeeee" stroke="none" font-family="Arial" font-size="24px" font-style="normal" font-weight="normal" text-decoration="none" x="600" y="150">UNREGISTERED</text><text fill="#eeeeee" stroke="none" font-family="Arial" font-size="24px" font-style="normal" font-weight="normal" text-decoration="none" x="600" y="180">UNREGISTERED</text><text fill="#eeeeee" stroke="none" font-family="Arial" font-size="24px" font-style="normal" font-weight="normal" text-decoration="none" x="600" y="210">UNREGISTERED</text><text fill="#eeeeee" stroke="none" font-family="Arial" font-size="24px" font-style="normal" font-weight="normal" text-decoration="none" x="600" y="240">UNREGISTERED</text><text fill="#eeeeee" stroke="none" font-family="Arial" font-size="24px" font-style="normal" font-weight="normal" text-decoration="none" x="600" y="270">UNREGISTERED</text><text fill="#eeeeee" stroke="none" font-family="Arial" font-size="24px" font-style="normal" font-weight="normal" text-decoration="none" x="600" y="300">UNREGISTERED</text><text fill="#eeeeee" stroke="none" font-family="Arial" font-size="24px" font-style="normal" font-weight="normal" text-decoration="none" x="600" y="330">UNREGISTERED</text><text fill="#eeeeee" stroke="none" font-family="Arial" font-size="24px" font-style="normal" font-weight="normal" text-decoration="none" x="600" y="360">UNREGISTERED</text><text fill="#eeeeee" stroke="none" font-family="Arial" font-size="24px" font-style="normal" font-weight="normal" text-decoration="none" x="600" y="390">UNREGISTERED</text><text fill="#eeeeee" stroke="none" font-family="Arial" font-size="24px" font-style="normal" font-weight="normal" text-decoration="none" x="600" y="420">UNREGISTERED</text><text fill="#eeeeee" stroke="none" font-family="Arial" font-size="24px" font-style="normal" font-weight="normal" text-decoration="none" x="600" y="450">UNREGISTERED</text><text fill="#eeeeee" stroke="none" font-family="Arial" font-size="24px" font-style="normal" font-weight="normal" text-decoration="none" x="600" y="480">UNREGISTERED</text><text fill="#eeeeee" stroke="none" font-family="Arial" font-size="24px" font-style="normal" font-weight="normal" text-decoration="none" x="600" y="510">UNREGISTERED</text><text fill="#eeeeee" stroke="none" font-family="Arial" font-size="24px" font-style="normal" font-weight="normal" text-decoration="none" x="600" y="540">UNREGISTERED</text><text fill="#eeeeee" stroke="none" font-family="Arial" font-size="24px" font-style="normal" font-weight="normal" text-decoration="none" x="600" y="570">UNREGISTERED</text><text fill="#eeeeee" stroke="none" font-family="Arial" font-size="24px" font-style="normal" font-weight="normal" text-decoration="none" x="600" y="600">UNREGISTERED</text><text fill="#eeeeee" stroke="none" font-family="Arial" font-size="24px" font-style="normal" font-weight="normal" text-decoration="none" x="600" y="630">UNREGISTERED</text><text fill="#eeeeee" stroke="none" font-family="Arial" font-size="24px" font-style="normal" font-weight="normal" text-decoration="none" x="600" y="660">UNREGISTERED</text><text fill="#eeeeee" stroke="none" font-family="Arial" font-size="24px" font-style="normal" font-weight="normal" text-decoration="none" x="600" y="690">UNREGISTERED</text><text fill="#eeeeee" stroke="none" font-family="Arial" font-size="24px" font-style="normal" font-weight="normal" text-decoration="none" x="600" y="720">UNREGISTERED</text><text fill="#eeeeee" stroke="none" font-family="Arial" font-size="24px" font-style="normal" font-weight="normal" text-decoration="none" x="600" y="750">UNREGISTERED</text><text fill="#eeeeee" stroke="none" font-family="Arial" font-size="24px" font-style="normal" font-weight="normal" text-decoration="none" x="600" y="780">UNREGISTERED</text><g transform="translate(-15,-54) scale(1,1)"><rect fill="#C0C0C0" stroke="none" x="55" y="71" width="88" height="48" opacity="0.2"/></g><g transform="translate(-15,-54) scale(1,1)"><rect fill="#ffffff" stroke="none" x="48" y="64" width="88" height="48"/></g><g transform="translate(-15,-54) scale(1,1)"><path fill="none" stroke="#000000" d="M 48 64 L 136 64 L 136 112 L 48 112 L 48 64 Z Z" stroke-miterlimit="10"/></g><g transform="translate(-15,-54) scale(1,1)"><rect fill="#ffffff" stroke="none" x="48" y="64" width="88" height="48"/></g><g transform="translate(-15,-54) scale(1,1)"><path fill="none" stroke="#000000" d="M 48 64 L 136 64 L 136 112 L 48 112 L 48 64 Z Z" stroke-miterlimit="10"/></g><g transform="translate(-15,-54) scale(1,1)"><g><path fill="none" stroke="none"/><text fill="#000000" stroke="none" font-family="Arial" font-size="13px" font-style="normal" font-weight="bold" text-decoration="none" x="70.3291015625" y="82">Cliente</text><path fill="none" stroke="#000000" d="M 113.6708984375 83.5 L 70.3291015625 83.5" stroke-miterlimit="10"/></g></g><g transform="translate(-15,-54) scale(1,1)"><rect fill="#C0C0C0" stroke="none" x="223" y="71" width="88" height="48" opacity="0.2"/></g><g transform="translate(-15,-54) scale(1,1)"><rect fill="#ffffff" stroke="none" x="216" y="64" width="88" height="48"/></g><g transform="translate(-15,-54) scale(1,1)"><path fill="none" stroke="#000000" d="M 216 64 L 304 64 L 304 112 L 216 112 L 216 64 Z Z" stroke-miterlimit="10"/></g><g transform="translate(-15,-54) scale(1,1)"><rect fill="#ffffff" stroke="none" x="216" y="64" width="88" height="48"/></g><g transform="translate(-15,-54) scale(1,1)"><path fill="none" stroke="#000000" d="M 216 64 L 304 64 L 304 112 L 216 112 L 216 64 Z Z" stroke-miterlimit="10"/></g><g transform="translate(-15,-54) scale(1,1)"><g><path fill="none" stroke="none"/><text fill="#000000" stroke="none" font-family="Arial" font-size="13px" font-style="normal" font-weight="bold" text-decoration="none" x="230.140625" y="82">Tireguard</text><path fill="none" stroke="#000000" d="M 289.859375 83.5 L 230.140625 83.5" stroke-miterlimit="10"/></g></g><g transform="translate(-15,-54) scale(1,1)"><rect fill="#C0C0C0" stroke="none" x="415" y="71" width="89.1708984375" height="48" opacity="0.2"/></g><g transform="translate(-15,-54) scale(1,1)"><rect fill="#ffffff" stroke="none" x="408" y="64" width="89.1708984375" height="48"/></g><g transform="translate(-15,-54) scale(1,1)"><path fill="none" stroke="#000000" d="M 408 64 L 497.1708984375 64 L 497.1708984375 112 L 408 112 L 408 64 Z Z" stroke-miterlimit="10"/></g><g transform="translate(-15,-54) scale(1,1)"><rect fill="#ffffff" stroke="none" x="408" y="64" width="89.1708984375" height="48"/></g><g transform="translate(-15,-54) scale(1,1)"><path fill="none" stroke="#000000" d="M 408 64 L 497.1708984375 64 L 497.1708984375 112 L 408 112 L 408 64 Z Z" stroke-miterlimit="10"/></g><g transform="translate(-15,-54) scale(1,1)"><g><path fill="none" stroke="none"/><text fill="#000000" stroke="none" font-family="Arial" font-size="13px" font-style="normal" font-weight="bold" text-decoration="none" x="427.655029296875" y="82">Sistema</text><path fill="none" stroke="#000000" d="M 477.515869140625 83.5 L 427.655029296875 83.5" stroke-miterlimit="10"/></g></g><g transform="translate(-15,-54) scale(1,1)"><rect fill="#C0C0C0" stroke="none" x="599" y="71" width="109.4072265625" height="48" opacity="0.2"/></g><g transform="translate(-15,-54) scale(1,1)"><rect fill="#ffffff" stroke="none" x="592" y="64" width="109.4072265625" height="48"/></g><g transform="translate(-15,-54) scale(1,1)"><path fill="none" stroke="#000000" d="M 592 64 L 701.4072265625 64 L 701.4072265625 112 L 592 112 L 592 64 Z Z" stroke-miterlimit="10"/></g><g transform="translate(-15,-54) scale(1,1)"><rect fill="#ffffff" stroke="none" x="592" y="64" width="109.4072265625" height="48"/></g><g transform="translate(-15,-54) scale(1,1)"><path fill="none" stroke="#000000" d="M 592 64 L 701.4072265625 64 L 701.4072265625 112 L 592 112 L 592 64 Z Z" stroke-miterlimit="10"/></g><g transform="translate(-15,-54) scale(1,1)"><g><path fill="none" stroke="none"/><text fill="#000000" stroke="none" font-family="Arial" font-size="13px" font-style="normal" font-weight="bold" text-decoration="none" x="596.5" y="82">Banco de dados</text><path fill="none" stroke="#000000" d="M 696.9072265625 83.5 L 596.5 83.5" stroke-miterlimit="10"/></g></g><g transform="translate(-15,-54) scale(1,1)"><rect fill="#C0C0C0" stroke="none" x="79" y="127" width="14.5126953125" height="344" opacity="0.2"/></g><g transform="translate(-15,-54) scale(1,1)"><rect fill="#ffffff" stroke="none" x="72" y="120" width="14.5126953125" height="344"/></g><g transform="translate(-15,-54) scale(1,1)"><path fill="none" stroke="#000000" d="M 72 120 L 86.5126953125 120 L 86.5126953125 464 L 72 464 L 72 120 Z Z" stroke-miterlimit="10"/></g><g transform="translate(-15,-54) scale(1,1)"><rect fill="#ffffff" stroke="none" x="72" y="120" width="14.5126953125" height="344"/></g><g transform="translate(-15,-54) scale(1,1)"><path fill="none" stroke="#000000" d="M 72 120 L 86.5126953125 120 L 86.5126953125 464 L 72 464 L 72 120 Z Z" stroke-miterlimit="10"/></g><g transform="translate(-15,-54) scale(1,1)"><g><path fill="none" stroke="none"/><text fill="#000000" stroke="none" font-family="Arial" font-size="13px" font-style="normal" font-weight="bold" text-decoration="none" x="79.25634765625" y="133"></text><path fill="none" stroke="#000000" d="M 79.25634765625 139.5 L 79.25634765625 139.5" stroke-miterlimit="10"/></g></g><g transform="translate(-15,-54) scale(1,1)"><rect fill="#C0C0C0" stroke="none" x="255" y="135" width="16" height="336" opacity="0.2"/></g><g transform="translate(-15,-54) scale(1,1)"><rect fill="#ffffff" stroke="none" x="248" y="128" width="16" height="336"/></g><g transform="translate(-15,-54) scale(1,1)"><path fill="none" stroke="#000000" d="M 248 128 L 264 128 L 264 464 L 248 464 L 248 128 Z Z" stroke-miterlimit="10"/></g><g transform="translate(-15,-54) scale(1,1)"><rect fill="#ffffff" stroke="none" x="248" y="128" width="16" height="336"/></g><g transform="translate(-15,-54) scale(1,1)"><path fill="none" stroke="#000000" d="M 248 128 L 264 128 L 264 464 L 248 464 L 248 128 Z Z" stroke-miterlimit="10"/></g><g transform="translate(-15,-54) scale(1,1)"><g><path fill="none" stroke="none"/><text fill="#000000" stroke="none" font-family="Arial" font-size="13px" font-style="normal" font-weight="bold" text-decoration="none" x="256" y="141"></text><path fill="none" stroke="#000000" d="M 256 147.5 L 256 147.5" stroke-miterlimit="10"/></g></g><g transform="translate(-15,-54) scale(1,1)"><path fill="none" stroke="#000000" d="M 88 136 L 248 136" stroke-miterlimit="10"/></g><g transform="translate(-15,-54) scale(1,1)"><path fill="#000000" stroke="none" d="M 237.83732514237585 140.209517756016 L 248 136 L 237.83732514237585 131.790482243984"/></g><g transform="translate(-15,-54) scale(1,1)"><path fill="none" stroke="#000000" d="M 237.83732514237585 140.209517756016 L 248 136 L 237.83732514237585 131.790482243984 L 237.83732514237585 140.209517756016" stroke-miterlimit="10"/></g><g transform="translate(-15,-54) scale(1,1)"><rect fill="#ffffff" stroke="none" x="448" y="128" width="16" height="80"/></g><g transform="translate(-15,-54) scale(1,1)"><path fill="none" stroke="#000000" d="M 448 128 L 464 128 L 464 208 L 448 208 L 448 128 Z Z" stroke-miterlimit="10"/></g><g transform="translate(-15,-54) scale(1,1)"><rect fill="#ffffff" stroke="none" x="640" y="128" width="16" height="80"/></g><g transform="translate(-15,-54) scale(1,1)"><path fill="none" stroke="#000000" d="M 640 128 L 656 128 L 656 208 L 640 208 L 640 128 Z Z" stroke-miterlimit="10"/></g><g transform="translate(-15,-54) scale(1,1)"><path fill="none" stroke="#000000" d="M 256 144 L 449 144" stroke-miterlimit="10"/></g><g transform="translate(-15,-54) scale(1,1)"><path fill="#000000" stroke="none" d="M 438.83732514237585 148.209517756016 L 449 144 L 438.83732514237585 139.790482243984"/></g><g transform="translate(-15,-54) scale(1,1)"><path fill="none" stroke="#000000" d="M 438.83732514237585 148.209517756016 L 449 144 L 438.83732514237585 139.790482243984 L 438.83732514237585 148.209517756016" stroke-miterlimit="10"/></g><g transform="translate(-15,-54) scale(1,1)"><path fill="none" stroke="#000000" d="M 464 144 L 639 144" stroke-miterlimit="10"/></g><g transform="translate(-15,-54) scale(1,1)"><path fill="#000000" stroke="none" d="M 628.8373251423759 148.209517756016 L 639 144 L 628.8373251423758 139.790482243984"/></g><g transform="translate(-15,-54) scale(1,1)"><path fill="none" stroke="#000000" d="M 628.8373251423759 148.209517756016 L 639 144 L 628.8373251423758 139.790482243984 L 628.8373251423759 148.209517756016" stroke-miterlimit="10"/></g><g transform="translate(-15,-54) scale(1,1)"><path fill="none" stroke="#000000" d="M 464 192 L 635 192" stroke-miterlimit="10" stroke-dasharray="6,4"/></g><g transform="translate(-15,-54) scale(1,1)"><path fill="#000000" stroke="none" d="M 474.16267485762415 187.790482243984 L 464 192 L 474.16267485762415 196.209517756016"/></g><g transform="translate(-15,-54) scale(1,1)"><path fill="none" stroke="#000000" d="M 474.16267485762415 187.790482243984 L 464 192 L 474.16267485762415 196.209517756016 L 474.16267485762415 187.790482243984" stroke-miterlimit="10"/></g><g transform="translate(-15,-54) scale(1,1)"><path fill="none" stroke="#000000" d="M 448 192 L 264 192" stroke-miterlimit="10" stroke-dasharray="6,4"/></g><g transform="translate(-15,-54) scale(1,1)"><path fill="#000000" stroke="none" d="M 274.16267485762415 187.790482243984 L 264 192 L 274.16267485762415 196.209517756016"/></g><g transform="translate(-15,-54) scale(1,1)"><path fill="none" stroke="#000000" d="M 274.16267485762415 187.790482243984 L 264 192 L 274.16267485762415 196.209517756016 L 274.16267485762415 187.790482243984" stroke-miterlimit="10"/></g><g transform="translate(-15,-54) scale(1,1)"><path fill="none" stroke="#000000" d="M 240 256 L 96 256" stroke-miterlimit="10" stroke-dasharray="6,4"/></g><g transform="translate(-15,-54) scale(1,1)"><path fill="#000000" stroke="none" d="M 106.16267485762415 251.790482243984 L 96 256 L 106.16267485762415 260.209517756016"/></g><g transform="translate(-15,-54) scale(1,1)"><path fill="none" stroke="#000000" d="M 106.16267485762415 251.790482243984 L 96 256 L 106.16267485762415 260.209517756016 L 106.16267485762415 251.790482243984" stroke-miterlimit="10"/></g><g transform="translate(-15,-54) scale(1,1)"><path fill="none" stroke="#000000" d="M 248 336 L 96 336" stroke-miterlimit="10" stroke-dasharray="6,4"/></g><g transform="translate(-15,-54) scale(1,1)"><path fill="#000000" stroke="none" d="M 106.16267485762415 331.790482243984 L 96 336 L 106.16267485762415 340.209517756016"/></g><g transform="translate(-15,-54) scale(1,1)"><path fill="none" stroke="#000000" d="M 106.16267485762415 331.790482243984 L 96 336 L 106.16267485762415 340.209517756016 L 106.16267485762415 331.790482243984" stroke-miterlimit="10"/></g><g transform="translate(-15,-54) scale(1,1)"><path fill="none" stroke="#000000" d="M 456 208 L 456 464" stroke-miterlimit="10" stroke-dasharray="6,4"/></g><g transform="translate(-15,-54) scale(1,1)"><path fill="none" stroke="#000000" d="M 648 208 L 648 464" stroke-miterlimit="10" stroke-dasharray="6,4"/></g><g transform="translate(-15,-54) scale(1,1)"><g><path fill="none" stroke="none"/><text fill="#000000" stroke="none" font-family="Arial" font-size="13px" font-style="normal" font-weight="normal" text-decoration="none" x="125" y="159">Fazer Login</text></g></g><g transform="translate(-15,-54) scale(1,1)"><g><path fill="none" stroke="none"/><text fill="#000000" stroke="none" font-family="Arial" font-size="13px" font-style="normal" font-weight="normal" text-decoration="none" x="277" y="159">buscarUsuario(login, senha)</text></g></g><g transform="translate(-15,-54) scale(1,1)"><g><path fill="none" stroke="none"/><text fill="#000000" stroke="none" font-family="Arial" font-size="13px" font-style="normal" font-weight="normal" text-decoration="none" x="525" y="159">Autenticar</text></g></g><g transform="translate(-15,-54) scale(1,1)"><g><path fill="none" stroke="none"/><text fill="#000000" stroke="none" font-family="Arial" font-size="13px" font-style="normal" font-weight="normal" text-decoration="none" x="533" y="215">Token</text></g></g><g transform="translate(-15,-54) scale(1,1)"><g><path fill="none" stroke="none"/><text fill="#000000" stroke="none" font-family="Arial" font-size="13px" font-style="normal" font-weight="normal" text-decoration="none" x="301" y="215">usuarioExiste: bool</text></g></g><g transform="translate(-15,-54) scale(1,1)"><rect fill="#ffffff" stroke="none" x="272" y="224" width="167" height="119"/></g><g transform="translate(-15,-54) scale(1,1)"><path fill="none" stroke="#000000" d="M 272 224 L 439 224 L 439 343 L 272 343 L 272 224 Z Z" stroke-miterlimit="10"/></g><g transform="translate(-15,-54) scale(1,1)"><g><path fill="none" stroke="none"/><text fill="#000000" stroke="none" font-family="Arial" font-size="13px" font-style="normal" font-weight="normal" text-decoration="none" x="277" y="239">usuarioExiste</text></g></g><g transform="translate(-15,-54) scale(1,1)"><g><path fill="none" stroke="none"/><text fill="#000000" stroke="none" font-family="Arial" font-size="13px" font-style="normal" font-weight="normal" text-decoration="none" x="277" y="263">if  (usuarioExiste = false)</text></g></g><g transform="translate(-15,-54) scale(1,1)"><g><path fill="none" stroke="none"/><text fill="#000000" stroke="none" font-family="Arial" font-size="13px" font-style="normal" font-weight="normal" text-decoration="none" x="277" y="335">else</text></g></g><g transform="translate(-15,-54) scale(1,1)"><g><path fill="none" stroke="none"/><text fill="#000000" stroke="none" font-family="Arial" font-size="13px" font-style="normal" font-weight="normal" text-decoration="none" x="117" y="279">Mensagem de erro</text></g></g><g transform="translate(-15,-54) scale(1,1)"><g><path fill="none" stroke="none"/><text fill="#000000" stroke="none" font-family="Arial" font-size="13px" font-style="normal" font-weight="normal" text-decoration="none" x="125" y="359">Direcionar para</text><text fill="#000000" stroke="none" font-family="Arial" font-size="13px" font-style="normal" font-weight="normal" text-decoration="none" x="125" y="372">tela principal</text></g></g><g transform="translate(-15,-54) scale(1,1)"><rect fill="#ffffff" stroke="none" x="25" y="481" width="224" height="80"/></g><g transform="translate(-15,-54) scale(1,1)"><path fill="none" stroke="#000000" d="M 25 481 L 249 481 L 249 561 L 25 561 L 25 481 Z Z" stroke-miterlimit="10"/></g><g transform="translate(-15,-54) scale(1,1)"><g><path fill="none" stroke="none"/><text fill="#000000" stroke="none" font-family="Arial" font-size="13px" font-style="normal" font-weight="normal" text-decoration="none" x="30" y="496">Lucas Forge Freo - 22.121.081-8</text></g></g><g transform="translate(-15,-54) scale(1,1)"><g><path fill="none" stroke="none"/></g></g><g transform="translate(-15,-54) scale(1,1)"><g><path fill="none" stroke="none"/></g></g><g transform="translate(-15,-54) scale(1,1)"><g><path fill="none" stroke="none"/><text fill="#000000" stroke="none" font-family="Arial" font-size="13px" font-style="normal" font-weight="normal" text-decoration="none" x="30" y="515">Gianpietro M. B. - 22.121.054-5</text></g></g><g transform="translate(-15,-54) scale(1,1)"><g><path fill="none" stroke="none"/></g></g><g transform="translate(-15,-54) scale(1,1)"><g><path fill="none" stroke="none"/></g></g><g transform="translate(-15,-54) scale(1,1)"><g><path fill="none" stroke="none"/><text fill="#000000" stroke="none" font-family="Arial" font-size="13px" font-style="normal" font-weight="normal" text-decoration="none" x="30" y="534">Filipe Bruhns - 22.121.053-7</text></g></g><g transform="translate(-15,-54) scale(1,1)"><g><path fill="none" stroke="none"/></g></g><g transform="translate(-15,-54) scale(1,1)"><g><path fill="none" stroke="none"/></g></g><g transform="translate(-15,-54) scale(1,1)"><g><path fill="none" stroke="none"/><text fill="#000000" stroke="none" font-family="Arial" font-size="13px" font-style="normal" font-weight="normal" text-decoration="none" x="30" y="553">Yuri Tierno Popic - 22.121.046-1</text></g></g></g></svg>