<svg version="1.1" xmlns="http://www.w3.org/2000/svg" xmlns:xlink="http://www.w3.org/1999/xlink" width="1067" height="451"><defs/><g><text fill="#eeeeee" stroke="none" font-family="Arial" font-size="24px" font-style="normal" font-weight="normal" text-decoration="none" x="0" y="0">UNREGISTERED</text><text fill="#eeeeee" stroke="none" font-family="Arial" font-size="24px" font-style="normal" font-weight="normal" text-decoration="none" x="0" y="30">UNREGISTERED</text><text fill="#eeeeee" stroke="none" font-family="Arial" font-size="24px" font-style="normal" font-weight="normal" text-decoration="none" x="0" y="60">UNREGISTERED</text><text fill="#eeeeee" stroke="none" font-family="Arial" font-size="24px" font-style="normal" font-weight="normal" text-decoration="none" x="0" y="90">UNREGISTERED</text><text fill="#eeeeee" stroke="none" font-family="Arial" font-size="24px" font-style="normal" font-weight="normal" text-decoration="none" x="0" y="120">UNREGISTERED</text><text fill="#eeeeee" stroke="none" font-family="Arial" font-size="24px" font-style="normal" font-weight="normal" text-decoration="none" x="0" y="150">UNREGISTERED</text><text fill="#eeeeee" stroke="none" font-family="Arial" font-size="24px" font-style="normal" font-weight="normal" text-decoration="none" x="0" y="180">UNREGISTERED</text><text fill="#eeeeee" stroke="none" font-family="Arial" font-size="24px" font-style="normal" font-weight="normal" text-decoration="none" x="0" y="210">UNREGISTERED</text><text fill="#eeeeee" stroke="none" font-family="Arial" font-size="24px" font-style="normal" font-weight="normal" text-decoration="none" x="0" y="240">UNREGISTERED</text><text fill="#eeeeee" stroke="none" font-family="Arial" font-size="24px" font-style="normal" font-weight="normal" text-decoration="none" x="0" y="270">UNREGISTERED</text><text fill="#eeeeee" stroke="none" font-family="Arial" font-size="24px" font-style="normal" font-weight="normal" text-decoration="none" x="0" y="300">UNREGISTERED</text><text fill="#eeeeee" stroke="none" font-family="Arial" font-size="24px" font-style="normal" font-weight="normal" text-decoration="none" x="0" y="330">UNREGISTERED</text><text fill="#eeeeee" stroke="none" font-family="Arial" font-size="24px" font-style="normal" font-weight="normal" text-decoration="none" x="0" y="360">UNREGISTERED</text><text fill="#eeeeee" stroke="none" font-family="Arial" font-size="24px" font-style="normal" font-weight="normal" text-decoration="none" x="0" y="390">UNREGISTERED</text><text fill="#eeeeee" stroke="none" font-family="Arial" font-size="24px" font-style="normal" font-weight="normal" text-decoration="none" x="0" y="420">UNREGISTERED</text><text fill="#eeeeee" stroke="none" font-family="Arial" font-size="24px" font-style="normal" font-weight="normal" text-decoration="none" x="0" y="450">UNREGISTERED</text><text fill="#eeeeee" stroke="none" font-family="Arial" font-size="24px" font-style="normal" font-weight="normal" text-decoration="none" x="200" y="0">UNREGISTERED</text><text fill="#eeeeee" stroke="none" font-family="Arial" font-size="24px" font-style="normal" font-weight="normal" text-decoration="none" x="200" y="30">UNREGISTERED</text><text fill="#eeeeee" stroke="none" font-family="Arial" font-size="24px" font-style="normal" font-weight="normal" text-decoration="none" x="200" y="60">UNREGISTERED</text><text fill="#eeeeee" stroke="none" font-family="Arial" font-size="24px" font-style="normal" font-weight="normal" text-decoration="none" x="200" y="90">UNREGISTERED</text><text fill="#eeeeee" stroke="none" font-family="Arial" font-size="24px" font-style="normal" font-weight="normal" text-decoration="none" x="200" y="120">UNREGISTERED</text><text fill="#eeeeee" stroke="none" font-family="Arial" font-size="24px" font-style="normal" font-weight="normal" text-decoration="none" x="200" y="150">UNREGISTERED</text><text fill="#eeeeee" stroke="none" font-family="Arial" font-size="24px" font-style="normal" font-weight="normal" text-decoration="none" x="200" y="180">UNREGISTERED</text><text fill="#eeeeee" stroke="none" font-family="Arial" font-size="24px" font-style="normal" font-weight="normal" text-decoration="none" x="200" y="210">UNREGISTERED</text><text fill="#eeeeee" stroke="none" font-family="Arial" font-size="24px" font-style="normal" font-weight="normal" text-decoration="none" x="200" y="240">UNREGISTERED</text><text fill="#eeeeee" stroke="none" font-family="Arial" font-size="24px" font-style="normal" font-weight="normal" text-decoration="none" x="200" y="270">UNREGISTERED</text><text fill="#eeeeee" stroke="none" font-family="Arial" font-size="24px" font-style="normal" font-weight="normal" text-decoration="none" x="200" y="300">UNREGISTERED</text><text fill="#eeeeee" stroke="none" font-family="Arial" font-size="24px" font-style="normal" font-weight="normal" text-decoration="none" x="200" y="330">UNREGISTERED</text><text fill="#eeeeee" stroke="none" font-family="Arial" font-size="24px" font-style="normal" font-weight="normal" text-decoration="none" x="200" y="360">UNREGISTERED</text><text fill="#eeeeee" stroke="none" font-family="Arial" font-size="24px" font-style="normal" font-weight="normal" text-decoration="none" x="200" y="390">UNREGISTERED</text><text fill="#eeeeee" stroke="none" font-family="Arial" font-size="24px" font-style="normal" font-weight="normal" text-decoration="none" x="200" y="420">UNREGISTERED</text><text fill="#eeeeee" stroke="none" font-family="Arial" font-size="24px" font-style="normal" font-weight="normal" text-decoration="none" x="200" y="450">UNREGISTERED</text><text fill="#eeeeee" stroke="none" font-family="Arial" font-size="24px" font-style="normal" font-weight="normal" text-decoration="none" x="400" y="0">UNREGISTERED</text><text fill="#eeeeee" stroke="none" font-family="Arial" font-size="24px" font-style="normal" font-weight="normal" text-decoration="none" x="400" y="30">UNREGISTERED</text><text fill="#eeeeee" stroke="none" font-family="Arial" font-size="24px" font-style="normal" font-weight="normal" text-decoration="none" x="400" y="60">UNREGISTERED</text><text fill="#eeeeee" stroke="none" font-family="Arial" font-size="24px" font-style="normal" font-weight="normal" text-decoration="none" x="400" y="90">UNREGISTERED</text><text fill="#eeeeee" stroke="none" font-family="Arial" font-size="24px" font-style="normal" font-weight="normal" text-decoration="none" x="400" y="120">UNREGISTERED</text><text fill="#eeeeee" stroke="none" font-family="Arial" font-size="24px" font-style="normal" font-weight="normal" text-decoration="none" x="400" y="150">UNREGISTERED</text><text fill="#eeeeee" stroke="none" font-family="Arial" font-size="24px" font-style="normal" font-weight="normal" text-decoration="none" x="400" y="180">UNREGISTERED</text><text fill="#eeeeee" stroke="none" font-family="Arial" font-size="24px" font-style="normal" font-weight="normal" text-decoration="none" x="400" y="210">UNREGISTERED</text><text fill="#eeeeee" stroke="none" font-family="Arial" font-size="24px" font-style="normal" font-weight="normal" text-decoration="none" x="400" y="240">UNREGISTERED</text><text fill="#eeeeee" stroke="none" font-family="Arial" font-size="24px" font-style="normal" font-weight="normal" text-decoration="none" x="400" y="270">UNREGISTERED</text><text fill="#eeeeee" stroke="none" font-family="Arial" font-size="24px" font-style="normal" font-weight="normal" text-decoration="none" x="400" y="300">UNREGISTERED</text><text fill="#eeeeee" stroke="none" font-family="Arial" font-size="24px" font-style="normal" font-weight="normal" text-decoration="none" x="400" y="330">UNREGISTERED</text><text fill="#eeeeee" stroke="none" font-family="Arial" font-size="24px" font-style="normal" font-weight="normal" text-decoration="none" x="400" y="360">UNREGISTERED</text><text fill="#eeeeee" stroke="none" font-family="Arial" font-size="24px" font-style="normal" font-weight="normal" text-decoration="none" x="400" y="390">UNREGISTERED</text><text fill="#eeeeee" stroke="none" font-family="Arial" font-size="24px" font-style="normal" font-weight="normal" text-decoration="none" x="400" y="420">UNREGISTERED</text><text fill="#eeeeee" stroke="none" font-family="Arial" font-size="24px" font-style="normal" font-weight="normal" text-decoration="none" x="400" y="450">UNREGISTERED</text><text fill="#eeeeee" stroke="none" font-family="Arial" font-size="24px" font-style="normal" font-weight="normal" text-decoration="none" x="600" y="0">UNREGISTERED</text><text fill="#eeeeee" stroke="none" font-family="Arial" font-size="24px" font-style="normal" font-weight="normal" text-decoration="none" x="600" y="30">UNREGISTERED</text><text fill="#eeeeee" stroke="none" font-family="Arial" font-size="24px" font-style="normal" font-weight="normal" text-decoration="none" x="600" y="60">UNREGISTERED</text><text fill="#eeeeee" stroke="none" font-family="Arial" font-size="24px" font-style="normal" font-weight="normal" text-decoration="none" x="600" y="90">UNREGISTERED</text><text fill="#eeeeee" stroke="none" font-family="Arial" font-size="24px" font-style="normal" font-weight="normal" text-decoration="none" x="600" y="120">UNREGISTERED</text><text fill="#eeeeee" stroke="none" font-family="Arial" font-size="24px" font-style="normal" font-weight="normal" text-decoration="none" x="600" y="150">UNREGISTERED</text><text fill="#eeeeee" stroke="none" font-family="Arial" font-size="24px" font-style="normal" font-weight="normal" text-decoration="none" x="600" y="180">UNREGISTERED</text><text fill="#eeeeee" stroke="none" font-family="Arial" font-size="24px" font-style="normal" font-weight="normal" text-decoration="none" x="600" y="210">UNREGISTERED</text><text fill="#eeeeee" stroke="none" font-family="Arial" font-size="24px" font-style="normal" font-weight="normal" text-decoration="none" x="600" y="240">UNREGISTERED</text><text fill="#eeeeee" stroke="none" font-family="Arial" font-size="24px" font-style="normal" font-weight="normal" text-decoration="none" x="600" y="270">UNREGISTERED</text><text fill="#eeeeee" stroke="none" font-family="Arial" font-size="24px" font-style="normal" font-weight="normal" text-decoration="none" x="600" y="300">UNREGISTERED</text><text fill="#eeeeee" stroke="none" font-family="Arial" font-size="24px" font-style="normal" font-weight="normal" text-decoration="none" x="600" y="330">UNREGISTERED</text><text fill="#eeeeee" stroke="none" font-family="Arial" font-size="24px" font-style="normal" font-weight="normal" text-decoration="none" x="600" y="360">UNREGISTERED</text><text fill="#eeeeee" stroke="none" font-family="Arial" font-size="24px" font-style="normal" font-weight="normal" text-decoration="none" x="600" y="390">UNREGISTERED</text><text fill="#eeeeee" stroke="none" font-family="Arial" font-size="24px" font-style="normal" font-weight="normal" text-decoration="none" x="600" y="420">UNREGISTERED</text><text fill="#eeeeee" stroke="none" font-family="Arial" font-size="24px" font-style="normal" font-weight="normal" text-decoration="none" x="600" y="450">UNREGISTERED</text><text fill="#eeeeee" stroke="none" font-family="Arial" font-size="24px" font-style="normal" font-weight="normal" text-decoration="none" x="800" y="0">UNREGISTERED</text><text fill="#eeeeee" stroke="none" font-family="Arial" font-size="24px" font-style="normal" font-weight="normal" text-decoration="none" x="800" y="30">UNREGISTERED</text><text fill="#eeeeee" stroke="none" font-family="Arial" font-size="24px" font-style="normal" font-weight="normal" text-decoration="none" x="800" y="60">UNREGISTERED</text><text fill="#eeeeee" stroke="none" font-family="Arial" font-size="24px" font-style="normal" font-weight="normal" text-decoration="none" x="800" y="90">UNREGISTERED</text><text fill="#eeeeee" stroke="none" font-family="Arial" font-size="24px" font-style="normal" font-weight="normal" text-decoration="none" x="800" y="120">UNREGISTERED</text><text fill="#eeeeee" stroke="none" font-family="Arial" font-size="24px" font-style="normal" font-weight="normal" text-decoration="none" x="800" y="150">UNREGISTERED</text><text fill="#eeeeee" stroke="none" font-family="Arial" font-size="24px" font-style="normal" font-weight="normal" text-decoration="none" x="800" y="180">UNREGISTERED</text><text fill="#eeeeee" stroke="none" font-family="Arial" font-size="24px" font-style="normal" font-weight="normal" text-decoration="none" x="800" y="210">UNREGISTERED</text><text fill="#eeeeee" stroke="none" font-family="Arial" font-size="24px" font-style="normal" font-weight="normal" text-decoration="none" x="800" y="240">UNREGISTERED</text><text fill="#eeeeee" stroke="none" font-family="Arial" font-size="24px" font-style="normal" font-weight="normal" text-decoration="none" x="800" y="270">UNREGISTERED</text><text fill="#eeeeee" stroke="none" font-family="Arial" font-size="24px" font-style="normal" font-weight="normal" text-decoration="none" x="800" y="300">UNREGISTERED</text><text fill="#eeeeee" stroke="none" font-family="Arial" font-size="24px" font-style="normal" font-weight="normal" text-decoration="none" x="800" y="330">UNREGISTERED</text><text fill="#eeeeee" stroke="none" font-family="Arial" font-size="24px" font-style="normal" font-weight="normal" text-decoration="none" x="800" y="360">UNREGISTERED</text><text fill="#eeeeee" stroke="none" font-family="Arial" font-size="24px" font-style="normal" font-weight="normal" text-decoration="none" x="800" y="390">UNREGISTERED</text><text fill="#eeeeee" stroke="none" font-family="Arial" font-size="24px" font-style="normal" font-weight="normal" text-decoration="none" x="800" y="420">UNREGISTERED</text><text fill="#eeeeee" stroke="none" font-family="Arial" font-size="24px" font-style="normal" font-weight="normal" text-decoration="none" x="800" y="450">UNREGISTERED</text><text fill="#eeeeee" stroke="none" font-family="Arial" font-size="24px" font-style="normal" font-weight="normal" text-decoration="none" x="1000" y="0">UNREGISTERED</text><text fill="#eeeeee" stroke="none" font-family="Arial" font-size="24px" font-style="normal" font-weight="normal" text-decoration="none" x="1000" y="30">UNREGISTERED</text><text fill="#eeeeee" stroke="none" font-family="Arial" font-size="24px" font-style="normal" font-weight="normal" text-decoration="none" x="1000" y="60">UNREGISTERED</text><text fill="#eeeeee" stroke="none" font-family="Arial" font-size="24px" font-style="normal" font-weight="normal" text-decoration="none" x="1000" y="90">UNREGISTERED</text><text fill="#eeeeee" stroke="none" font-family="Arial" font-size="24px" font-style="normal" font-weight="normal" text-decoration="none" x="1000" y="120">UNREGISTERED</text><text fill="#eeeeee" stroke="none" font-family="Arial" font-size="24px" font-style="normal" font-weight="normal" text-decoration="none" x="1000" y="150">UNREGISTERED</text><text fill="#eeeeee" stroke="none" font-family="Arial" font-size="24px" font-style="normal" font-weight="normal" text-decoration="none" x="1000" y="180">UNREGISTERED</text><text fill="#eeeeee" stroke="none" font-family="Arial" font-size="24px" font-style="normal" font-weight="normal" text-decoration="none" x="1000" y="210">UNREGISTERED</text><text fill="#eeeeee" stroke="none" font-family="Arial" font-size="24px" font-style="normal" font-weight="normal" text-decoration="none" x="1000" y="240">UNREGISTERED</text><text fill="#eeeeee" stroke="none" font-family="Arial" font-size="24px" font-style="normal" font-weight="normal" text-decoration="none" x="1000" y="270">UNREGISTERED</text><text fill="#eeeeee" stroke="none" font-family="Arial" font-size="24px" font-style="normal" font-weight="normal" text-decoration="none" x="1000" y="300">UNREGISTERED</text><text fill="#eeeeee" stroke="none" font-family="Arial" font-size="24px" font-style="normal" font-weight="normal" text-decoration="none" x="1000" y="330">UNREGISTERED</text><text fill="#eeeeee" stroke="none" font-family="Arial" font-size="24px" font-style="normal" font-weight="normal" text-decoration="none" x="1000" y="360">UNREGISTERED</text><text fill="#eeeeee" stroke="none" font-family="Arial" font-size="24px" font-style="normal" font-weight="normal" text-decoration="none" x="1000" y="390">UNREGISTERED</text><text fill="#eeeeee" stroke="none" font-family="Arial" font-size="24px" font-style="normal" font-weight="normal" text-decoration="none" x="1000" y="420">UNREGISTERED</text><text fill="#eeeeee" stroke="none" font-family="Arial" font-size="24px" font-style="normal" font-weight="normal" text-decoration="none" x="1000" y="450">UNREGISTERED</text><g transform="translate(-30,-182) scale(1,1)"><path fill="#C0C0C0" stroke="none" d="M 75.5 446 C 75.5 433.2974496 85.7974496 423 98.5 423 C 111.2025504 423 121.5 433.2974496 121.5 446 C 121.5 458.7025504 111.2025504 469 98.5 469 C 85.7974496 469 75.5 458.7025504 75.5 446 Z" opacity="0.2"/></g><g transform="translate(-30,-182) scale(1,1)"><path fill="#000000" stroke="none" d="M 68.5 439 C 68.5 426.2974496 78.7974496 416 91.5 416 C 104.2025504 416 114.5 426.2974496 114.5 439 C 114.5 451.7025504 104.2025504 462 91.5 462 C 78.7974496 462 68.5 451.7025504 68.5 439 Z"/></g><g transform="translate(-30,-182) scale(1,1)"><path fill="none" stroke="#000000" d="M 68.5 439 C 68.5 426.2974496 78.7974496 416 91.5 416 C 104.2025504 416 114.5 426.2974496 114.5 439 C 114.5 451.7025504 104.2025504 462 91.5 462 C 78.7974496 462 68.5 451.7025504 68.5 439 Z" stroke-miterlimit="10"/></g><g transform="translate(-30,-182) scale(1,1)"><g><path fill="none" stroke="none"/><text fill="#000000" stroke="none" font-family="Arial" font-size="13px" font-style="normal" font-weight="bold" text-decoration="none" x="74.5263671875" y="480">Início</text></g></g><g transform="translate(-30,-182) scale(1,1)"><rect fill="#C0C0C0" stroke="none" x="279" y="199" width="159.1728515625" height="79" opacity="0.2"/></g><g transform="translate(-30,-182) scale(1,1)"><rect fill="#ffffff" stroke="none" x="272" y="192" width="159.1728515625" height="79"/></g><g transform="translate(-30,-182) scale(1,1)"><path fill="none" stroke="#000000" d="M 272 192 L 431.1728515625 192 L 431.1728515625 271 L 272 271 L 272 192 Z Z" stroke-miterlimit="10"/></g><g transform="translate(-30,-182) scale(1,1)"><path fill="none" stroke="#000000" d="M 272 217 L 431.1728515625 217" stroke-miterlimit="10"/></g><g transform="translate(-30,-182) scale(1,1)"><path fill="none" stroke="#000000" d="M 272 227 L 431.1728515625 227" stroke-miterlimit="10"/></g><g transform="translate(-30,-182) scale(1,1)"><g><path fill="none" stroke="none"/><text fill="#000000" stroke="none" font-family="Arial" font-size="13px" font-style="normal" font-weight="bold" text-decoration="none" x="285.48828125" y="210">Pagamento Recebido</text></g></g><g transform="translate(-30,-182) scale(1,1)"><g><path fill="none" stroke="none"/><text fill="#000000" stroke="none" font-family="Arial" font-size="13px" font-style="normal" font-weight="normal" text-decoration="none" x="277" y="243">+RecebePagamento()</text></g></g><g transform="translate(-30,-182) scale(1,1)"><g><path fill="none" stroke="none"/><text fill="#000000" stroke="none" font-family="Arial" font-size="13px" font-style="normal" font-weight="normal" text-decoration="none" x="277" y="258">+do RealizaTranferencia()</text></g></g><g transform="translate(-30,-182) scale(1,1)"><path fill="none" stroke="#000000" d="M 134 415 L 303 272" stroke-miterlimit="10"/></g><g transform="translate(-30,-182) scale(1,1)"><path fill="none" stroke="#000000" d="M 297.96105872583684 281.77798909978605 L 303 272 L 292.52284805621156 275.3510128538653" stroke-miterlimit="10"/></g><g transform="translate(-30,-182) scale(1,1)"><g><path fill="none" stroke="none"/><text fill="#000000" stroke="none" font-family="Arial" font-size="13px" font-style="normal" font-weight="normal" text-decoration="none" x="112.5" y="336">+[Recebe Pagamento de Cliente]</text></g></g><g transform="translate(-30,-182) scale(1,1)"><rect fill="#C0C0C0" stroke="none" x="639" y="199" width="159" height="79" opacity="0.2"/></g><g transform="translate(-30,-182) scale(1,1)"><rect fill="#ffffff" stroke="none" x="632" y="192" width="159" height="79"/></g><g transform="translate(-30,-182) scale(1,1)"><path fill="none" stroke="#000000" d="M 632 192 L 791 192 L 791 271 L 632 271 L 632 192 Z Z" stroke-miterlimit="10"/></g><g transform="translate(-30,-182) scale(1,1)"><path fill="none" stroke="#000000" d="M 632 217 L 791 217" stroke-miterlimit="10"/></g><g transform="translate(-30,-182) scale(1,1)"><path fill="none" stroke="#000000" d="M 632 227 L 791 227" stroke-miterlimit="10"/></g><g transform="translate(-30,-182) scale(1,1)"><g><path fill="none" stroke="none"/><text fill="#000000" stroke="none" font-family="Arial" font-size="13px" font-style="normal" font-weight="bold" text-decoration="none" x="658.398681640625" y="210">Valor Transferido</text></g></g><g transform="translate(-30,-182) scale(1,1)"><path fill="none" stroke="#000000" d="M 432 231 L 631 231" stroke-miterlimit="10"/></g><g transform="translate(-30,-182) scale(1,1)"><path fill="none" stroke="#000000" d="M 620.8373251423759 235.209517756016 L 631 231 L 620.8373251423758 226.790482243984" stroke-miterlimit="10"/></g><g transform="translate(-30,-182) scale(1,1)"><g><path fill="none" stroke="none"/><text fill="#000000" stroke="none" font-family="Arial" font-size="13px" font-style="normal" font-weight="normal" text-decoration="none" x="480.5" y="221">+[Transfere valor]</text></g></g><g transform="translate(-30,-182) scale(1,1)"><path fill="#C0C0C0" stroke="none" d="M 1011.5 450 C 1011.5 435.0883104 1023.5883104 423 1038.5 423 C 1053.4116896 423 1065.5 435.0883104 1065.5 450 C 1065.5 464.9116896 1053.4116896 477 1038.5 477 C 1023.5883104 477 1011.5 464.9116896 1011.5 450 Z" opacity="0.2"/></g><g transform="translate(-30,-182) scale(1,1)"><path fill="#ffffff" stroke="none" d="M 1004.5 443 C 1004.5 428.0883104 1016.5883104 416 1031.5 416 C 1046.4116896 416 1058.5 428.0883104 1058.5 443 C 1058.5 457.9116896 1046.4116896 470 1031.5 470 C 1016.5883104 470 1004.5 457.9116896 1004.5 443 Z"/></g><g transform="translate(-30,-182) scale(1,1)"><path fill="none" stroke="#000000" d="M 1004.5 443 C 1004.5 428.0883104 1016.5883104 416 1031.5 416 C 1046.4116896 416 1058.5 428.0883104 1058.5 443 C 1058.5 457.9116896 1046.4116896 470 1031.5 470 C 1016.5883104 470 1004.5 457.9116896 1004.5 443 Z" stroke-miterlimit="10"/></g><g transform="translate(-30,-182) scale(1,1)"><g><path fill="none" stroke="none"/><text fill="#000000" stroke="none" font-family="Arial" font-size="13px" font-style="normal" font-weight="bold" text-decoration="none" x="1019.944091796875" y="488">Fim</text></g></g><g transform="translate(-30,-182) scale(1,1)"><path fill="#C0C0C0" stroke="none" d="M 1019.5 450 C 1019.5 439.5065888 1028.0065888 431 1038.5 431 C 1048.9934112 431 1057.5 439.5065888 1057.5 450 C 1057.5 460.4934112 1048.9934112 469 1038.5 469 C 1028.0065888 469 1019.5 460.4934112 1019.5 450 Z" opacity="0.2"/></g><g transform="translate(-30,-182) scale(1,1)"><path fill="#000000" stroke="none" d="M 1012.5 443 C 1012.5 432.5065888 1021.0065888 424 1031.5 424 C 1041.9934112 424 1050.5 432.5065888 1050.5 443 C 1050.5 453.4934112 1041.9934112 462 1031.5 462 C 1021.0065888 462 1012.5 453.4934112 1012.5 443 Z"/></g><g transform="translate(-30,-182) scale(1,1)"><path fill="none" stroke="#000000" d="M 1012.5 443 C 1012.5 432.5065888 1021.0065888 424 1031.5 424 C 1041.9934112 424 1050.5 432.5065888 1050.5 443 C 1050.5 453.4934112 1041.9934112 462 1031.5 462 C 1021.0065888 462 1012.5 453.4934112 1012.5 443 Z" stroke-miterlimit="10"/></g><g transform="translate(-30,-182) scale(1,1)"><g><path fill="none" stroke="none"/><text fill="#000000" stroke="none" font-family="Arial" font-size="13px" font-style="normal" font-weight="bold" text-decoration="none" x="1031.5" y="475"></text></g></g><g transform="translate(-30,-182) scale(1,1)"><path fill="none" stroke="#000000" d="M 770 272 L 975 416" stroke-miterlimit="10"/></g><g transform="translate(-30,-182) scale(1,1)"><path fill="none" stroke="#000000" d="M 964.2643171414143 413.6031033481041 L 975 416 L 969.1035877263848 406.713863973667" stroke-miterlimit="10"/></g><g transform="translate(-30,-182) scale(1,1)"><rect fill="#C0C0C0" stroke="none" x="279" y="551" width="170.50341796875" height="79" opacity="0.2"/></g><g transform="translate(-30,-182) scale(1,1)"><rect fill="#ffffff" stroke="none" x="272" y="544" width="170.50341796875" height="79"/></g><g transform="translate(-30,-182) scale(1,1)"><path fill="none" stroke="#000000" d="M 272 544 L 442.50341796875 544 L 442.50341796875 623 L 272 623 L 272 544 Z Z" stroke-miterlimit="10"/></g><g transform="translate(-30,-182) scale(1,1)"><path fill="none" stroke="#000000" d="M 272 569 L 442.50341796875 569" stroke-miterlimit="10"/></g><g transform="translate(-30,-182) scale(1,1)"><path fill="none" stroke="#000000" d="M 272 579 L 442.50341796875 579" stroke-miterlimit="10"/></g><g transform="translate(-30,-182) scale(1,1)"><g><path fill="none" stroke="none"/><text fill="#000000" stroke="none" font-family="Arial" font-size="13px" font-style="normal" font-weight="bold" text-decoration="none" x="327.995361328125" y="562">Pendente</text></g></g><g transform="translate(-30,-182) scale(1,1)"><g><path fill="none" stroke="none"/><text fill="#000000" stroke="none" font-family="Arial" font-size="13px" font-style="normal" font-weight="normal" text-decoration="none" x="277" y="595">+do RealizaCancelamento()</text></g></g><g transform="translate(-30,-182) scale(1,1)"><path fill="none" stroke="#000000" d="M 144 477 L 276 543" stroke-miterlimit="10"/></g><g transform="translate(-30,-182) scale(1,1)"><path fill="none" stroke="#000000" d="M 265.02767370306094 542.2202207790025 L 276 543 L 268.7927808450386 534.6900064950472" stroke-miterlimit="10"/></g><g transform="translate(-30,-182) scale(1,1)"><g><path fill="none" stroke="none"/><text fill="#000000" stroke="none" font-family="Arial" font-size="13px" font-style="normal" font-weight="normal" text-decoration="none" x="124.5" y="501">+Recebe solicitação de Extorno</text></g></g><g transform="translate(-30,-182) scale(1,1)"><rect fill="#C0C0C0" stroke="none" x="639" y="551" width="159" height="79" opacity="0.2"/></g><g transform="translate(-30,-182) scale(1,1)"><rect fill="#ffffff" stroke="none" x="632" y="544" width="159" height="79"/></g><g transform="translate(-30,-182) scale(1,1)"><path fill="none" stroke="#000000" d="M 632 544 L 791 544 L 791 623 L 632 623 L 632 544 Z Z" stroke-miterlimit="10"/></g><g transform="translate(-30,-182) scale(1,1)"><path fill="none" stroke="#000000" d="M 632 569 L 791 569" stroke-miterlimit="10"/></g><g transform="translate(-30,-182) scale(1,1)"><path fill="none" stroke="#000000" d="M 632 579 L 791 579" stroke-miterlimit="10"/></g><g transform="translate(-30,-182) scale(1,1)"><g><path fill="none" stroke="none"/><text fill="#000000" stroke="none" font-family="Arial" font-size="13px" font-style="normal" font-weight="bold" text-decoration="none" x="661.655029296875" y="562">Valor Estornado</text></g></g><g transform="translate(-30,-182) scale(1,1)"><path fill="none" stroke="#000000" d="M 444 583 L 631 583" stroke-miterlimit="10"/></g><g transform="translate(-30,-182) scale(1,1)"><path fill="none" stroke="#000000" d="M 620.8373251423759 587.209517756016 L 631 583 L 620.8373251423758 578.790482243984" stroke-miterlimit="10"/></g><g transform="translate(-30,-182) scale(1,1)"><path fill="none" stroke="#000000" d="M 792 551 L 975 477" stroke-miterlimit="10"/></g><g transform="translate(-30,-182) scale(1,1)"><path fill="none" stroke="#000000" d="M 967.1565341884503 484.71233065052655 L 975 477 L 964.0003908349082 476.9072734383886" stroke-miterlimit="10"/></g></g></svg>