<svg version="1.1" xmlns="http://www.w3.org/2000/svg" xmlns:xlink="http://www.w3.org/1999/xlink" width="540" height="452"><defs/><g><text fill="#eeeeee" stroke="none" font-family="Arial" font-size="24px" font-style="normal" font-weight="normal" text-decoration="none" x="0" y="0">UNREGISTERED</text><text fill="#eeeeee" stroke="none" font-family="Arial" font-size="24px" font-style="normal" font-weight="normal" text-decoration="none" x="0" y="30">UNREGISTERED</text><text fill="#eeeeee" stroke="none" font-family="Arial" font-size="24px" font-style="normal" font-weight="normal" text-decoration="none" x="0" y="60">UNREGISTERED</text><text fill="#eeeeee" stroke="none" font-family="Arial" font-size="24px" font-style="normal" font-weight="normal" text-decoration="none" x="0" y="90">UNREGISTERED</text><text fill="#eeeeee" stroke="none" font-family="Arial" font-size="24px" font-style="normal" font-weight="normal" text-decoration="none" x="0" y="120">UNREGISTERED</text><text fill="#eeeeee" stroke="none" font-family="Arial" font-size="24px" font-style="normal" font-weight="normal" text-decoration="none" x="0" y="150">UNREGISTERED</text><text fill="#eeeeee" stroke="none" font-family="Arial" font-size="24px" font-style="normal" font-weight="normal" text-decoration="none" x="0" y="180">UNREGISTERED</text><text fill="#eeeeee" stroke="none" font-family="Arial" font-size="24px" font-style="normal" font-weight="normal" text-decoration="none" x="0" y="210">UNREGISTERED</text><text fill="#eeeeee" stroke="none" font-family="Arial" font-size="24px" font-style="normal" font-weight="normal" text-decoration="none" x="0" y="240">UNREGISTERED</text><text fill="#eeeeee" stroke="none" font-family="Arial" font-size="24px" font-style="normal" font-weight="normal" text-decoration="none" x="0" y="270">UNREGISTERED</text><text fill="#eeeeee" stroke="none" font-family="Arial" font-size="24px" font-style="normal" font-weight="normal" text-decoration="none" x="0" y="300">UNREGISTERED</text><text fill="#eeeeee" stroke="none" font-family="Arial" font-size="24px" font-style="normal" font-weight="normal" text-decoration="none" x="0" y="330">UNREGISTERED</text><text fill="#eeeeee" stroke="none" font-family="Arial" font-size="24px" font-style="normal" font-weight="normal" text-decoration="none" x="0" y="360">UNREGISTERED</text><text fill="#eeeeee" stroke="none" font-family="Arial" font-size="24px" font-style="normal" font-weight="normal" text-decoration="none" x="0" y="390">UNREGISTERED</text><text fill="#eeeeee" stroke="none" font-family="Arial" font-size="24px" font-style="normal" font-weight="normal" text-decoration="none" x="0" y="420">UNREGISTERED</text><text fill="#eeeeee" stroke="none" font-family="Arial" font-size="24px" font-style="normal" font-weight="normal" text-decoration="none" x="0" y="450">UNREGISTERED</text><text fill="#eeeeee" stroke="none" font-family="Arial" font-size="24px" font-style="normal" font-weight="normal" text-decoration="none" x="200" y="0">UNREGISTERED</text><text fill="#eeeeee" stroke="none" font-family="Arial" font-size="24px" font-style="normal" font-weight="normal" text-decoration="none" x="200" y="30">UNREGISTERED</text><text fill="#eeeeee" stroke="none" font-family="Arial" font-size="24px" font-style="normal" font-weight="normal" text-decoration="none" x="200" y="60">UNREGISTERED</text><text fill="#eeeeee" stroke="none" font-family="Arial" font-size="24px" font-style="normal" font-weight="normal" text-decoration="none" x="200" y="90">UNREGISTERED</text><text fill="#eeeeee" stroke="none" font-family="Arial" font-size="24px" font-style="normal" font-weight="normal" text-decoration="none" x="200" y="120">UNREGISTERED</text><text fill="#eeeeee" stroke="none" font-family="Arial" font-size="24px" font-style="normal" font-weight="normal" text-decoration="none" x="200" y="150">UNREGISTERED</text><text fill="#eeeeee" stroke="none" font-family="Arial" font-size="24px" font-style="normal" font-weight="normal" text-decoration="none" x="200" y="180">UNREGISTERED</text><text fill="#eeeeee" stroke="none" font-family="Arial" font-size="24px" font-style="normal" font-weight="normal" text-decoration="none" x="200" y="210">UNREGISTERED</text><text fill="#eeeeee" stroke="none" font-family="Arial" font-size="24px" font-style="normal" font-weight="normal" text-decoration="none" x="200" y="240">UNREGISTERED</text><text fill="#eeeeee" stroke="none" font-family="Arial" font-size="24px" font-style="normal" font-weight="normal" text-decoration="none" x="200" y="270">UNREGISTERED</text><text fill="#eeeeee" stroke="none" font-family="Arial" font-size="24px" font-style="normal" font-weight="normal" text-decoration="none" x="200" y="300">UNREGISTERED</text><text fill="#eeeeee" stroke="none" font-family="Arial" font-size="24px" font-style="normal" font-weight="normal" text-decoration="none" x="200" y="330">UNREGISTERED</text><text fill="#eeeeee" stroke="none" font-family="Arial" font-size="24px" font-style="normal" font-weight="normal" text-decoration="none" x="200" y="360">UNREGISTERED</text><text fill="#eeeeee" stroke="none" font-family="Arial" font-size="24px" font-style="normal" font-weight="normal" text-decoration="none" x="200" y="390">UNREGISTERED</text><text fill="#eeeeee" stroke="none" font-family="Arial" font-size="24px" font-style="normal" font-weight="normal" text-decoration="none" x="200" y="420">UNREGISTERED</text><text fill="#eeeeee" stroke="none" font-family="Arial" font-size="24px" font-style="normal" font-weight="normal" text-decoration="none" x="200" y="450">UNREGISTERED</text><text fill="#eeeeee" stroke="none" font-family="Arial" font-size="24px" font-style="normal" font-weight="normal" text-decoration="none" x="400" y="0">UNREGISTERED</text><text fill="#eeeeee" stroke="none" font-family="Arial" font-size="24px" font-style="normal" font-weight="normal" text-decoration="none" x="400" y="30">UNREGISTERED</text><text fill="#eeeeee" stroke="none" font-family="Arial" font-size="24px" font-style="normal" font-weight="normal" text-decoration="none" x="400" y="60">UNREGISTERED</text><text fill="#eeeeee" stroke="none" font-family="Arial" font-size="24px" font-style="normal" font-weight="normal" text-decoration="none" x="400" y="90">UNREGISTERED</text><text fill="#eeeeee" stroke="none" font-family="Arial" font-size="24px" font-style="normal" font-weight="normal" text-decoration="none" x="400" y="120">UNREGISTERED</text><text fill="#eeeeee" stroke="none" font-family="Arial" font-size="24px" font-style="normal" font-weight="normal" text-decoration="none" x="400" y="150">UNREGISTERED</text><text fill="#eeeeee" stroke="none" font-family="Arial" font-size="24px" font-style="normal" font-weight="normal" text-decoration="none" x="400" y="180">UNREGISTERED</text><text fill="#eeeeee" stroke="none" font-family="Arial" font-size="24px" font-style="normal" font-weight="normal" text-decoration="none" x="400" y="210">UNREGISTERED</text><text fill="#eeeeee" stroke="none" font-family="Arial" font-size="24px" font-style="normal" font-weight="normal" text-decoration="none" x="400" y="240">UNREGISTERED</text><text fill="#eeeeee" stroke="none" font-family="Arial" font-size="24px" font-style="normal" font-weight="normal" text-decoration="none" x="400" y="270">UNREGISTERED</text><text fill="#eeeeee" stroke="none" font-family="Arial" font-size="24px" font-style="normal" font-weight="normal" text-decoration="none" x="400" y="300">UNREGISTERED</text><text fill="#eeeeee" stroke="none" font-family="Arial" font-size="24px" font-style="normal" font-weight="normal" text-decoration="none" x="400" y="330">UNREGISTERED</text><text fill="#eeeeee" stroke="none" font-family="Arial" font-size="24px" font-style="normal" font-weight="normal" text-decoration="none" x="400" y="360">UNREGISTERED</text><text fill="#eeeeee" stroke="none" font-family="Arial" font-size="24px" font-style="normal" font-weight="normal" text-decoration="none" x="400" y="390">UNREGISTERED</text><text fill="#eeeeee" stroke="none" font-family="Arial" font-size="24px" font-style="normal" font-weight="normal" text-decoration="none" x="400" y="420">UNREGISTERED</text><text fill="#eeeeee" stroke="none" font-family="Arial" font-size="24px" font-style="normal" font-weight="normal" text-decoration="none" x="400" y="450">UNREGISTERED</text><g transform="translate(-6,2) scale(1,1)"><path fill="none" stroke="#000000" d="M 16 8 L 536 8 L 536 440 L 16 440 L 16 8" stroke-miterlimit="10"/></g><g transform="translate(-6,2) scale(1,1)"><path fill="#ffffff" stroke="none" d="M 16 8 L 16 30 L 165.681640625 30 L 176.681640625 19 L 176.681640625 8 L 16 8"/></g><g transform="translate(-6,2) scale(1,1)"><path fill="none" stroke="#000000" d="M 16 8 L 16 30 L 165.681640625 30 L 176.681640625 19 L 176.681640625 8 L 16 8 L 16 8" stroke-miterlimit="10"/></g><g transform="translate(-6,2) scale(1,1)"><g><path fill="none" stroke="none"/><text fill="#000000" stroke="none" font-family="Arial" font-size="13px" font-style="normal" font-weight="normal" text-decoration="none" x="51.55908203125" y="24">Serviço de entrega</text></g></g><g transform="translate(-6,2) scale(1,1)"><g><path fill="none" stroke="none"/><text fill="#000000" stroke="none" font-family="Arial" font-size="13px" font-style="normal" font-weight="bold" text-decoration="none" x="19.91455078125" y="22.5">cmp</text></g></g><g transform="translate(-6,2) scale(1,1)"><path fill="#ffffff" stroke="none" d="M 40 56 L 117 56 L 127 66 L 127 103 L 40 103 L 40 56"/></g><g transform="translate(-6,2) scale(1,1)"><path fill="none" stroke="#000000" d="M 40 56 L 117 56 L 127 66 L 127 103 L 40 103 L 40 56 L 40 56" stroke-miterlimit="10"/></g><g transform="translate(-6,2) scale(1,1)"><path fill="none" stroke="#000000" d="M 117 56 L 117 66 L 127 66 L 117 56" stroke-miterlimit="10"/></g><g transform="translate(-6,2) scale(1,1)"><g><path fill="none" stroke="none"/><text fill="#000000" stroke="none" font-family="Arial" font-size="13px" font-style="normal" font-weight="normal" text-decoration="none" x="45" y="71">Acessa o</text><text fill="#000000" stroke="none" font-family="Arial" font-size="13px" font-style="normal" font-weight="normal" text-decoration="none" x="45" y="84">sistema</text></g></g><g transform="translate(-6,2) scale(1,1)"><path fill="#ffffff" stroke="none" d="M 184 56 L 261 56 L 271 66 L 271 103 L 184 103 L 184 56"/></g><g transform="translate(-6,2) scale(1,1)"><path fill="none" stroke="#000000" d="M 184 56 L 261 56 L 271 66 L 271 103 L 184 103 L 184 56 L 184 56" stroke-miterlimit="10"/></g><g transform="translate(-6,2) scale(1,1)"><path fill="none" stroke="#000000" d="M 261 56 L 261 66 L 271 66 L 261 56" stroke-miterlimit="10"/></g><g transform="translate(-6,2) scale(1,1)"><g><path fill="none" stroke="none"/><text fill="#000000" stroke="none" font-family="Arial" font-size="13px" font-style="normal" font-weight="normal" text-decoration="none" x="189" y="71">Acessa o</text><text fill="#000000" stroke="none" font-family="Arial" font-size="13px" font-style="normal" font-weight="normal" text-decoration="none" x="189" y="84">pedido</text></g></g><g transform="translate(-6,2) scale(1,1)"><path fill="none" stroke="#000000" d="M 128 80 L 183 79" stroke-miterlimit="10"/></g><g transform="translate(-6,2) scale(1,1)"><path fill="#ffffff" stroke="none" d="M 328 56 L 405 56 L 415 66 L 415 103 L 328 103 L 328 56"/></g><g transform="translate(-6,2) scale(1,1)"><path fill="none" stroke="#000000" d="M 328 56 L 405 56 L 415 66 L 415 103 L 328 103 L 328 56 L 328 56" stroke-miterlimit="10"/></g><g transform="translate(-6,2) scale(1,1)"><path fill="none" stroke="#000000" d="M 405 56 L 405 66 L 415 66 L 405 56" stroke-miterlimit="10"/></g><g transform="translate(-6,2) scale(1,1)"><g><path fill="none" stroke="none"/><text fill="#000000" stroke="none" font-family="Arial" font-size="13px" font-style="normal" font-weight="normal" text-decoration="none" x="333" y="71">Escolhe o</text><text fill="#000000" stroke="none" font-family="Arial" font-size="13px" font-style="normal" font-weight="normal" text-decoration="none" x="333" y="84">serviço</text></g></g><g transform="translate(-6,2) scale(1,1)"><path fill="none" stroke="#000000" d="M 272 80 L 328 77" stroke-miterlimit="10"/></g><g transform="translate(-6,2) scale(1,1)"><rect fill="#C0C0C0" stroke="none" x="249" y="151" width="82.58447265625" height="44" opacity="0.2"/></g><g transform="translate(-6,2) scale(1,1)"><rect fill="#ffffff" stroke="none" x="242" y="144" width="82.58447265625" height="44"/></g><g transform="translate(-6,2) scale(1,1)"><path fill="none" stroke="#000000" d="M 242 144 L 324.58447265625 144 L 324.58447265625 188 L 242 188 L 242 144 Z Z" stroke-miterlimit="10"/></g><g transform="translate(-6,2) scale(1,1)"><rect fill="#ffffff" stroke="none" x="232" y="151" width="20" height="10"/></g><g transform="translate(-6,2) scale(1,1)"><path fill="none" stroke="#000000" d="M 232 151 L 252 151 L 252 161 L 232 161 L 232 151 Z Z" stroke-miterlimit="10"/></g><g transform="translate(-6,2) scale(1,1)"><rect fill="#ffffff" stroke="none" x="232" y="171" width="20" height="10"/></g><g transform="translate(-6,2) scale(1,1)"><path fill="none" stroke="#000000" d="M 232 171 L 252 171 L 252 181 L 232 181 L 232 171 Z Z" stroke-miterlimit="10"/></g><g transform="translate(-6,2) scale(1,1)"><g><path fill="none" stroke="none"/><text fill="#000000" stroke="none" font-family="Arial" font-size="13px" font-style="normal" font-weight="bold" text-decoration="none" x="264.091796875" y="162">Entrega</text><path fill="none" stroke="#000000" d="M 312.49267578125 163.5 L 264.091796875 163.5" stroke-miterlimit="10"/></g></g><g transform="translate(-6,2) scale(1,1)"><rect fill="#C0C0C0" stroke="none" x="425" y="151" width="86" height="44" opacity="0.2"/></g><g transform="translate(-6,2) scale(1,1)"><rect fill="#ffffff" stroke="none" x="418" y="144" width="86" height="44"/></g><g transform="translate(-6,2) scale(1,1)"><path fill="none" stroke="#000000" d="M 418 144 L 504 144 L 504 188 L 418 188 L 418 144 Z Z" stroke-miterlimit="10"/></g><g transform="translate(-6,2) scale(1,1)"><rect fill="#ffffff" stroke="none" x="408" y="151" width="20" height="10"/></g><g transform="translate(-6,2) scale(1,1)"><path fill="none" stroke="#000000" d="M 408 151 L 428 151 L 428 161 L 408 161 L 408 151 Z Z" stroke-miterlimit="10"/></g><g transform="translate(-6,2) scale(1,1)"><rect fill="#ffffff" stroke="none" x="408" y="171" width="20" height="10"/></g><g transform="translate(-6,2) scale(1,1)"><path fill="none" stroke="#000000" d="M 408 171 L 428 171 L 428 181 L 408 181 L 408 171 Z Z" stroke-miterlimit="10"/></g><g transform="translate(-6,2) scale(1,1)"><g><path fill="none" stroke="none"/><text fill="#000000" stroke="none" font-family="Arial" font-size="13px" font-style="normal" font-weight="bold" text-decoration="none" x="434.207763671875" y="162">Instalação</text><path fill="none" stroke="#000000" d="M 497.792236328125 163.5 L 434.207763671875 163.5" stroke-miterlimit="10"/></g></g><g transform="translate(-6,2) scale(1,1)"><path fill="#ffffff" stroke="none" d="M 320 256 L 397 256 L 407 266 L 407 303 L 320 303 L 320 256"/></g><g transform="translate(-6,2) scale(1,1)"><path fill="none" stroke="#000000" d="M 320 256 L 397 256 L 407 266 L 407 303 L 320 303 L 320 256 L 320 256" stroke-miterlimit="10"/></g><g transform="translate(-6,2) scale(1,1)"><path fill="none" stroke="#000000" d="M 397 256 L 397 266 L 407 266 L 397 256" stroke-miterlimit="10"/></g><g transform="translate(-6,2) scale(1,1)"><g><path fill="none" stroke="none"/><text fill="#000000" stroke="none" font-family="Arial" font-size="13px" font-style="normal" font-weight="normal" text-decoration="none" x="325" y="271">Preencher</text><text fill="#000000" stroke="none" font-family="Arial" font-size="13px" font-style="normal" font-weight="normal" text-decoration="none" x="325" y="284">endereço</text></g></g><g transform="translate(-6,2) scale(1,1)"><path fill="none" stroke="#000000" d="M 288 184 L 354 256" stroke-miterlimit="10"/></g><g transform="translate(-6,2) scale(1,1)"><path fill="#ffffff" stroke="none" d="M 320 360 L 397 360 L 407 370 L 407 409 L 320 409 L 320 360"/></g><g transform="translate(-6,2) scale(1,1)"><path fill="none" stroke="#000000" d="M 320 360 L 397 360 L 407 370 L 407 409 L 320 409 L 320 360 L 320 360" stroke-miterlimit="10"/></g><g transform="translate(-6,2) scale(1,1)"><path fill="none" stroke="#000000" d="M 397 360 L 397 370 L 407 370 L 397 360" stroke-miterlimit="10"/></g><g transform="translate(-6,2) scale(1,1)"><g><path fill="none" stroke="none"/><text fill="#000000" stroke="none" font-family="Arial" font-size="13px" font-style="normal" font-weight="normal" text-decoration="none" x="325" y="375">Seguir com o</text><text fill="#000000" stroke="none" font-family="Arial" font-size="13px" font-style="normal" font-weight="normal" text-decoration="none" x="325" y="387">pagamento</text></g></g><g transform="translate(-6,2) scale(1,1)"><path fill="none" stroke="#000000" d="M 360 296 L 360 357" stroke-miterlimit="10"/></g><g transform="translate(-6,2) scale(1,1)"><path fill="none" stroke="#000000" d="M 360 96 L 286 142" stroke-miterlimit="10"/></g><g transform="translate(-6,2) scale(1,1)"><path fill="none" stroke="#000000" d="M 384 255 L 437 189" stroke-miterlimit="10" stroke-dasharray="3"/></g><g transform="translate(-6,2) scale(1,1)"><path fill="none" stroke="#000000" d="M 434 143 L 396 105" stroke-miterlimit="10" stroke-dasharray="3"/></g></g></svg>