<svg version="1.1" xmlns="http://www.w3.org/2000/svg" xmlns:xlink="http://www.w3.org/1999/xlink" width="733" height="700"><defs/><g><text fill="#eeeeee" stroke="none" font-family="Arial" font-size="24px" font-style="normal" font-weight="normal" text-decoration="none" x="0" y="0">UNREGISTERED</text><text fill="#eeeeee" stroke="none" font-family="Arial" font-size="24px" font-style="normal" font-weight="normal" text-decoration="none" x="0" y="30">UNREGISTERED</text><text fill="#eeeeee" stroke="none" font-family="Arial" font-size="24px" font-style="normal" font-weight="normal" text-decoration="none" x="0" y="60">UNREGISTERED</text><text fill="#eeeeee" stroke="none" font-family="Arial" font-size="24px" font-style="normal" font-weight="normal" text-decoration="none" x="0" y="90">UNREGISTERED</text><text fill="#eeeeee" stroke="none" font-family="Arial" font-size="24px" font-style="normal" font-weight="normal" text-decoration="none" x="0" y="120">UNREGISTERED</text><text fill="#eeeeee" stroke="none" font-family="Arial" font-size="24px" font-style="normal" font-weight="normal" text-decoration="none" x="0" y="150">UNREGISTERED</text><text fill="#eeeeee" stroke="none" font-family="Arial" font-size="24px" font-style="normal" font-weight="normal" text-decoration="none" x="0" y="180">UNREGISTERED</text><text fill="#eeeeee" stroke="none" font-family="Arial" font-size="24px" font-style="normal" font-weight="normal" text-decoration="none" x="0" y="210">UNREGISTERED</text><text fill="#eeeeee" stroke="none" font-family="Arial" font-size="24px" font-style="normal" font-weight="normal" text-decoration="none" x="0" y="240">UNREGISTERED</text><text fill="#eeeeee" stroke="none" font-family="Arial" font-size="24px" font-style="normal" font-weight="normal" text-decoration="none" x="0" y="270">UNREGISTERED</text><text fill="#eeeeee" stroke="none" font-family="Arial" font-size="24px" font-style="normal" font-weight="normal" text-decoration="none" x="0" y="300">UNREGISTERED</text><text fill="#eeeeee" stroke="none" font-family="Arial" font-size="24px" font-style="normal" font-weight="normal" text-decoration="none" x="0" y="330">UNREGISTERED</text><text fill="#eeeeee" stroke="none" font-family="Arial" font-size="24px" font-style="normal" font-weight="normal" text-decoration="none" x="0" y="360">UNREGISTERED</text><text fill="#eeeeee" stroke="none" font-family="Arial" font-size="24px" font-style="normal" font-weight="normal" text-decoration="none" x="0" y="390">UNREGISTERED</text><text fill="#eeeeee" stroke="none" font-family="Arial" font-size="24px" font-style="normal" font-weight="normal" text-decoration="none" x="0" y="420">UNREGISTERED</text><text fill="#eeeeee" stroke="none" font-family="Arial" font-size="24px" font-style="normal" font-weight="normal" text-decoration="none" x="0" y="450">UNREGISTERED</text><text fill="#eeeeee" stroke="none" font-family="Arial" font-size="24px" font-style="normal" font-weight="normal" text-decoration="none" x="0" y="480">UNREGISTERED</text><text fill="#eeeeee" stroke="none" font-family="Arial" font-size="24px" font-style="normal" font-weight="normal" text-decoration="none" x="0" y="510">UNREGISTERED</text><text fill="#eeeeee" stroke="none" font-family="Arial" font-size="24px" font-style="normal" font-weight="normal" text-decoration="none" x="0" y="540">UNREGISTERED</text><text fill="#eeeeee" stroke="none" font-family="Arial" font-size="24px" font-style="normal" font-weight="normal" text-decoration="none" x="0" y="570">UNREGISTERED</text><text fill="#eeeeee" stroke="none" font-family="Arial" font-size="24px" font-style="normal" font-weight="normal" text-decoration="none" x="0" y="600">UNREGISTERED</text><text fill="#eeeeee" stroke="none" font-family="Arial" font-size="24px" font-style="normal" font-weight="normal" text-decoration="none" x="0" y="630">UNREGISTERED</text><text fill="#eeeeee" stroke="none" font-family="Arial" font-size="24px" font-style="normal" font-weight="normal" text-decoration="none" x="0" y="660">UNREGISTERED</text><text fill="#eeeeee" stroke="none" font-family="Arial" font-size="24px" font-style="normal" font-weight="normal" text-decoration="none" x="0" y="690">UNREGISTERED</text><text fill="#eeeeee" stroke="none" font-family="Arial" font-size="24px" font-style="normal" font-weight="normal" text-decoration="none" x="200" y="0">UNREGISTERED</text><text fill="#eeeeee" stroke="none" font-family="Arial" font-size="24px" font-style="normal" font-weight="normal" text-decoration="none" x="200" y="30">UNREGISTERED</text><text fill="#eeeeee" stroke="none" font-family="Arial" font-size="24px" font-style="normal" font-weight="normal" text-decoration="none" x="200" y="60">UNREGISTERED</text><text fill="#eeeeee" stroke="none" font-family="Arial" font-size="24px" font-style="normal" font-weight="normal" text-decoration="none" x="200" y="90">UNREGISTERED</text><text fill="#eeeeee" stroke="none" font-family="Arial" font-size="24px" font-style="normal" font-weight="normal" text-decoration="none" x="200" y="120">UNREGISTERED</text><text fill="#eeeeee" stroke="none" font-family="Arial" font-size="24px" font-style="normal" font-weight="normal" text-decoration="none" x="200" y="150">UNREGISTERED</text><text fill="#eeeeee" stroke="none" font-family="Arial" font-size="24px" font-style="normal" font-weight="normal" text-decoration="none" x="200" y="180">UNREGISTERED</text><text fill="#eeeeee" stroke="none" font-family="Arial" font-size="24px" font-style="normal" font-weight="normal" text-decoration="none" x="200" y="210">UNREGISTERED</text><text fill="#eeeeee" stroke="none" font-family="Arial" font-size="24px" font-style="normal" font-weight="normal" text-decoration="none" x="200" y="240">UNREGISTERED</text><text fill="#eeeeee" stroke="none" font-family="Arial" font-size="24px" font-style="normal" font-weight="normal" text-decoration="none" x="200" y="270">UNREGISTERED</text><text fill="#eeeeee" stroke="none" font-family="Arial" font-size="24px" font-style="normal" font-weight="normal" text-decoration="none" x="200" y="300">UNREGISTERED</text><text fill="#eeeeee" stroke="none" font-family="Arial" font-size="24px" font-style="normal" font-weight="normal" text-decoration="none" x="200" y="330">UNREGISTERED</text><text fill="#eeeeee" stroke="none" font-family="Arial" font-size="24px" font-style="normal" font-weight="normal" text-decoration="none" x="200" y="360">UNREGISTERED</text><text fill="#eeeeee" stroke="none" font-family="Arial" font-size="24px" font-style="normal" font-weight="normal" text-decoration="none" x="200" y="390">UNREGISTERED</text><text fill="#eeeeee" stroke="none" font-family="Arial" font-size="24px" font-style="normal" font-weight="normal" text-decoration="none" x="200" y="420">UNREGISTERED</text><text fill="#eeeeee" stroke="none" font-family="Arial" font-size="24px" font-style="normal" font-weight="normal" text-decoration="none" x="200" y="450">UNREGISTERED</text><text fill="#eeeeee" stroke="none" font-family="Arial" font-size="24px" font-style="normal" font-weight="normal" text-decoration="none" x="200" y="480">UNREGISTERED</text><text fill="#eeeeee" stroke="none" font-family="Arial" font-size="24px" font-style="normal" font-weight="normal" text-decoration="none" x="200" y="510">UNREGISTERED</text><text fill="#eeeeee" stroke="none" font-family="Arial" font-size="24px" font-style="normal" font-weight="normal" text-decoration="none" x="200" y="540">UNREGISTERED</text><text fill="#eeeeee" stroke="none" font-family="Arial" font-size="24px" font-style="normal" font-weight="normal" text-decoration="none" x="200" y="570">UNREGISTERED</text><text fill="#eeeeee" stroke="none" font-family="Arial" font-size="24px" font-style="normal" font-weight="normal" text-decoration="none" x="200" y="600">UNREGISTERED</text><text fill="#eeeeee" stroke="none" font-family="Arial" font-size="24px" font-style="normal" font-weight="normal" text-decoration="none" x="200" y="630">UNREGISTERED</text><text fill="#eeeeee" stroke="none" font-family="Arial" font-size="24px" font-style="normal" font-weight="normal" text-decoration="none" x="200" y="660">UNREGISTERED</text><text fill="#eeeeee" stroke="none" font-family="Arial" font-size="24px" font-style="normal" font-weight="normal" text-decoration="none" x="200" y="690">UNREGISTERED</text><text fill="#eeeeee" stroke="none" font-family="Arial" font-size="24px" font-style="normal" font-weight="normal" text-decoration="none" x="400" y="0">UNREGISTERED</text><text fill="#eeeeee" stroke="none" font-family="Arial" font-size="24px" font-style="normal" font-weight="normal" text-decoration="none" x="400" y="30">UNREGISTERED</text><text fill="#eeeeee" stroke="none" font-family="Arial" font-size="24px" font-style="normal" font-weight="normal" text-decoration="none" x="400" y="60">UNREGISTERED</text><text fill="#eeeeee" stroke="none" font-family="Arial" font-size="24px" font-style="normal" font-weight="normal" text-decoration="none" x="400" y="90">UNREGISTERED</text><text fill="#eeeeee" stroke="none" font-family="Arial" font-size="24px" font-style="normal" font-weight="normal" text-decoration="none" x="400" y="120">UNREGISTERED</text><text fill="#eeeeee" stroke="none" font-family="Arial" font-size="24px" font-style="normal" font-weight="normal" text-decoration="none" x="400" y="150">UNREGISTERED</text><text fill="#eeeeee" stroke="none" font-family="Arial" font-size="24px" font-style="normal" font-weight="normal" text-decoration="none" x="400" y="180">UNREGISTERED</text><text fill="#eeeeee" stroke="none" font-family="Arial" font-size="24px" font-style="normal" font-weight="normal" text-decoration="none" x="400" y="210">UNREGISTERED</text><text fill="#eeeeee" stroke="none" font-family="Arial" font-size="24px" font-style="normal" font-weight="normal" text-decoration="none" x="400" y="240">UNREGISTERED</text><text fill="#eeeeee" stroke="none" font-family="Arial" font-size="24px" font-style="normal" font-weight="normal" text-decoration="none" x="400" y="270">UNREGISTERED</text><text fill="#eeeeee" stroke="none" font-family="Arial" font-size="24px" font-style="normal" font-weight="normal" text-decoration="none" x="400" y="300">UNREGISTERED</text><text fill="#eeeeee" stroke="none" font-family="Arial" font-size="24px" font-style="normal" font-weight="normal" text-decoration="none" x="400" y="330">UNREGISTERED</text><text fill="#eeeeee" stroke="none" font-family="Arial" font-size="24px" font-style="normal" font-weight="normal" text-decoration="none" x="400" y="360">UNREGISTERED</text><text fill="#eeeeee" stroke="none" font-family="Arial" font-size="24px" font-style="normal" font-weight="normal" text-decoration="none" x="400" y="390">UNREGISTERED</text><text fill="#eeeeee" stroke="none" font-family="Arial" font-size="24px" font-style="normal" font-weight="normal" text-decoration="none" x="400" y="420">UNREGISTERED</text><text fill="#eeeeee" stroke="none" font-family="Arial" font-size="24px" font-style="normal" font-weight="normal" text-decoration="none" x="400" y="450">UNREGISTERED</text><text fill="#eeeeee" stroke="none" font-family="Arial" font-size="24px" font-style="normal" font-weight="normal" text-decoration="none" x="400" y="480">UNREGISTERED</text><text fill="#eeeeee" stroke="none" font-family="Arial" font-size="24px" font-style="normal" font-weight="normal" text-decoration="none" x="400" y="510">UNREGISTERED</text><text fill="#eeeeee" stroke="none" font-family="Arial" font-size="24px" font-style="normal" font-weight="normal" text-decoration="none" x="400" y="540">UNREGISTERED</text><text fill="#eeeeee" stroke="none" font-family="Arial" font-size="24px" font-style="normal" font-weight="normal" text-decoration="none" x="400" y="570">UNREGISTERED</text><text fill="#eeeeee" stroke="none" font-family="Arial" font-size="24px" font-style="normal" font-weight="normal" text-decoration="none" x="400" y="600">UNREGISTERED</text><text fill="#eeeeee" stroke="none" font-family="Arial" font-size="24px" font-style="normal" font-weight="normal" text-decoration="none" x="400" y="630">UNREGISTERED</text><text fill="#eeeeee" stroke="none" font-family="Arial" font-size="24px" font-style="normal" font-weight="normal" text-decoration="none" x="400" y="660">UNREGISTERED</text><text fill="#eeeeee" stroke="none" font-family="Arial" font-size="24px" font-style="normal" font-weight="normal" text-decoration="none" x="400" y="690">UNREGISTERED</text><text fill="#eeeeee" stroke="none" font-family="Arial" font-size="24px" font-style="normal" font-weight="normal" text-decoration="none" x="600" y="0">UNREGISTERED</text><text fill="#eeeeee" stroke="none" font-family="Arial" font-size="24px" font-style="normal" font-weight="normal" text-decoration="none" x="600" y="30">UNREGISTERED</text><text fill="#eeeeee" stroke="none" font-family="Arial" font-size="24px" font-style="normal" font-weight="normal" text-decoration="none" x="600" y="60">UNREGISTERED</text><text fill="#eeeeee" stroke="none" font-family="Arial" font-size="24px" font-style="normal" font-weight="normal" text-decoration="none" x="600" y="90">UNREGISTERED</text><text fill="#eeeeee" stroke="none" font-family="Arial" font-size="24px" font-style="normal" font-weight="normal" text-decoration="none" x="600" y="120">UNREGISTERED</text><text fill="#eeeeee" stroke="none" font-family="Arial" font-size="24px" font-style="normal" font-weight="normal" text-decoration="none" x="600" y="150">UNREGISTERED</text><text fill="#eeeeee" stroke="none" font-family="Arial" font-size="24px" font-style="normal" font-weight="normal" text-decoration="none" x="600" y="180">UNREGISTERED</text><text fill="#eeeeee" stroke="none" font-family="Arial" font-size="24px" font-style="normal" font-weight="normal" text-decoration="none" x="600" y="210">UNREGISTERED</text><text fill="#eeeeee" stroke="none" font-family="Arial" font-size="24px" font-style="normal" font-weight="normal" text-decoration="none" x="600" y="240">UNREGISTERED</text><text fill="#eeeeee" stroke="none" font-family="Arial" font-size="24px" font-style="normal" font-weight="normal" text-decoration="none" x="600" y="270">UNREGISTERED</text><text fill="#eeeeee" stroke="none" font-family="Arial" font-size="24px" font-style="normal" font-weight="normal" text-decoration="none" x="600" y="300">UNREGISTERED</text><text fill="#eeeeee" stroke="none" font-family="Arial" font-size="24px" font-style="normal" font-weight="normal" text-decoration="none" x="600" y="330">UNREGISTERED</text><text fill="#eeeeee" stroke="none" font-family="Arial" font-size="24px" font-style="normal" font-weight="normal" text-decoration="none" x="600" y="360">UNREGISTERED</text><text fill="#eeeeee" stroke="none" font-family="Arial" font-size="24px" font-style="normal" font-weight="normal" text-decoration="none" x="600" y="390">UNREGISTERED</text><text fill="#eeeeee" stroke="none" font-family="Arial" font-size="24px" font-style="normal" font-weight="normal" text-decoration="none" x="600" y="420">UNREGISTERED</text><text fill="#eeeeee" stroke="none" font-family="Arial" font-size="24px" font-style="normal" font-weight="normal" text-decoration="none" x="600" y="450">UNREGISTERED</text><text fill="#eeeeee" stroke="none" font-family="Arial" font-size="24px" font-style="normal" font-weight="normal" text-decoration="none" x="600" y="480">UNREGISTERED</text><text fill="#eeeeee" stroke="none" font-family="Arial" font-size="24px" font-style="normal" font-weight="normal" text-decoration="none" x="600" y="510">UNREGISTERED</text><text fill="#eeeeee" stroke="none" font-family="Arial" font-size="24px" font-style="normal" font-weight="normal" text-decoration="none" x="600" y="540">UNREGISTERED</text><text fill="#eeeeee" stroke="none" font-family="Arial" font-size="24px" font-style="normal" font-weight="normal" text-decoration="none" x="600" y="570">UNREGISTERED</text><text fill="#eeeeee" stroke="none" font-family="Arial" font-size="24px" font-style="normal" font-weight="normal" text-decoration="none" x="600" y="600">UNREGISTERED</text><text fill="#eeeeee" stroke="none" font-family="Arial" font-size="24px" font-style="normal" font-weight="normal" text-decoration="none" x="600" y="630">UNREGISTERED</text><text fill="#eeeeee" stroke="none" font-family="Arial" font-size="24px" font-style="normal" font-weight="normal" text-decoration="none" x="600" y="660">UNREGISTERED</text><text fill="#eeeeee" stroke="none" font-family="Arial" font-size="24px" font-style="normal" font-weight="normal" text-decoration="none" x="600" y="690">UNREGISTERED</text><g transform="translate(-38,-54) scale(1,1)"><rect fill="#C0C0C0" stroke="none" x="55" y="71" width="88" height="48" opacity="0.2"/></g><g transform="translate(-38,-54) scale(1,1)"><rect fill="#ffffff" stroke="none" x="48" y="64" width="88" height="48"/></g><g transform="translate(-38,-54) scale(1,1)"><path fill="none" stroke="#000000" d="M 48 64 L 136 64 L 136 112 L 48 112 L 48 64 Z Z" stroke-miterlimit="10"/></g><g transform="translate(-38,-54) scale(1,1)"><rect fill="#ffffff" stroke="none" x="48" y="64" width="88" height="48"/></g><g transform="translate(-38,-54) scale(1,1)"><path fill="none" stroke="#000000" d="M 48 64 L 136 64 L 136 112 L 48 112 L 48 64 Z Z" stroke-miterlimit="10"/></g><g transform="translate(-38,-54) scale(1,1)"><g><path fill="none" stroke="none"/><text fill="#000000" stroke="none" font-family="Arial" font-size="13px" font-style="normal" font-weight="bold" text-decoration="none" x="70.3291015625" y="82">Cliente</text><path fill="none" stroke="#000000" d="M 113.6708984375 83.5 L 70.3291015625 83.5" stroke-miterlimit="10"/></g></g><g transform="translate(-38,-54) scale(1,1)"><rect fill="#C0C0C0" stroke="none" x="223" y="71" width="88" height="48" opacity="0.2"/></g><g transform="translate(-38,-54) scale(1,1)"><rect fill="#ffffff" stroke="none" x="216" y="64" width="88" height="48"/></g><g transform="translate(-38,-54) scale(1,1)"><path fill="none" stroke="#000000" d="M 216 64 L 304 64 L 304 112 L 216 112 L 216 64 Z Z" stroke-miterlimit="10"/></g><g transform="translate(-38,-54) scale(1,1)"><rect fill="#ffffff" stroke="none" x="216" y="64" width="88" height="48"/></g><g transform="translate(-38,-54) scale(1,1)"><path fill="none" stroke="#000000" d="M 216 64 L 304 64 L 304 112 L 216 112 L 216 64 Z Z" stroke-miterlimit="10"/></g><g transform="translate(-38,-54) scale(1,1)"><g><path fill="none" stroke="none"/><text fill="#000000" stroke="none" font-family="Arial" font-size="13px" font-style="normal" font-weight="bold" text-decoration="none" x="230.140625" y="82">Tireguard</text><path fill="none" stroke="#000000" d="M 289.859375 83.5 L 230.140625 83.5" stroke-miterlimit="10"/></g></g><g transform="translate(-38,-54) scale(1,1)"><rect fill="#C0C0C0" stroke="none" x="439" y="71" width="89.1708984375" height="48" opacity="0.2"/></g><g transform="translate(-38,-54) scale(1,1)"><rect fill="#ffffff" stroke="none" x="432" y="64" width="89.1708984375" height="48"/></g><g transform="translate(-38,-54) scale(1,1)"><path fill="none" stroke="#000000" d="M 432 64 L 521.1708984375 64 L 521.1708984375 112 L 432 112 L 432 64 Z Z" stroke-miterlimit="10"/></g><g transform="translate(-38,-54) scale(1,1)"><rect fill="#ffffff" stroke="none" x="432" y="64" width="89.1708984375" height="48"/></g><g transform="translate(-38,-54) scale(1,1)"><path fill="none" stroke="#000000" d="M 432 64 L 521.1708984375 64 L 521.1708984375 112 L 432 112 L 432 64 Z Z" stroke-miterlimit="10"/></g><g transform="translate(-38,-54) scale(1,1)"><g><path fill="none" stroke="none"/><text fill="#000000" stroke="none" font-family="Arial" font-size="13px" font-style="normal" font-weight="bold" text-decoration="none" x="451.655029296875" y="82">Sistema</text><path fill="none" stroke="#000000" d="M 501.515869140625 83.5 L 451.655029296875 83.5" stroke-miterlimit="10"/></g></g><g transform="translate(-38,-54) scale(1,1)"><rect fill="#C0C0C0" stroke="none" x="79" y="119" width="14.5126953125" height="632" opacity="0.2"/></g><g transform="translate(-38,-54) scale(1,1)"><rect fill="#ffffff" stroke="none" x="72" y="112" width="14.5126953125" height="632"/></g><g transform="translate(-38,-54) scale(1,1)"><path fill="none" stroke="#000000" d="M 72 112 L 86.5126953125 112 L 86.5126953125 744 L 72 744 L 72 112 Z Z" stroke-miterlimit="10"/></g><g transform="translate(-38,-54) scale(1,1)"><rect fill="#ffffff" stroke="none" x="72" y="112" width="14.5126953125" height="632"/></g><g transform="translate(-38,-54) scale(1,1)"><path fill="none" stroke="#000000" d="M 72 112 L 86.5126953125 112 L 86.5126953125 744 L 72 744 L 72 112 Z Z" stroke-miterlimit="10"/></g><g transform="translate(-38,-54) scale(1,1)"><g><path fill="none" stroke="none"/><text fill="#000000" stroke="none" font-family="Arial" font-size="13px" font-style="normal" font-weight="bold" text-decoration="none" x="79.25634765625" y="125"></text><path fill="none" stroke="#000000" d="M 79.25634765625 131.5 L 79.25634765625 131.5" stroke-miterlimit="10"/></g></g><g transform="translate(-38,-54) scale(1,1)"><rect fill="#C0C0C0" stroke="none" x="255" y="127" width="16" height="616" opacity="0.2"/></g><g transform="translate(-38,-54) scale(1,1)"><rect fill="#ffffff" stroke="none" x="248" y="120" width="16" height="616"/></g><g transform="translate(-38,-54) scale(1,1)"><path fill="none" stroke="#000000" d="M 248 120 L 264 120 L 264 736 L 248 736 L 248 120 Z Z" stroke-miterlimit="10"/></g><g transform="translate(-38,-54) scale(1,1)"><rect fill="#ffffff" stroke="none" x="248" y="120" width="16" height="616"/></g><g transform="translate(-38,-54) scale(1,1)"><path fill="none" stroke="#000000" d="M 248 120 L 264 120 L 264 736 L 248 736 L 248 120 Z Z" stroke-miterlimit="10"/></g><g transform="translate(-38,-54) scale(1,1)"><g><path fill="none" stroke="none"/><text fill="#000000" stroke="none" font-family="Arial" font-size="13px" font-style="normal" font-weight="bold" text-decoration="none" x="256" y="133"></text><path fill="none" stroke="#000000" d="M 256 139.5 L 256 139.5" stroke-miterlimit="10"/></g></g><g transform="translate(-38,-54) scale(1,1)"><path fill="none" stroke="#000000" d="M 88 136 L 248 136" stroke-miterlimit="10"/></g><g transform="translate(-38,-54) scale(1,1)"><path fill="#000000" stroke="none" d="M 237.83732514237585 140.209517756016 L 248 136 L 237.83732514237585 131.790482243984"/></g><g transform="translate(-38,-54) scale(1,1)"><path fill="none" stroke="#000000" d="M 237.83732514237585 140.209517756016 L 248 136 L 237.83732514237585 131.790482243984 L 237.83732514237585 140.209517756016" stroke-miterlimit="10"/></g><g transform="translate(-38,-54) scale(1,1)"><path fill="none" stroke="#000000" d="M 240 256 L 96 256" stroke-miterlimit="10" stroke-dasharray="6,4"/></g><g transform="translate(-38,-54) scale(1,1)"><path fill="#000000" stroke="none" d="M 106.16267485762415 251.790482243984 L 96 256 L 106.16267485762415 260.209517756016"/></g><g transform="translate(-38,-54) scale(1,1)"><path fill="none" stroke="#000000" d="M 106.16267485762415 251.790482243984 L 96 256 L 106.16267485762415 260.209517756016 L 106.16267485762415 251.790482243984" stroke-miterlimit="10"/></g><g transform="translate(-38,-54) scale(1,1)"><path fill="none" stroke="#000000" d="M 248 336 L 88 336" stroke-miterlimit="10" stroke-dasharray="6,4"/></g><g transform="translate(-38,-54) scale(1,1)"><path fill="#000000" stroke="none" d="M 98.16267485762415 331.790482243984 L 88 336 L 98.16267485762415 340.209517756016"/></g><g transform="translate(-38,-54) scale(1,1)"><path fill="none" stroke="#000000" d="M 98.16267485762415 331.790482243984 L 88 336 L 98.16267485762415 340.209517756016 L 98.16267485762415 331.790482243984" stroke-miterlimit="10"/></g><g transform="translate(-38,-54) scale(1,1)"><g><path fill="none" stroke="none"/><text fill="#000000" stroke="none" font-family="Arial" font-size="13px" font-style="normal" font-weight="normal" text-decoration="none" x="117" y="159">Preenche</text><text fill="#000000" stroke="none" font-family="Arial" font-size="13px" font-style="normal" font-weight="normal" text-decoration="none" x="117" y="172">formulário</text></g></g><g transform="translate(-38,-54) scale(1,1)"><g><path fill="none" stroke="none"/><text fill="#000000" stroke="none" font-family="Arial" font-size="13px" font-style="normal" font-weight="normal" text-decoration="none" x="117" y="279">respostaForm: bool</text></g></g><g transform="translate(-38,-54) scale(1,1)"><g><path fill="none" stroke="none"/><text fill="#000000" stroke="none" font-family="Arial" font-size="13px" font-style="normal" font-weight="normal" text-decoration="none" x="125" y="359">Solicitação</text><text fill="#000000" stroke="none" font-family="Arial" font-size="13px" font-style="normal" font-weight="normal" text-decoration="none" x="125" y="372">negada</text></g></g><g transform="translate(-38,-54) scale(1,1)"><path fill="none" stroke="#000000" d="M 264 136 L 440 136" stroke-miterlimit="10"/></g><g transform="translate(-38,-54) scale(1,1)"><path fill="#000000" stroke="none" d="M 429.83732514237585 140.209517756016 L 440 136 L 429.83732514237585 131.790482243984"/></g><g transform="translate(-38,-54) scale(1,1)"><path fill="none" stroke="#000000" d="M 429.83732514237585 140.209517756016 L 440 136 L 429.83732514237585 131.790482243984 L 429.83732514237585 140.209517756016" stroke-miterlimit="10"/></g><g transform="translate(-38,-54) scale(1,1)"><g><path fill="none" stroke="none"/><text fill="#000000" stroke="none" font-family="Arial" font-size="13px" font-style="normal" font-weight="normal" text-decoration="none" x="285" y="151">Envia formulário para</text><text fill="#000000" stroke="none" font-family="Arial" font-size="13px" font-style="normal" font-weight="normal" text-decoration="none" x="285" y="164">análise</text></g></g><g transform="translate(-38,-54) scale(1,1)"><path fill="none" stroke="#000000" d="M 448 208 L 265 208" stroke-miterlimit="10" stroke-dasharray="6,4"/></g><g transform="translate(-38,-54) scale(1,1)"><path fill="#000000" stroke="none" d="M 275.16267485762415 203.790482243984 L 265 208 L 275.16267485762415 212.209517756016"/></g><g transform="translate(-38,-54) scale(1,1)"><path fill="none" stroke="#000000" d="M 275.16267485762415 203.790482243984 L 265 208 L 275.16267485762415 212.209517756016 L 275.16267485762415 203.790482243984" stroke-miterlimit="10"/></g><g transform="translate(-38,-54) scale(1,1)"><g><path fill="none" stroke="none"/><text fill="#000000" stroke="none" font-family="Arial" font-size="13px" font-style="normal" font-weight="normal" text-decoration="none" x="301" y="231">Devolve análise</text></g></g><g transform="translate(-38,-54) scale(1,1)"><rect fill="#ffffff" stroke="none" x="272" y="280" width="184" height="128"/></g><g transform="translate(-38,-54) scale(1,1)"><path fill="none" stroke="#000000" d="M 272 280 L 456 280 L 456 408 L 272 408 L 272 280 Z Z" stroke-miterlimit="10"/></g><g transform="translate(-38,-54) scale(1,1)"><rect fill="#ffffff" stroke="none" x="464" y="120" width="16" height="103"/></g><g transform="translate(-38,-54) scale(1,1)"><path fill="none" stroke="#000000" d="M 464 120 L 480 120 L 480 223 L 464 223 L 464 120 Z Z" stroke-miterlimit="10"/></g><g transform="translate(-38,-54) scale(1,1)"><g><path fill="none" stroke="none"/><text fill="#000000" stroke="none" font-family="Arial" font-size="13px" font-style="normal" font-weight="normal" text-decoration="none" x="277" y="295">respostaForm</text></g></g><g transform="translate(-38,-54) scale(1,1)"><g><path fill="none" stroke="none"/><text fill="#000000" stroke="none" font-family="Arial" font-size="13px" font-style="normal" font-weight="normal" text-decoration="none" x="277" y="327">if (respostaForma = false)</text></g></g><g transform="translate(-38,-54) scale(1,1)"><g><path fill="none" stroke="none"/><text fill="#000000" stroke="none" font-family="Arial" font-size="13px" font-style="normal" font-weight="normal" text-decoration="none" x="277" y="399">else</text></g></g><g transform="translate(-38,-54) scale(1,1)"><path fill="none" stroke="#000000" d="M 248 392 L 87 392" stroke-miterlimit="10" stroke-dasharray="6,4"/></g><g transform="translate(-38,-54) scale(1,1)"><path fill="#000000" stroke="none" d="M 97.16267485762415 387.790482243984 L 87 392 L 97.16267485762415 396.209517756016"/></g><g transform="translate(-38,-54) scale(1,1)"><path fill="none" stroke="#000000" d="M 97.16267485762415 387.790482243984 L 87 392 L 97.16267485762415 396.209517756016 L 97.16267485762415 387.790482243984" stroke-miterlimit="10"/></g><g transform="translate(-38,-54) scale(1,1)"><g><path fill="none" stroke="none"/><text fill="#000000" stroke="none" font-family="Arial" font-size="13px" font-style="normal" font-weight="normal" text-decoration="none" x="101" y="415">Solicita o envio do</text><text fill="#000000" stroke="none" font-family="Arial" font-size="13px" font-style="normal" font-weight="normal" text-decoration="none" x="101" y="428">produto</text></g></g><g transform="translate(-38,-54) scale(1,1)"><path fill="none" stroke="#000000" d="M 88 472 L 456 472" stroke-miterlimit="10"/></g><g transform="translate(-38,-54) scale(1,1)"><path fill="#000000" stroke="none" d="M 445.83732514237585 476.209517756016 L 456 472 L 445.83732514237585 467.790482243984"/></g><g transform="translate(-38,-54) scale(1,1)"><path fill="none" stroke="#000000" d="M 445.83732514237585 476.209517756016 L 456 472 L 445.83732514237585 467.790482243984 L 445.83732514237585 476.209517756016" stroke-miterlimit="10"/></g><g transform="translate(-38,-54) scale(1,1)"><rect fill="#ffffff" stroke="none" x="464" y="432" width="16" height="304"/></g><g transform="translate(-38,-54) scale(1,1)"><path fill="none" stroke="#000000" d="M 464 432 L 480 432 L 480 736 L 464 736 L 464 432 Z Z" stroke-miterlimit="10"/></g><g transform="translate(-38,-54) scale(1,1)"><g><path fill="none" stroke="none"/><text fill="#000000" stroke="none" font-family="Arial" font-size="13px" font-style="normal" font-weight="normal" text-decoration="none" x="117" y="487">Devolve o produto</text></g></g><g transform="translate(-38,-54) scale(1,1)"><path fill="none" stroke="#000000" d="M 456 512 L 263 512" stroke-miterlimit="10" stroke-dasharray="6,4"/></g><g transform="translate(-38,-54) scale(1,1)"><path fill="#000000" stroke="none" d="M 273.16267485762415 507.790482243984 L 263 512 L 273.16267485762415 516.209517756016"/></g><g transform="translate(-38,-54) scale(1,1)"><path fill="none" stroke="#000000" d="M 273.16267485762415 507.790482243984 L 263 512 L 273.16267485762415 516.209517756016 L 273.16267485762415 507.790482243984" stroke-miterlimit="10"/></g><g transform="translate(-38,-54) scale(1,1)"><g><path fill="none" stroke="none"/><text fill="#000000" stroke="none" font-family="Arial" font-size="13px" font-style="normal" font-weight="normal" text-decoration="none" x="317" y="535">Devolve análise</text></g></g><g transform="translate(-38,-54) scale(1,1)"><path fill="none" stroke="#000000" d="M 472 224 L 472 433" stroke-miterlimit="10" stroke-dasharray="6,4"/></g><g transform="translate(-38,-54) scale(1,1)"><path fill="none" stroke="#000000" d="M 240 512 L 93 511" stroke-miterlimit="10" stroke-dasharray="6,4"/></g><g transform="translate(-38,-54) scale(1,1)"><path fill="#000000" stroke="none" d="M 103.1910752292966 506.85971188553054 L 93 511 L 103.13380420402531 515.2785526004104"/></g><g transform="translate(-38,-54) scale(1,1)"><path fill="none" stroke="#000000" d="M 103.1910752292966 506.85971188553054 L 93 511 L 103.13380420402531 515.2785526004104 L 103.1910752292966 506.85971188553054" stroke-miterlimit="10"/></g><g transform="translate(-38,-54) scale(1,1)"><g><path fill="none" stroke="none"/><text fill="#000000" stroke="none" font-family="Arial" font-size="13px" font-style="normal" font-weight="normal" text-decoration="none" x="109" y="535">analiseProd: bool</text></g></g><g transform="translate(-38,-54) scale(1,1)"><path fill="none" stroke="#000000" d="M 240 576 L 91 577" stroke-miterlimit="10" stroke-dasharray="6,4"/></g><g transform="translate(-38,-54) scale(1,1)"><path fill="#000000" stroke="none" d="M 101.13419482582373 572.7223727099889 L 91 577 L 101.19069714736105 581.1412186190502"/></g><g transform="translate(-38,-54) scale(1,1)"><path fill="none" stroke="#000000" d="M 101.13419482582373 572.7223727099889 L 91 577 L 101.19069714736105 581.1412186190502 L 101.13419482582373 572.7223727099889" stroke-miterlimit="10"/></g><g transform="translate(-38,-54) scale(1,1)"><g><path fill="none" stroke="none"/><text fill="#000000" stroke="none" font-family="Arial" font-size="13px" font-style="normal" font-weight="normal" text-decoration="none" x="125" y="599">Solicitação</text><text fill="#000000" stroke="none" font-family="Arial" font-size="13px" font-style="normal" font-weight="normal" text-decoration="none" x="125" y="612">negada</text></g></g><g transform="translate(-38,-54) scale(1,1)"><path fill="none" stroke="#000000" d="M 240 672 L 89 671" stroke-miterlimit="10" stroke-dasharray="6,4"/></g><g transform="translate(-38,-54) scale(1,1)"><path fill="#000000" stroke="none" d="M 99.19032899878127 666.8578755575674 L 89 671 L 99.1345750193228 675.2767264557975"/></g><g transform="translate(-38,-54) scale(1,1)"><path fill="none" stroke="#000000" d="M 99.19032899878127 666.8578755575674 L 89 671 L 99.1345750193228 675.2767264557975 L 99.19032899878127 666.8578755575674" stroke-miterlimit="10"/></g><g transform="translate(-38,-54) scale(1,1)"><g><path fill="none" stroke="none"/><text fill="#000000" stroke="none" font-family="Arial" font-size="13px" font-style="normal" font-weight="normal" text-decoration="none" x="125" y="695">Realiza o</text><text fill="#000000" stroke="none" font-family="Arial" font-size="13px" font-style="normal" font-weight="normal" text-decoration="none" x="125" y="708">reembolso</text></g></g><g transform="translate(-38,-54) scale(1,1)"><rect fill="#ffffff" stroke="none" x="272" y="552" width="175" height="175"/></g><g transform="translate(-38,-54) scale(1,1)"><path fill="none" stroke="#000000" d="M 272 552 L 447 552 L 447 727 L 272 727 L 272 552 Z Z" stroke-miterlimit="10"/></g><g transform="translate(-38,-54) scale(1,1)"><g><path fill="none" stroke="none"/><text fill="#000000" stroke="none" font-family="Arial" font-size="13px" font-style="normal" font-weight="normal" text-decoration="none" x="277" y="567">analiseProd</text></g></g><g transform="translate(-38,-54) scale(1,1)"><g><path fill="none" stroke="none"/><text fill="#000000" stroke="none" font-family="Arial" font-size="13px" font-style="normal" font-weight="normal" text-decoration="none" x="285" y="599">if (analiseProd = false)</text></g></g><g transform="translate(-38,-54) scale(1,1)"><g><path fill="none" stroke="none"/><text fill="#000000" stroke="none" font-family="Arial" font-size="13px" font-style="normal" font-weight="normal" text-decoration="none" x="277" y="679">else</text></g></g><g transform="translate(-38,-54) scale(1,1)"><rect fill="#ffffff" stroke="none" x="537" y="89" width="224" height="80"/></g><g transform="translate(-38,-54) scale(1,1)"><path fill="none" stroke="#000000" d="M 537 89 L 761 89 L 761 169 L 537 169 L 537 89 Z Z" stroke-miterlimit="10"/></g><g transform="translate(-38,-54) scale(1,1)"><g><path fill="none" stroke="none"/><text fill="#000000" stroke="none" font-family="Arial" font-size="13px" font-style="normal" font-weight="normal" text-decoration="none" x="542" y="104">Lucas Forge Freo - 22.121.081-8</text></g></g><g transform="translate(-38,-54) scale(1,1)"><g><path fill="none" stroke="none"/></g></g><g transform="translate(-38,-54) scale(1,1)"><g><path fill="none" stroke="none"/></g></g><g transform="translate(-38,-54) scale(1,1)"><g><path fill="none" stroke="none"/><text fill="#000000" stroke="none" font-family="Arial" font-size="13px" font-style="normal" font-weight="normal" text-decoration="none" x="542" y="123">Gianpietro M. B. - 22.121.054-5</text></g></g><g transform="translate(-38,-54) scale(1,1)"><g><path fill="none" stroke="none"/></g></g><g transform="translate(-38,-54) scale(1,1)"><g><path fill="none" stroke="none"/></g></g><g transform="translate(-38,-54) scale(1,1)"><g><path fill="none" stroke="none"/><text fill="#000000" stroke="none" font-family="Arial" font-size="13px" font-style="normal" font-weight="normal" text-decoration="none" x="542" y="142">Filipe Bruhns - 22.121.053-7</text></g></g><g transform="translate(-38,-54) scale(1,1)"><g><path fill="none" stroke="none"/></g></g><g transform="translate(-38,-54) scale(1,1)"><g><path fill="none" stroke="none"/></g></g><g transform="translate(-38,-54) scale(1,1)"><g><path fill="none" stroke="none"/><text fill="#000000" stroke="none" font-family="Arial" font-size="13px" font-style="normal" font-weight="normal" text-decoration="none" x="542" y="161">Yuri Tierno Popic - 22.121.046-1</text></g></g></g></svg>