<svg version="1.1" xmlns="http://www.w3.org/2000/svg" xmlns:xlink="http://www.w3.org/1999/xlink" width="724" height="436"><defs/><g><text fill="#eeeeee" stroke="none" font-family="Arial" font-size="24px" font-style="normal" font-weight="normal" text-decoration="none" x="0" y="0">UNREGISTERED</text><text fill="#eeeeee" stroke="none" font-family="Arial" font-size="24px" font-style="normal" font-weight="normal" text-decoration="none" x="0" y="30">UNREGISTERED</text><text fill="#eeeeee" stroke="none" font-family="Arial" font-size="24px" font-style="normal" font-weight="normal" text-decoration="none" x="0" y="60">UNREGISTERED</text><text fill="#eeeeee" stroke="none" font-family="Arial" font-size="24px" font-style="normal" font-weight="normal" text-decoration="none" x="0" y="90">UNREGISTERED</text><text fill="#eeeeee" stroke="none" font-family="Arial" font-size="24px" font-style="normal" font-weight="normal" text-decoration="none" x="0" y="120">UNREGISTERED</text><text fill="#eeeeee" stroke="none" font-family="Arial" font-size="24px" font-style="normal" font-weight="normal" text-decoration="none" x="0" y="150">UNREGISTERED</text><text fill="#eeeeee" stroke="none" font-family="Arial" font-size="24px" font-style="normal" font-weight="normal" text-decoration="none" x="0" y="180">UNREGISTERED</text><text fill="#eeeeee" stroke="none" font-family="Arial" font-size="24px" font-style="normal" font-weight="normal" text-decoration="none" x="0" y="210">UNREGISTERED</text><text fill="#eeeeee" stroke="none" font-family="Arial" font-size="24px" font-style="normal" font-weight="normal" text-decoration="none" x="0" y="240">UNREGISTERED</text><text fill="#eeeeee" stroke="none" font-family="Arial" font-size="24px" font-style="normal" font-weight="normal" text-decoration="none" x="0" y="270">UNREGISTERED</text><text fill="#eeeeee" stroke="none" font-family="Arial" font-size="24px" font-style="normal" font-weight="normal" text-decoration="none" x="0" y="300">UNREGISTERED</text><text fill="#eeeeee" stroke="none" font-family="Arial" font-size="24px" font-style="normal" font-weight="normal" text-decoration="none" x="0" y="330">UNREGISTERED</text><text fill="#eeeeee" stroke="none" font-family="Arial" font-size="24px" font-style="normal" font-weight="normal" text-decoration="none" x="0" y="360">UNREGISTERED</text><text fill="#eeeeee" stroke="none" font-family="Arial" font-size="24px" font-style="normal" font-weight="normal" text-decoration="none" x="0" y="390">UNREGISTERED</text><text fill="#eeeeee" stroke="none" font-family="Arial" font-size="24px" font-style="normal" font-weight="normal" text-decoration="none" x="0" y="420">UNREGISTERED</text><text fill="#eeeeee" stroke="none" font-family="Arial" font-size="24px" font-style="normal" font-weight="normal" text-decoration="none" x="200" y="0">UNREGISTERED</text><text fill="#eeeeee" stroke="none" font-family="Arial" font-size="24px" font-style="normal" font-weight="normal" text-decoration="none" x="200" y="30">UNREGISTERED</text><text fill="#eeeeee" stroke="none" font-family="Arial" font-size="24px" font-style="normal" font-weight="normal" text-decoration="none" x="200" y="60">UNREGISTERED</text><text fill="#eeeeee" stroke="none" font-family="Arial" font-size="24px" font-style="normal" font-weight="normal" text-decoration="none" x="200" y="90">UNREGISTERED</text><text fill="#eeeeee" stroke="none" font-family="Arial" font-size="24px" font-style="normal" font-weight="normal" text-decoration="none" x="200" y="120">UNREGISTERED</text><text fill="#eeeeee" stroke="none" font-family="Arial" font-size="24px" font-style="normal" font-weight="normal" text-decoration="none" x="200" y="150">UNREGISTERED</text><text fill="#eeeeee" stroke="none" font-family="Arial" font-size="24px" font-style="normal" font-weight="normal" text-decoration="none" x="200" y="180">UNREGISTERED</text><text fill="#eeeeee" stroke="none" font-family="Arial" font-size="24px" font-style="normal" font-weight="normal" text-decoration="none" x="200" y="210">UNREGISTERED</text><text fill="#eeeeee" stroke="none" font-family="Arial" font-size="24px" font-style="normal" font-weight="normal" text-decoration="none" x="200" y="240">UNREGISTERED</text><text fill="#eeeeee" stroke="none" font-family="Arial" font-size="24px" font-style="normal" font-weight="normal" text-decoration="none" x="200" y="270">UNREGISTERED</text><text fill="#eeeeee" stroke="none" font-family="Arial" font-size="24px" font-style="normal" font-weight="normal" text-decoration="none" x="200" y="300">UNREGISTERED</text><text fill="#eeeeee" stroke="none" font-family="Arial" font-size="24px" font-style="normal" font-weight="normal" text-decoration="none" x="200" y="330">UNREGISTERED</text><text fill="#eeeeee" stroke="none" font-family="Arial" font-size="24px" font-style="normal" font-weight="normal" text-decoration="none" x="200" y="360">UNREGISTERED</text><text fill="#eeeeee" stroke="none" font-family="Arial" font-size="24px" font-style="normal" font-weight="normal" text-decoration="none" x="200" y="390">UNREGISTERED</text><text fill="#eeeeee" stroke="none" font-family="Arial" font-size="24px" font-style="normal" font-weight="normal" text-decoration="none" x="200" y="420">UNREGISTERED</text><text fill="#eeeeee" stroke="none" font-family="Arial" font-size="24px" font-style="normal" font-weight="normal" text-decoration="none" x="400" y="0">UNREGISTERED</text><text fill="#eeeeee" stroke="none" font-family="Arial" font-size="24px" font-style="normal" font-weight="normal" text-decoration="none" x="400" y="30">UNREGISTERED</text><text fill="#eeeeee" stroke="none" font-family="Arial" font-size="24px" font-style="normal" font-weight="normal" text-decoration="none" x="400" y="60">UNREGISTERED</text><text fill="#eeeeee" stroke="none" font-family="Arial" font-size="24px" font-style="normal" font-weight="normal" text-decoration="none" x="400" y="90">UNREGISTERED</text><text fill="#eeeeee" stroke="none" font-family="Arial" font-size="24px" font-style="normal" font-weight="normal" text-decoration="none" x="400" y="120">UNREGISTERED</text><text fill="#eeeeee" stroke="none" font-family="Arial" font-size="24px" font-style="normal" font-weight="normal" text-decoration="none" x="400" y="150">UNREGISTERED</text><text fill="#eeeeee" stroke="none" font-family="Arial" font-size="24px" font-style="normal" font-weight="normal" text-decoration="none" x="400" y="180">UNREGISTERED</text><text fill="#eeeeee" stroke="none" font-family="Arial" font-size="24px" font-style="normal" font-weight="normal" text-decoration="none" x="400" y="210">UNREGISTERED</text><text fill="#eeeeee" stroke="none" font-family="Arial" font-size="24px" font-style="normal" font-weight="normal" text-decoration="none" x="400" y="240">UNREGISTERED</text><text fill="#eeeeee" stroke="none" font-family="Arial" font-size="24px" font-style="normal" font-weight="normal" text-decoration="none" x="400" y="270">UNREGISTERED</text><text fill="#eeeeee" stroke="none" font-family="Arial" font-size="24px" font-style="normal" font-weight="normal" text-decoration="none" x="400" y="300">UNREGISTERED</text><text fill="#eeeeee" stroke="none" font-family="Arial" font-size="24px" font-style="normal" font-weight="normal" text-decoration="none" x="400" y="330">UNREGISTERED</text><text fill="#eeeeee" stroke="none" font-family="Arial" font-size="24px" font-style="normal" font-weight="normal" text-decoration="none" x="400" y="360">UNREGISTERED</text><text fill="#eeeeee" stroke="none" font-family="Arial" font-size="24px" font-style="normal" font-weight="normal" text-decoration="none" x="400" y="390">UNREGISTERED</text><text fill="#eeeeee" stroke="none" font-family="Arial" font-size="24px" font-style="normal" font-weight="normal" text-decoration="none" x="400" y="420">UNREGISTERED</text><text fill="#eeeeee" stroke="none" font-family="Arial" font-size="24px" font-style="normal" font-weight="normal" text-decoration="none" x="600" y="0">UNREGISTERED</text><text fill="#eeeeee" stroke="none" font-family="Arial" font-size="24px" font-style="normal" font-weight="normal" text-decoration="none" x="600" y="30">UNREGISTERED</text><text fill="#eeeeee" stroke="none" font-family="Arial" font-size="24px" font-style="normal" font-weight="normal" text-decoration="none" x="600" y="60">UNREGISTERED</text><text fill="#eeeeee" stroke="none" font-family="Arial" font-size="24px" font-style="normal" font-weight="normal" text-decoration="none" x="600" y="90">UNREGISTERED</text><text fill="#eeeeee" stroke="none" font-family="Arial" font-size="24px" font-style="normal" font-weight="normal" text-decoration="none" x="600" y="120">UNREGISTERED</text><text fill="#eeeeee" stroke="none" font-family="Arial" font-size="24px" font-style="normal" font-weight="normal" text-decoration="none" x="600" y="150">UNREGISTERED</text><text fill="#eeeeee" stroke="none" font-family="Arial" font-size="24px" font-style="normal" font-weight="normal" text-decoration="none" x="600" y="180">UNREGISTERED</text><text fill="#eeeeee" stroke="none" font-family="Arial" font-size="24px" font-style="normal" font-weight="normal" text-decoration="none" x="600" y="210">UNREGISTERED</text><text fill="#eeeeee" stroke="none" font-family="Arial" font-size="24px" font-style="normal" font-weight="normal" text-decoration="none" x="600" y="240">UNREGISTERED</text><text fill="#eeeeee" stroke="none" font-family="Arial" font-size="24px" font-style="normal" font-weight="normal" text-decoration="none" x="600" y="270">UNREGISTERED</text><text fill="#eeeeee" stroke="none" font-family="Arial" font-size="24px" font-style="normal" font-weight="normal" text-decoration="none" x="600" y="300">UNREGISTERED</text><text fill="#eeeeee" stroke="none" font-family="Arial" font-size="24px" font-style="normal" font-weight="normal" text-decoration="none" x="600" y="330">UNREGISTERED</text><text fill="#eeeeee" stroke="none" font-family="Arial" font-size="24px" font-style="normal" font-weight="normal" text-decoration="none" x="600" y="360">UNREGISTERED</text><text fill="#eeeeee" stroke="none" font-family="Arial" font-size="24px" font-style="normal" font-weight="normal" text-decoration="none" x="600" y="390">UNREGISTERED</text><text fill="#eeeeee" stroke="none" font-family="Arial" font-size="24px" font-style="normal" font-weight="normal" text-decoration="none" x="600" y="420">UNREGISTERED</text><g transform="translate(-38,-38) scale(1,1)"><rect fill="#C0C0C0" stroke="none" x="55" y="71" width="88" height="48" opacity="0.2"/></g><g transform="translate(-38,-38) scale(1,1)"><rect fill="#ffffff" stroke="none" x="48" y="64" width="88" height="48"/></g><g transform="translate(-38,-38) scale(1,1)"><path fill="none" stroke="#000000" d="M 48 64 L 136 64 L 136 112 L 48 112 L 48 64 Z Z" stroke-miterlimit="10"/></g><g transform="translate(-38,-38) scale(1,1)"><rect fill="#ffffff" stroke="none" x="48" y="64" width="88" height="48"/></g><g transform="translate(-38,-38) scale(1,1)"><path fill="none" stroke="#000000" d="M 48 64 L 136 64 L 136 112 L 48 112 L 48 64 Z Z" stroke-miterlimit="10"/></g><g transform="translate(-38,-38) scale(1,1)"><g><path fill="none" stroke="none"/><text fill="#000000" stroke="none" font-family="Arial" font-size="13px" font-style="normal" font-weight="bold" text-decoration="none" x="70.3291015625" y="82">Cliente</text><path fill="none" stroke="#000000" d="M 113.6708984375 83.5 L 70.3291015625 83.5" stroke-miterlimit="10"/></g></g><g transform="translate(-38,-38) scale(1,1)"><rect fill="#C0C0C0" stroke="none" x="223" y="63" width="88" height="48" opacity="0.2"/></g><g transform="translate(-38,-38) scale(1,1)"><rect fill="#ffffff" stroke="none" x="216" y="56" width="88" height="48"/></g><g transform="translate(-38,-38) scale(1,1)"><path fill="none" stroke="#000000" d="M 216 56 L 304 56 L 304 104 L 216 104 L 216 56 Z Z" stroke-miterlimit="10"/></g><g transform="translate(-38,-38) scale(1,1)"><rect fill="#ffffff" stroke="none" x="216" y="56" width="88" height="48"/></g><g transform="translate(-38,-38) scale(1,1)"><path fill="none" stroke="#000000" d="M 216 56 L 304 56 L 304 104 L 216 104 L 216 56 Z Z" stroke-miterlimit="10"/></g><g transform="translate(-38,-38) scale(1,1)"><g><path fill="none" stroke="none"/><text fill="#000000" stroke="none" font-family="Arial" font-size="13px" font-style="normal" font-weight="bold" text-decoration="none" x="230.140625" y="74">Tireguard</text><path fill="none" stroke="#000000" d="M 289.859375 75.5 L 230.140625 75.5" stroke-miterlimit="10"/></g></g><g transform="translate(-38,-38) scale(1,1)"><rect fill="#C0C0C0" stroke="none" x="407" y="79" width="89.1708984375" height="48" opacity="0.2"/></g><g transform="translate(-38,-38) scale(1,1)"><rect fill="#ffffff" stroke="none" x="400" y="72" width="89.1708984375" height="48"/></g><g transform="translate(-38,-38) scale(1,1)"><path fill="none" stroke="#000000" d="M 400 72 L 489.1708984375 72 L 489.1708984375 120 L 400 120 L 400 72 Z Z" stroke-miterlimit="10"/></g><g transform="translate(-38,-38) scale(1,1)"><rect fill="#ffffff" stroke="none" x="400" y="72" width="89.1708984375" height="48"/></g><g transform="translate(-38,-38) scale(1,1)"><path fill="none" stroke="#000000" d="M 400 72 L 489.1708984375 72 L 489.1708984375 120 L 400 120 L 400 72 Z Z" stroke-miterlimit="10"/></g><g transform="translate(-38,-38) scale(1,1)"><g><path fill="none" stroke="none"/><text fill="#000000" stroke="none" font-family="Arial" font-size="13px" font-style="normal" font-weight="bold" text-decoration="none" x="419.655029296875" y="90">Sistema</text><path fill="none" stroke="#000000" d="M 469.515869140625 91.5 L 419.655029296875 91.5" stroke-miterlimit="10"/></g></g><g transform="translate(-38,-38) scale(1,1)"><rect fill="#C0C0C0" stroke="none" x="79" y="127" width="14.5126953125" height="344" opacity="0.2"/></g><g transform="translate(-38,-38) scale(1,1)"><rect fill="#ffffff" stroke="none" x="72" y="120" width="14.5126953125" height="344"/></g><g transform="translate(-38,-38) scale(1,1)"><path fill="none" stroke="#000000" d="M 72 120 L 86.5126953125 120 L 86.5126953125 464 L 72 464 L 72 120 Z Z" stroke-miterlimit="10"/></g><g transform="translate(-38,-38) scale(1,1)"><rect fill="#ffffff" stroke="none" x="72" y="120" width="14.5126953125" height="344"/></g><g transform="translate(-38,-38) scale(1,1)"><path fill="none" stroke="#000000" d="M 72 120 L 86.5126953125 120 L 86.5126953125 464 L 72 464 L 72 120 Z Z" stroke-miterlimit="10"/></g><g transform="translate(-38,-38) scale(1,1)"><g><path fill="none" stroke="none"/><text fill="#000000" stroke="none" font-family="Arial" font-size="13px" font-style="normal" font-weight="bold" text-decoration="none" x="79.25634765625" y="133"></text><path fill="none" stroke="#000000" d="M 79.25634765625 139.5 L 79.25634765625 139.5" stroke-miterlimit="10"/></g></g><g transform="translate(-38,-38) scale(1,1)"><rect fill="#C0C0C0" stroke="none" x="255" y="135" width="16" height="336" opacity="0.2"/></g><g transform="translate(-38,-38) scale(1,1)"><rect fill="#ffffff" stroke="none" x="248" y="128" width="16" height="336"/></g><g transform="translate(-38,-38) scale(1,1)"><path fill="none" stroke="#000000" d="M 248 128 L 264 128 L 264 464 L 248 464 L 248 128 Z Z" stroke-miterlimit="10"/></g><g transform="translate(-38,-38) scale(1,1)"><rect fill="#ffffff" stroke="none" x="248" y="128" width="16" height="336"/></g><g transform="translate(-38,-38) scale(1,1)"><path fill="none" stroke="#000000" d="M 248 128 L 264 128 L 264 464 L 248 464 L 248 128 Z Z" stroke-miterlimit="10"/></g><g transform="translate(-38,-38) scale(1,1)"><g><path fill="none" stroke="none"/><text fill="#000000" stroke="none" font-family="Arial" font-size="13px" font-style="normal" font-weight="bold" text-decoration="none" x="256" y="141"></text><path fill="none" stroke="#000000" d="M 256 147.5 L 256 147.5" stroke-miterlimit="10"/></g></g><g transform="translate(-38,-38) scale(1,1)"><path fill="none" stroke="#000000" d="M 88 136 L 248 136" stroke-miterlimit="10"/></g><g transform="translate(-38,-38) scale(1,1)"><path fill="#000000" stroke="none" d="M 237.83732514237585 140.209517756016 L 248 136 L 237.83732514237585 131.790482243984"/></g><g transform="translate(-38,-38) scale(1,1)"><path fill="none" stroke="#000000" d="M 237.83732514237585 140.209517756016 L 248 136 L 237.83732514237585 131.790482243984 L 237.83732514237585 140.209517756016" stroke-miterlimit="10"/></g><g transform="translate(-38,-38) scale(1,1)"><path fill="none" stroke="#000000" d="M 232 304 L 88 304" stroke-miterlimit="10" stroke-dasharray="6,4"/></g><g transform="translate(-38,-38) scale(1,1)"><path fill="#000000" stroke="none" d="M 98.16267485762415 299.790482243984 L 88 304 L 98.16267485762415 308.209517756016"/></g><g transform="translate(-38,-38) scale(1,1)"><path fill="none" stroke="#000000" d="M 98.16267485762415 299.790482243984 L 88 304 L 98.16267485762415 308.209517756016 L 98.16267485762415 299.790482243984" stroke-miterlimit="10"/></g><g transform="translate(-38,-38) scale(1,1)"><path fill="none" stroke="#000000" d="M 240 384 L 88 384" stroke-miterlimit="10" stroke-dasharray="6,4"/></g><g transform="translate(-38,-38) scale(1,1)"><path fill="#000000" stroke="none" d="M 98.16267485762415 379.790482243984 L 88 384 L 98.16267485762415 388.209517756016"/></g><g transform="translate(-38,-38) scale(1,1)"><path fill="none" stroke="#000000" d="M 98.16267485762415 379.790482243984 L 88 384 L 98.16267485762415 388.209517756016 L 98.16267485762415 379.790482243984" stroke-miterlimit="10"/></g><g transform="translate(-38,-38) scale(1,1)"><g><path fill="none" stroke="none"/><text fill="#000000" stroke="none" font-family="Arial" font-size="13px" font-style="normal" font-weight="normal" text-decoration="none" x="125" y="159">Informa os</text><text fill="#000000" stroke="none" font-family="Arial" font-size="13px" font-style="normal" font-weight="normal" text-decoration="none" x="125" y="172">dados de</text><text fill="#000000" stroke="none" font-family="Arial" font-size="13px" font-style="normal" font-weight="normal" text-decoration="none" x="125" y="184">pagamento</text></g></g><g transform="translate(-38,-38) scale(1,1)"><g><path fill="none" stroke="none"/><text fill="#000000" stroke="none" font-family="Arial" font-size="13px" font-style="normal" font-weight="normal" text-decoration="none" x="109" y="327">Mensagem de erro</text></g></g><g transform="translate(-38,-38) scale(1,1)"><g><path fill="none" stroke="none"/><text fill="#000000" stroke="none" font-family="Arial" font-size="13px" font-style="normal" font-weight="normal" text-decoration="none" x="117" y="399">Confirma o</text><text fill="#000000" stroke="none" font-family="Arial" font-size="13px" font-style="normal" font-weight="normal" text-decoration="none" x="117" y="411">pagamento</text></g></g><g transform="translate(-38,-38) scale(1,1)"><rect fill="#ffffff" stroke="none" x="440" y="128" width="16" height="335"/></g><g transform="translate(-38,-38) scale(1,1)"><path fill="none" stroke="#000000" d="M 440 128 L 456 128 L 456 463 L 440 463 L 440 128 Z Z" stroke-miterlimit="10"/></g><g transform="translate(-38,-38) scale(1,1)"><path fill="none" stroke="#000000" d="M 264 160 L 435 161" stroke-miterlimit="10"/></g><g transform="translate(-38,-38) scale(1,1)"><path fill="#000000" stroke="none" d="M 424.81288227034815 165.15001594722398 L 435 161 L 424.8621155543031 156.73112439093188"/></g><g transform="translate(-38,-38) scale(1,1)"><path fill="none" stroke="#000000" d="M 424.81288227034815 165.15001594722398 L 435 161 L 424.8621155543031 156.73112439093188 L 424.81288227034815 165.15001594722398" stroke-miterlimit="10"/></g><g transform="translate(-38,-38) scale(1,1)"><g><path fill="none" stroke="none"/><text fill="#000000" stroke="none" font-family="Arial" font-size="13px" font-style="normal" font-weight="normal" text-decoration="none" x="269" y="183">Envia os dados para análise</text></g></g><g transform="translate(-38,-38) scale(1,1)"><path fill="none" stroke="#000000" d="M 432 224 L 268 224" stroke-miterlimit="10" stroke-dasharray="6,4"/></g><g transform="translate(-38,-38) scale(1,1)"><path fill="#000000" stroke="none" d="M 278.16267485762415 219.790482243984 L 268 224 L 278.16267485762415 228.209517756016"/></g><g transform="translate(-38,-38) scale(1,1)"><path fill="none" stroke="#000000" d="M 278.16267485762415 219.790482243984 L 268 224 L 278.16267485762415 228.209517756016 L 278.16267485762415 219.790482243984" stroke-miterlimit="10"/></g><g transform="translate(-38,-38) scale(1,1)"><g><path fill="none" stroke="none"/><text fill="#000000" stroke="none" font-family="Arial" font-size="13px" font-style="normal" font-weight="normal" text-decoration="none" x="301" y="247">retornaAnalise: bool</text></g></g><g transform="translate(-38,-38) scale(1,1)"><rect fill="#ffffff" stroke="none" x="272" y="304" width="151" height="103"/></g><g transform="translate(-38,-38) scale(1,1)"><path fill="none" stroke="#000000" d="M 272 304 L 423 304 L 423 407 L 272 407 L 272 304 Z Z" stroke-miterlimit="10"/></g><g transform="translate(-38,-38) scale(1,1)"><g><path fill="none" stroke="none"/><text fill="#000000" stroke="none" font-family="Arial" font-size="13px" font-style="normal" font-weight="normal" text-decoration="none" x="277" y="319">retornaAnalise</text></g></g><g transform="translate(-38,-38) scale(1,1)"><g><path fill="none" stroke="none"/><text fill="#000000" stroke="none" font-family="Arial" font-size="13px" font-style="normal" font-weight="normal" text-decoration="none" x="277" y="335">if (retornaAnalise = true)</text></g></g><g transform="translate(-38,-38) scale(1,1)"><g><path fill="none" stroke="none"/><text fill="#000000" stroke="none" font-family="Arial" font-size="13px" font-style="normal" font-weight="normal" text-decoration="none" x="277" y="391">else</text></g></g><g transform="translate(-38,-38) scale(1,1)"><rect fill="#ffffff" stroke="none" x="528" y="48" width="224" height="80"/></g><g transform="translate(-38,-38) scale(1,1)"><path fill="none" stroke="#000000" d="M 528 48 L 752 48 L 752 128 L 528 128 L 528 48 Z Z" stroke-miterlimit="10"/></g><g transform="translate(-38,-38) scale(1,1)"><g><path fill="none" stroke="none"/><text fill="#000000" stroke="none" font-family="Arial" font-size="13px" font-style="normal" font-weight="normal" text-decoration="none" x="533" y="63">Lucas Forge Freo - 22.121.081-8</text></g></g><g transform="translate(-38,-38) scale(1,1)"><g><path fill="none" stroke="none"/></g></g><g transform="translate(-38,-38) scale(1,1)"><g><path fill="none" stroke="none"/></g></g><g transform="translate(-38,-38) scale(1,1)"><g><path fill="none" stroke="none"/><text fill="#000000" stroke="none" font-family="Arial" font-size="13px" font-style="normal" font-weight="normal" text-decoration="none" x="533" y="82">Gianpietro M. B. - 22.121.054-5</text></g></g><g transform="translate(-38,-38) scale(1,1)"><g><path fill="none" stroke="none"/></g></g><g transform="translate(-38,-38) scale(1,1)"><g><path fill="none" stroke="none"/></g></g><g transform="translate(-38,-38) scale(1,1)"><g><path fill="none" stroke="none"/><text fill="#000000" stroke="none" font-family="Arial" font-size="13px" font-style="normal" font-weight="normal" text-decoration="none" x="533" y="101">Filipe Bruhns - 22.121.053-7</text></g></g><g transform="translate(-38,-38) scale(1,1)"><g><path fill="none" stroke="none"/></g></g><g transform="translate(-38,-38) scale(1,1)"><g><path fill="none" stroke="none"/></g></g><g transform="translate(-38,-38) scale(1,1)"><g><path fill="none" stroke="none"/><text fill="#000000" stroke="none" font-family="Arial" font-size="13px" font-style="normal" font-weight="normal" text-decoration="none" x="533" y="120">Yuri Tierno Popic - 22.121.046-1</text></g></g></g></svg>